<svg width="36" height="36" viewBox="0 0 36 36" fill="none" xmlns="http://www.w3.org/2000/svg">
<mask id="mask0_115_282" style="mask-type:alpha" maskUnits="userSpaceOnUse" x="0" y="0" width="36" height="36">
<rect width="36" height="36" fill="#D9D9D9"/>
</mask>
<g mask="url(#mask0_115_282)">
<path d="M7.5 12H28.5V9H7.5V12ZM7.5 33C6.675 33 5.96875 32.7063 5.38125 32.1188C4.79375 31.5313 4.5 30.825 4.5 30V9C4.5 8.175 4.79375 7.46875 5.38125 6.88125C5.96875 6.29375 6.675 6 7.5 6H9V3H12V6H24V3H27V6H28.5C29.325 6 30.0313 6.29375 30.6188 6.88125C31.2063 7.46875 31.5 8.175 31.5 9V17.5125C31.025 17.2875 30.5375 17.1 30.0375 16.95C29.5375 16.8 29.025 16.6875 28.5 16.6125V15H7.5V30H16.95C17.125 30.55 17.3313 31.075 17.5688 31.575C17.8063 32.075 18.0875 32.55 18.4125 33H7.5ZM27 34.5C24.925 34.5 23.1563 33.7688 21.6938 32.3063C20.2313 30.8438 19.5 29.075 19.5 27C19.5 24.925 20.2313 23.1563 21.6938 21.6938C23.1563 20.2313 24.925 19.5 27 19.5C29.075 19.5 30.8438 20.2313 32.3063 21.6938C33.7688 23.1563 34.5 24.925 34.5 27C34.5 29.075 33.7688 30.8438 32.3063 32.3063C30.8438 33.7688 29.075 34.5 27 34.5ZM29.5125 30.5625L30.5625 29.5125L27.75 26.7V22.5H26.25V27.3L29.5125 30.5625Z" fill="#1C1B1F"/>
</g>
</svg>
