<svg xmlns="http://www.w3.org/2000/svg" xmlns:xlink="http://www.w3.org/1999/xlink" xmlns:lucid="lucid" width="1582" height="714.67"><g transform="translate(-319 -139)" lucid:page-tab-id="MJQZOVs7IQg0"><path d="M580 786a6 6 0 0 1 6-6h348a6 6 0 0 1 6 6v60.67a6 6 0 0 1-6 6H586a6 6 0 0 1-6-6z" stroke="#3a414a" stroke-width="2" fill="#cfe4ff"/><use xlink:href="#a" transform="matrix(1,0,0,1,592,792) translate(23.479600694444457 33.77777777777778)"/><path d="M1100 786a6 6 0 0 1 6-6h348a6 6 0 0 1 6 6v60.67a6 6 0 0 1-6 6h-348a6 6 0 0 1-6-6z" stroke="#3a414a" stroke-width="2" fill="#cfe4ff"/><use xlink:href="#b" transform="matrix(1,0,0,1,1112,792) translate(29.865234375 33.77777777777778)"/><path d="M1280 286a6 6 0 0 1 6-6h348a6 6 0 0 1 6 6v60.67a6 6 0 0 1-6 6h-348a6 6 0 0 1-6-6z" stroke="#3a414a" stroke-width="2" fill="#cfe4ff"/><use xlink:href="#c" transform="matrix(1,0,0,1,1292,292) translate(60.089843750000014 33.77777777777778)"/><path d="M940 466a6 6 0 0 1 6-6h348a6 6 0 0 1 6 6v60.67a6 6 0 0 1-6 6H946a6 6 0 0 1-6-6z" stroke="#3a414a" stroke-width="2" fill="#cfe4ff"/><use xlink:href="#d" transform="matrix(1,0,0,1,952,472) translate(52.00065104166667 33.77777777777778)"/><path d="M360 466a6 6 0 0 1 6-6h348a6 6 0 0 1 6 6v60.67a6 6 0 0 1-6 6H366a6 6 0 0 1-6-6z" stroke="#3a414a" stroke-width="2" fill="#cfe4ff"/><use xlink:href="#e" transform="matrix(1,0,0,1,372,472) translate(53.67708333333334 33.77777777777778)"/><path d="M722 496.33h186.25" stroke="#3a414a" stroke-width="2" fill="none"/><path d="M722.03 497.3H721v-1.94h1.03z" stroke="#3a414a" stroke-width=".05" fill="#3a414a"/><path d="M937.6 496.33l-14.86-14.85-14.85 14.85 14.84 14.85z" stroke="#3a414a" stroke-width="2" fill="#fff"/><path d="M1118.1 552.17l-.46 1.38-.9 2.4-1.02 2.44-1.15 2.44-1.3 2.5-1.47 2.52-1.64 2.58-1.84 2.66-2.08 2.74-2.35 2.83-2.68 2.96-3.04 3.1-3.48 3.27-4.02 3.47-4.7 3.7-5.53 4.03-6.62 4.4-8.06 4.87-10.08 5.53-13.06 6.46-18.02 8-139.85 50.28L856.12 688l-17.93 7.97-13 6.43-10 5.5-8 4.82-6.54 4.35-5.47 3.97-4.64 3.66-3.96 3.42-3.42 3.2-2.98 3.05-2.6 2.9-2.3 2.77-2.04 2.68-1.8 2.58-1.6 2.52-1.42 2.46-1.26 2.4-1.12 2.4-1 2.34-.85 2.34-.75 2.33-.65 2.32-.55 2.34-.46 2.37-.36 2.4-.26 2.43-.15 2.5L761 778l-1.95-.04.03-1.62.16-2.56.27-2.52.37-2.48.47-2.44.57-2.43.68-2.4.78-2.4.9-2.43 1.02-2.43 1.15-2.45 1.3-2.48 1.47-2.53 1.64-2.58 1.84-2.65 2.08-2.74 2.35-2.84 2.68-2.97 3.04-3.1 3.48-3.26 4.02-3.47 4.7-3.72 5.53-4 6.62-4.4 8.06-4.88 10.08-5.53 13.06-6.46 18-8 28.72-11.28 139.8-50.27 17.93-7.95 13-6.43 10-5.5 8-4.83 6.54-4.34 5.47-3.97 4.64-3.66 3.96-3.42 3.42-3.2 2.98-3.05 2.6-2.9 2.3-2.78 2.04-2.67 1.8-2.6 1.6-2.5 1.42-2.46 1.26-2.42 1.12-2.38 1-2.35.86-2.34.43-1.33z" stroke="#3a414a" stroke-width=".05" fill="#3a414a"/><path d="M761 778l-.02 1H759l.03-1.05z" fill="#3a414a"/><path stroke="#3a414a" stroke-width=".05" fill="#3a414a"/><path d="M1121.88 551.67l-9.16-1.43 6.78-13.38z" fill="#3a414a"/><path d="M1123.06 552.84l-11.82-1.84 8.75-17.25zm-8.86-3.35l6.5 1-1.7-10.52z" stroke="#3a414a" stroke-width=".05" fill="#3a414a"/><path d="M1279.98 778l-.1-4.73-.34-5.4-.54-5.14-.72-4.9-.9-4.72-1.07-4.55-1.22-4.42-1.4-4.33-1.6-4.25-1.76-4.2-1.96-4.18-2.2-4.18-2.43-4.24-2.73-4.3-3.07-4.4-3.47-4.58-4-4.83-4.67-5.18-5.63-5.73-7.1-6.66-9.97-8.6-56.17-44.9-7.1-6.65-5.62-5.73-4.66-5.2-4-4.8-3.47-4.6-3.07-4.4-2.73-4.3-2.44-4.22-2.2-4.18-1.95-4.18-1.77-4.2-1.57-4.26-1.4-4.32-1.24-4.43-1.08-4.54-.9-4.7-.4-2.75" stroke="#3a414a" stroke-width="2" stroke-linejoin="round" fill="none"/><path d="M1280.97 779h-1.94l-.03-1 1.95-.05z" stroke="#3a414a" stroke-width=".05" fill="#3a414a"/><path d="M1120.23 536.9l5.64 13.9-9.25.65z" stroke="#3a414a" stroke-width="2" fill="#3a414a"/><path d="M320 606a6 6 0 0 1 6-6h188a6 6 0 0 1 6 6v60.67a6 6 0 0 1-6 6H326a6 6 0 0 1-6-6z" stroke="#3a414a" stroke-width="2" fill="#cfe4ff"/><use xlink:href="#f" transform="matrix(1,0,0,1,332,612) translate(44.070963541666664 33.77777777777778)"/><path d="M580 606a6 6 0 0 1 6-6h188a6 6 0 0 1 6 6v60.67a6 6 0 0 1-6 6H586a6 6 0 0 1-6-6z" stroke="#3a414a" stroke-width="2" fill="#cfe4ff"/><use xlink:href="#g" transform="matrix(1,0,0,1,592,612) translate(58.589192708333336 33.77777777777778)"/><path d="M420.04 598v-.1l.06-.53.08-.53.1-.52.12-.53.15-.53.17-.52.2-.53.22-.53.25-.55.28-.55.33-.57.38-.57.4-.6.48-.62.53-.64.6-.68.7-.7.8-.75.92-.8 1.08-.86 1.27-.9 1.52-1.02 1.82-1.1 2.27-1.25 2.84-1.4 3.7-1.66 5.1-2 7.63-2.65 15.9-4.73 35.96-10.25 7.64-2.65 5.08-2 3.7-1.65 2.86-1.4 2.28-1.25 1.83-1.12.72-.47" stroke="#3a414a" stroke-width="2" stroke-linejoin="round" fill="none"/><path d="M421 598l-.02 1h-1.96l.03-1.05z" stroke="#3a414a" stroke-width=".05" fill="#3a414a"/><path d="M538.18 536.34l-4.2 14.4-7.66-5.22z" stroke="#3a414a" stroke-width="2" fill="#3a414a"/><path d="M679.96 598l-.05-.4-.06-.46-.08-.46-.1-.45-.14-.46-.15-.46-.17-.45-.2-.47-.22-.48-.26-.5-.28-.5-.33-.5-.36-.54-.42-.55-.48-.57-.55-.6-.63-.64-.73-.7-.83-.7-.97-.8-1.16-.83-1.38-.9-1.68-1.02-2.05-1.13-2.57-1.27-3.3-1.47-4.4-1.73-6.2-2.16-9.75-2.93-25.3-6.34-35.6-8.74-9.74-2.93-6.2-2.15-4.4-1.74-3.3-1.47-2.57-1.26-2.05-1.12-.6-.37" stroke="#3a414a" stroke-width="2" stroke-linejoin="round" fill="none"/><path d="M680.98 599H679l-.02-1 1.95-.05z" stroke="#3a414a" stroke-width=".05" fill="#3a414a"/><path d="M541.95 536.25l12.3 8.57-7.38 5.6z" stroke="#3a414a" stroke-width="2" fill="#3a414a"/><path d="M1098.02 815.34l-.04 1.95-3.94-.1.04-1.94zm-15.43-.66l3.65.24-.12 1.94-3.7-.23-4.2-.44.2-1.95zm-14.55-1.82l2.62.38-.3 1.93-2.65-.4-5.14-.97.37-1.9zm-19.53-4.57l6.28 1.75.5.1-.45 1.9-.54-.1-6.34-1.8-.77-.24.6-1.84zm-12.1-4.22l3.94 1.47-.67 1.83-4-1.5-3.38-1.4.75-1.8zm-11.8-5.25l1.3.6-.82 1.78-1.34-.62-5.7-3 .9-1.72zm-17.96-10.4l5.55 3.52-1.03 1.64-5.6-3.55-1.06-.75 1.12-1.6zm-13.03-9.5l5.6 4.25-1.2 1.55-5.6-4.27-.67-.55 1.24-1.5zm-7.25-6l.55.45-1.24 1.5-.6-.48-5.32-4.8 1.3-1.45zm-27.13-27.06h-.3l.17-.15zm-5.43-6l-1.44 1.32-5.3-5.85 1.45-1.3zm-10.58-11.67l-1.45 1.3-5.3-5.83 1.44-1.3zm-14.2-15.68l3.6 4-1.43 1.3-3.6-3.98-1.7-1.8 1.42-1.34zm-7.1-7.58l-1.42 1.33-5.38-5.76 1.42-1.33zm-10.88-11.47l-1.36 1.4-5.63-5.52 1.37-1.4zm-16.16-15.2l4.75 4.28-1.3 1.45-4.73-4.26-1.14-.94 1.24-1.5zm-7.33-6.07l-1.18 1.55-6.23-4.73 1.18-1.55zm-13.15-9.58l.44.3-1.1 1.6-.42-.27-6.2-3.94 1.04-1.63zm-18.18-10.53l5.03 2.62-.9 1.73-5-2.6-2-.95.84-1.77zm-11.94-5.33l2.68 1.13-.76 1.8-2.64-1.1-4.66-1.75.68-1.83zm-18.6-6.04l6.32 1.77-.52 1.88-6.3-1.76-1.25-.3.45-1.9zm-13.42-2.84l4.38.82-.36 1.92-4.35-.83-3.38-.5.3-1.92zm-14.7-1.86l3.42.36-.2 1.94-3.4-.36-.48-.03.12-1.95z" stroke="#3a414a" stroke-width=".05" fill="#3a414a"/><path d="M795.68 644.43L783 636.4l13.28-6.96z" fill="#3a414a"/><path d="M796.6 646.16l-15.55-9.82 16.28-8.55zm-11.65-9.67l9.82 6.2.47-11.6z" stroke="#3a414a" stroke-width=".05" fill="#3a414a"/><path d="M1099 815.36v1.95h-1.03v-1.94z" fill="#3a414a"/><path stroke="#3a414a" stroke-width=".05" fill="#3a414a"/><use xlink:href="#h" transform="matrix(1,0,0,1,950.9279508551622,745.8658048518987) translate(0 17.22222222222222)"/><path d="M760.02 774.07l.2.56.2.56.14.53.13.55.1.54.07.54.06.52-1.94.2-.06-.48-.07-.46-.1-.46-.1-.46-.13-.47-.15-.48-.2-.48-.1-.27 1.8-.75zm-11-11.54l1.75 1.16 1.46 1.04 1.23.98 1.05.9.48.45-1.33 1.42-.45-.43-1-.85-1.15-.92-1.4-1-1.67-1.12-.53-.33 1-1.67zm-12.08-6.14l4.14 1.83.3.14-.87 1.75-.25-.13-4.06-1.8-2.94-1.17.7-1.8zm-12.8-4.7l2.3.8-.63 1.83-2.26-.8-5.3-1.57.57-1.87zm-13.03-3.8l-.47 1.88-7.72-1.97.5-1.88zm-15.53-3.8l-.33 1.92-7.85-1.36.32-1.92zm-15.7-2.72l-.33 1.93-7.85-1.35.32-1.92zm-15.7-2.7l-.33 1.92-7.85-1.36.32-1.92zm-15.7-2.7l-.33 1.9-7.85-1.35.33-1.92zm-15.7-2.73l-.33 1.93-5.07-.88v-1.98zm-38.95-6.72v1.98l-.62-.1.33-1.92zm-8.14-1.4l-.33 1.92-7.85-1.36.33-1.93zm-15.7-2.7l-.33 1.9-7.85-1.35.33-1.92zm-15.7-2.72l-.33 1.93-7.85-1.36.34-1.92zm-15.7-2.7l-.33 1.92-7.84-1.36.34-1.92zm-15.7-2.7l-.32 1.9-7.85-1.35.34-1.92zm-15.63-2.85l-.4 1.9-7.8-1.63.4-1.9zm-15.6-3.28l-.4 1.9-7.8-1.63.42-1.9zm-15.47-3.55l-.5 1.9-7.7-1.98.48-1.88zm-19.72-5.5l4.4 1.32-.57 1.87-4.44-1.32-3.2-1.1.64-1.85zm-16.7-6.45l4.05 1.8 2.07.82-.72 1.8-2.1-.82-4.13-1.84-1.13-.56.85-1.75zm-10.8-6.3l1.38 1 1.45.97-1.1 1.62-1.47-.98-1.46-1.06-.38-.3 1.2-1.53z" stroke="#3a414a" stroke-width=".05" fill="#3a414a"/><path d="M434.2 682.6l-12.84 7.77-.32-15z" fill="#3a414a"/><path d="M436.14 682.55l-15.72 9.53-.4-18.37zm-13.84 6.12l9.94-6.03-10.2-5.6z" stroke="#3a414a" stroke-width=".05" fill="#3a414a"/><path d="M760.98 779H759v-1.03H761z" fill="#3a414a"/><path stroke="#3a414a" stroke-width=".05" fill="#3a414a"/><use xlink:href="#h" transform="matrix(1,0,0,1,593.814551573406,719.660534872475) translate(0 17.22222222222222)"/><path d="M1120.04 458v-.02l.06-.5.07-.5.1-.5.1-.5.16-.5.16-.53.2-.52.2-.53.27-.55.3-.56.33-.6.38-.6.43-.6.5-.66.57-.7.65-.7.75-.77.88-.82 1-.88 1.2-.95 1.44-1.03 1.7-1.14 2.07-1.26 2.56-1.4 3.2-1.6 4.1-1.8 5.4-2.14 7.33-2.55 10.45-3.12 16-4.08 28.23-5.93 186.56-32.2 16-4.08 10.44-3.15 7.33-2.54 5.4-2.12 4.1-1.82 3.2-1.6 2.56-1.4 2.08-1.25 1.47-.96" stroke="#3a414a" stroke-width="2" stroke-linejoin="round" fill="none"/><path d="M1121 458l-.03 1h-1.94l.02-1.05z" stroke="#3a414a" stroke-width=".05" fill="#3a414a"/><path d="M1458.17 356.34l-4.22 14.4-7.65-5.24z" stroke="#3a414a" stroke-width="2" fill="#3a414a"/><path d="M1520 786a6 6 0 0 1 6-6h348a6 6 0 0 1 6 6v60.67a6 6 0 0 1-6 6h-348a6 6 0 0 1-6-6z" stroke="#3a414a" stroke-width="2" fill="#cfe4ff"/><use xlink:href="#i" transform="matrix(1,0,0,1,1532,792) translate(71.05447048611111 33.77777777777778)"/><path d="M1699.98 778l-.22-10.43-.67-10.7-1.06-10.05-1.4-9.55-1.75-9.1-2.06-8.77-2.37-8.47-2.67-8.24-3-8.1-3.36-7.96-3.73-7.93-4.15-7.94-4.65-8.04-5.22-8.24-5.95-8.54-6.85-9.03-8.1-9.77-9.96-11.05-13.27-13.52-23.52-21.94-55.58-50.52-13.27-13.52-9.96-11.05-8.1-9.78-6.85-9.02-5.95-8.55-5.22-8.23-4.65-8.05-4.16-7.94-3.74-7.93-3.35-7.97-3-8.08-2.67-8.25-2.37-8.46-2.05-8.76-1.73-9.1-1.4-9.55-1.06-10.07-.38-6.13" stroke="#3a414a" stroke-width="2" stroke-linejoin="round" fill="none"/><path d="M1700.97 779h-1.94l-.03-1 1.95-.05z" stroke="#3a414a" stroke-width=".05" fill="#3a414a"/><path d="M1460.07 355.67l7.9 12.73-14.98.5z" stroke="#3a414a" stroke-width="2" fill="#3a414a"/><path d="M320 786a6 6 0 0 1 6-6h188a6 6 0 0 1 6 6v60.67a6 6 0 0 1-6 6H326a6 6 0 0 1-6-6z" stroke="#3a414a" stroke-width="2" fill="#cfe4ff"/><use xlink:href="#j" transform="matrix(1,0,0,1,332,792) translate(51.38975694444445 33.77777777777778)"/><path d="M1280 626a6 6 0 0 1 6-6h188a6 6 0 0 1 6 6v60.67a6 6 0 0 1-6 6h-188a6 6 0 0 1-6-6z" stroke="#3a414a" stroke-width="2" fill="#cfe4ff"/><use xlink:href="#k" transform="matrix(1,0,0,1,1292,632) translate(57.775390625 33.77777777777778)"/><path d="M1700 626a6 6 0 0 1 6-6h188a6 6 0 0 1 6 6v60.67a6 6 0 0 1-6 6h-188a6 6 0 0 1-6-6z" stroke="#3a414a" stroke-width="2" fill="#cfe4ff"/><use xlink:href="#l" transform="matrix(1,0,0,1,1712,632) translate(36.025173611111114 33.77777777777778)"/><path d="M578 816.33h-38.5" stroke="#3a414a" stroke-width="2" stroke-linejoin="round" fill="none"/><path d="M579 817.3h-1.03v-1.94H579z" stroke="#3a414a" stroke-width=".05" fill="#3a414a"/><path d="M524.24 816.33l14.26-4.63v9.27z" stroke="#3a414a" stroke-width="2" fill="#3a414a"/><path d="M1280.03 778v-.34l.1-1.3.16-1.24.2-1.22.28-1.2.33-1.18.4-1.18.47-1.17.53-1.18.62-1.2.7-1.2.8-1.25.92-1.27 1.06-1.33 1.23-1.4 1.44-1.45 1.7-1.57 2.03-1.7 2.48-1.86 3.1-2.1 4.1-2.47 5.73-3.1 10.12-4.8 33.07-14.73 5.74-3.1 4.07-2.47 3.12-2.1 2.48-1.87 2.03-1.7 1.7-1.56 1.44-1.47 1.23-1.38.23-.3" stroke="#3a414a" stroke-width="2" stroke-linejoin="round" fill="none"/><path d="M1281 778l-.03 1h-1.94l.02-1.05z" stroke="#3a414a" stroke-width=".05" fill="#3a414a"/><path d="M1378.86 696.7l-.67 14.98-8.7-3.26z" stroke="#3a414a" stroke-width="2" fill="#3a414a"/><path d="M1700.03 778v-.34l.1-1.3.16-1.24.2-1.22.28-1.2.33-1.18.4-1.18.47-1.17.53-1.18.62-1.2.7-1.2.8-1.25.92-1.27 1.06-1.33 1.23-1.4 1.44-1.45 1.7-1.57 2.03-1.7 2.48-1.86 3.1-2.1 4.1-2.47 5.73-3.1 10.12-4.8 33.07-14.73 5.74-3.1 4.07-2.47 3.12-2.1 2.48-1.87 2.03-1.7 1.7-1.56 1.44-1.47 1.23-1.38.23-.3" stroke="#3a414a" stroke-width="2" stroke-linejoin="round" fill="none"/><path d="M1701 778l-.03 1h-1.94l.02-1.05z" stroke="#3a414a" stroke-width=".05" fill="#3a414a"/><path d="M1798.86 696.7l-.67 14.98-8.7-3.26z" stroke="#3a414a" stroke-width="2" fill="#3a414a"/><path d="M780 276a6 6 0 0 1 6-6h288a6 6 0 0 1 6 6v60.67a6 6 0 0 1-6 6H786a6 6 0 0 1-6-6z" stroke="#3a414a" stroke-width="2" fill="#cfe4ff"/><use xlink:href="#m" transform="matrix(1,0,0,1,792,282) translate(52.23611111111114 33.77777777777778)"/><path d="M390 276a6 6 0 0 1 6-6h288a6 6 0 0 1 6 6v60.67a6 6 0 0 1-6 6H396a6 6 0 0 1-6-6z" stroke="#3a414a" stroke-width="2" fill="#cfe4ff"/><use xlink:href="#n" transform="matrix(1,0,0,1,402,282) translate(80.62152777777777 33.77777777777778)"/><path d="M692 306.33h68.5" stroke="#3a414a" stroke-width="2" fill="none"/><path d="M692.03 307.3H691v-1.94h1.03z" stroke="#3a414a" stroke-width=".05" fill="#3a414a"/><path d="M775.76 306.33l-14.26 4.64v-9.27z" stroke="#3a414a" stroke-width="2" fill="#3a414a"/><path d="M540 344.67v83.58" stroke="#3a414a" stroke-width="2" fill="none"/><path d="M540.98 344.7H539v-1.03H541z" stroke="#3a414a" stroke-width=".05" fill="#3a414a"/><path d="M540 457.6l14.85-14.86L540 427.9l-14.85 14.84z" stroke="#3a414a" stroke-width="2" fill="#fff"/><path d="M390 146a6 6 0 0 1 6-6h288a6 6 0 0 1 6 6v60.67a6 6 0 0 1-6 6H396a6 6 0 0 1-6-6z" stroke="#3a414a" stroke-width="2" fill="#cfe4ff"/><use xlink:href="#o" transform="matrix(1,0,0,1,402,152) translate(111.779296875 33.77777777777778)"/><path d="M540 268v-38.34" stroke="#3a414a" stroke-width="2" fill="none"/><path d="M540.98 269H539v-1.03H541z" stroke="#3a414a" stroke-width=".05" fill="#3a414a"/><path d="M540 215.67l7.5 13h-15z" stroke="#3a414a" stroke-width="2" fill="#3a414a"/><defs><path d="M657 26c-323 0-524-166-541-416h195c15 169 171 246 346 246 202 0 356-106 356-265 5-203-294-238-475-293-239-73-380-191-380-389 0-252 224-419 512-419 294 0 499 171 508 396H992c-17-145-151-228-328-228-193 0-321 102-321 242 0 156 175 211 284 241l149 41c160 44 422 134 422 412 0 244-197 432-541 432" id="p"/><path d="M598-1118v154H368v674c0 100 37 144 132 144 23 0 62-6 92-12L629-6c-37 13-88 20-134 20-193 0-307-107-307-290v-688H20v-154h168v-266h180v266h230" id="q"/><path d="M471 26C259 26 90-98 90-318c0-256 228-303 435-329 202-27 287-16 287-108 0-139-79-219-234-219-161 0-248 86-283 164l-173-57c86-203 278-265 451-265 150 0 419 46 419 395V0H815v-152h-12C765-73 660 26 471 26zm31-159c199 0 310-134 310-271v-155c-30 35-226 55-295 64-131 17-246 59-246 186 0 116 97 176 231 176" id="r"/><path d="M158 0v-1118h180V0H158zm91-1301c-68 0-125-53-125-119s57-119 125-119c69 0 126 53 126 119s-57 119-126 119" id="s"/><path d="M613 24c-304 0-509-231-509-576 0-350 205-580 509-580 305 0 511 230 511 580 0 345-206 576-511 576zm0-161c226 0 329-195 329-415 0-222-103-419-329-419-223 0-326 196-326 419 0 220 103 415 326 415" id="t"/><path d="M338-670V0H158v-1118h173l1 207c72-158 192-221 342-221 226 0 378 139 378 422V0H872v-695c0-172-96-275-252-275-161 0-282 109-282 300" id="u"/><path d="M180 0v-1490h908v168H370v486h669v168H370v500h727V0H180" id="v"/><path d="M481 0L54-1118h197c107 314 236 620 325 951 87-331 217-637 324-951h197L670 0H481" id="w"/><path d="M158 0v-1118h174v172h12c41-113 157-188 290-188 26 0 70 2 91 3v181c-11-2-60-10-108-10-161 0-279 109-279 260V0H158" id="x"/><path d="M158 0v-1118h175l1 205c55-151 181-225 313-225 147 0 245 90 285 228 53-141 190-228 352-228 194 0 352 125 352 384V0h-181v-749c0-161-105-225-225-225-151 0-243 103-243 244V0H807v-767c0-124-93-207-219-207-131 0-250 92-250 270V0H158" id="y"/><path d="M628 24c-324 0-524-230-524-574 0-343 198-582 503-582 237 0 487 146 487 559v75H286c9 234 145 362 343 362 132 0 231-58 273-172l174 48C1024-91 857 24 628 24zM287-650h624c-17-190-120-322-304-322-192 0-309 151-320 322" id="z"/><path d="M338-1490V0H158v-1490h180" id="A"/><g id="a"><use transform="matrix(0.010850694444444444,0,0,0.010850694444444444,0,0)" xlink:href="#p"/><use transform="matrix(0.010850694444444444,0,0,0.010850694444444444,14.2578125,0)" xlink:href="#q"/><use transform="matrix(0.010850694444444444,0,0,0.010850694444444444,21.63628472222222,0)" xlink:href="#r"/><use transform="matrix(0.010850694444444444,0,0,0.010850694444444444,34.11458333333333,0)" xlink:href="#q"/><use transform="matrix(0.010850694444444444,0,0,0.010850694444444444,41.38454861111111,0)" xlink:href="#s"/><use transform="matrix(0.010850694444444444,0,0,0.010850694444444444,46.76649305555556,0)" xlink:href="#t"/><use transform="matrix(0.010850694444444444,0,0,0.010850694444444444,60.09114583333333,0)" xlink:href="#u"/><use transform="matrix(0.010850694444444444,0,0,0.010850694444444444,73.2204861111111,0)" xlink:href="#v"/><use transform="matrix(0.010850694444444444,0,0,0.010850694444444444,86.57769097222221,0)" xlink:href="#u"/><use transform="matrix(0.010850694444444444,0,0,0.010850694444444444,99.38151041666666,0)" xlink:href="#w"/><use transform="matrix(0.010850694444444444,0,0,0.010850694444444444,111.87065972222221,0)" xlink:href="#s"/><use transform="matrix(0.010850694444444444,0,0,0.010850694444444444,117.25260416666666,0)" xlink:href="#x"/><use transform="matrix(0.010850694444444444,0,0,0.010850694444444444,125.24956597222221,0)" xlink:href="#t"/><use transform="matrix(0.010850694444444444,0,0,0.010850694444444444,138.57421875,0)" xlink:href="#u"/><use transform="matrix(0.010850694444444444,0,0,0.010850694444444444,151.70355902777777,0)" xlink:href="#y"/><use transform="matrix(0.010850694444444444,0,0,0.010850694444444444,171.16970486111111,0)" xlink:href="#z"/><use transform="matrix(0.010850694444444444,0,0,0.010850694444444444,184.12543402777777,0)" xlink:href="#u"/><use transform="matrix(0.010850694444444444,0,0,0.010850694444444444,197.25477430555554,0)" xlink:href="#q"/><use transform="matrix(0.010850694444444444,0,0,0.010850694444444444,204.52473958333331,0)" xlink:href="#v"/><use transform="matrix(0.010850694444444444,0,0,0.010850694444444444,217.88194444444443,0)" xlink:href="#A"/><use transform="matrix(0.010850694444444444,0,0,0.010850694444444444,223.26388888888889,0)" xlink:href="#z"/><use transform="matrix(0.010850694444444444,0,0,0.010850694444444444,236.21961805555554,0)" xlink:href="#y"/><use transform="matrix(0.010850694444444444,0,0,0.010850694444444444,255.68576388888889,0)" xlink:href="#z"/><use transform="matrix(0.010850694444444444,0,0,0.010850694444444444,268.64149305555554,0)" xlink:href="#u"/><use transform="matrix(0.010850694444444444,0,0,0.010850694444444444,281.7708333333333,0)" xlink:href="#q"/></g><path d="M180 0v-1490h510c348 0 508 194 508 460 0 198-88 351-276 417L1256 0h-220L726-579c-117 2-238 0-356 1V0H180zm190-747h312c235 0 327-108 327-283 0-177-92-293-329-293H370v576" id="B"/><path d="M537 14c-226 0-379-139-379-422v-710h180v695c0 172 97 275 253 275 160 0 281-109 281-300v-670h181V0H879v-209C806-46 684 14 537 14" id="C"/><g id="b"><use transform="matrix(0.010850694444444444,0,0,0.010850694444444444,0,0)" xlink:href="#B"/><use transform="matrix(0.010850694444444444,0,0,0.010850694444444444,13.975694444444445,0)" xlink:href="#t"/><use transform="matrix(0.010850694444444444,0,0,0.010850694444444444,27.30034722222222,0)" xlink:href="#C"/><use transform="matrix(0.010850694444444444,0,0,0.010850694444444444,40.44053819444444,0)" xlink:href="#q"/><use transform="matrix(0.010850694444444444,0,0,0.010850694444444444,47.49348958333333,0)" xlink:href="#z"/><use transform="matrix(0.010850694444444444,0,0,0.010850694444444444,60.44921875,0)" xlink:href="#v"/><use transform="matrix(0.010850694444444444,0,0,0.010850694444444444,73.80642361111111,0)" xlink:href="#u"/><use transform="matrix(0.010850694444444444,0,0,0.010850694444444444,86.61024305555556,0)" xlink:href="#w"/><use transform="matrix(0.010850694444444444,0,0,0.010850694444444444,99.09939236111111,0)" xlink:href="#s"/><use transform="matrix(0.010850694444444444,0,0,0.010850694444444444,104.48133680555556,0)" xlink:href="#x"/><use transform="matrix(0.010850694444444444,0,0,0.010850694444444444,112.4782986111111,0)" xlink:href="#t"/><use transform="matrix(0.010850694444444444,0,0,0.010850694444444444,125.80295138888889,0)" xlink:href="#u"/><use transform="matrix(0.010850694444444444,0,0,0.010850694444444444,138.93229166666666,0)" xlink:href="#y"/><use transform="matrix(0.010850694444444444,0,0,0.010850694444444444,158.3984375,0)" xlink:href="#z"/><use transform="matrix(0.010850694444444444,0,0,0.010850694444444444,171.35416666666666,0)" xlink:href="#u"/><use transform="matrix(0.010850694444444444,0,0,0.010850694444444444,184.48350694444443,0)" xlink:href="#q"/><use transform="matrix(0.010850694444444444,0,0,0.010850694444444444,191.75347222222223,0)" xlink:href="#v"/><use transform="matrix(0.010850694444444444,0,0,0.010850694444444444,205.11067708333331,0)" xlink:href="#A"/><use transform="matrix(0.010850694444444444,0,0,0.010850694444444444,210.49262152777777,0)" xlink:href="#z"/><use transform="matrix(0.010850694444444444,0,0,0.010850694444444444,223.44835069444443,0)" xlink:href="#y"/><use transform="matrix(0.010850694444444444,0,0,0.010850694444444444,242.91449652777777,0)" xlink:href="#z"/><use transform="matrix(0.010850694444444444,0,0,0.010850694444444444,255.87022569444443,0)" xlink:href="#u"/><use transform="matrix(0.010850694444444444,0,0,0.010850694444444444,268.99956597222223,0)" xlink:href="#q"/></g><g id="c"><use transform="matrix(0.010850694444444444,0,0,0.010850694444444444,0,0)" xlink:href="#v"/><use transform="matrix(0.010850694444444444,0,0,0.010850694444444444,13.35720486111111,0)" xlink:href="#u"/><use transform="matrix(0.010850694444444444,0,0,0.010850694444444444,26.161024305555554,0)" xlink:href="#w"/><use transform="matrix(0.010850694444444444,0,0,0.010850694444444444,38.65017361111111,0)" xlink:href="#s"/><use transform="matrix(0.010850694444444444,0,0,0.010850694444444444,44.03211805555555,0)" xlink:href="#x"/><use transform="matrix(0.010850694444444444,0,0,0.010850694444444444,52.0290798611111,0)" xlink:href="#t"/><use transform="matrix(0.010850694444444444,0,0,0.010850694444444444,65.35373263888887,0)" xlink:href="#u"/><use transform="matrix(0.010850694444444444,0,0,0.010850694444444444,78.48307291666664,0)" xlink:href="#y"/><use transform="matrix(0.010850694444444444,0,0,0.010850694444444444,97.94921874999997,0)" xlink:href="#z"/><use transform="matrix(0.010850694444444444,0,0,0.010850694444444444,110.90494791666664,0)" xlink:href="#u"/><use transform="matrix(0.010850694444444444,0,0,0.010850694444444444,124.03428819444441,0)" xlink:href="#q"/><use transform="matrix(0.010850694444444444,0,0,0.010850694444444444,131.3042534722222,0)" xlink:href="#v"/><use transform="matrix(0.010850694444444444,0,0,0.010850694444444444,144.66145833333331,0)" xlink:href="#A"/><use transform="matrix(0.010850694444444444,0,0,0.010850694444444444,150.04340277777777,0)" xlink:href="#z"/><use transform="matrix(0.010850694444444444,0,0,0.010850694444444444,162.99913194444443,0)" xlink:href="#y"/><use transform="matrix(0.010850694444444444,0,0,0.010850694444444444,182.46527777777777,0)" xlink:href="#z"/><use transform="matrix(0.010850694444444444,0,0,0.010850694444444444,195.42100694444443,0)" xlink:href="#u"/><use transform="matrix(0.010850694444444444,0,0,0.010850694444444444,208.55034722222223,0)" xlink:href="#q"/></g><path d="M98-1322v-168h1126v168H757V0H567v-1322H98" id="D"/><path d="M52 0l541-1490h220L1361 0h-200l-149-416H398L254 0H52zm404-582h497c-103-290-145-390-251-756-108 377-145 460-246 756" id="E"/><path d="M611 442c-248 0-391-105-460-228l146-94c47 65 117 165 314 165 178 0 307-82 307-266v-224h-17C863-141 792-18 576-18c-268 0-472-195-472-546 0-346 197-568 476-568 216 0 288 133 326 193h17v-179h175V29c0 289-215 413-487 413zm-5-620c203 0 314-146 314-390 0-237-108-403-314-403-213 0-319 180-319 403 0 230 109 390 319 390" id="F"/><path d="M458 0L52-1490h194c108 439 233 855 324 1313 92-459 221-873 331-1313h216c110 438 234 854 330 1307 92-455 216-869 323-1307h196L1558 0h-221l-256-944c-26-95-50-200-73-331-22 122-44 223-73 331L680 0H458" id="G"/><path d="M158 418v-1536h174v179h20c37-59 106-193 324-193 279 0 474 222 474 576 0 356-194 580-473 580-213 0-288-135-325-197h-14v591H158zm492-555c209 0 317-186 317-421 0-232-105-413-317-413-206 0-314 166-314 413 0 249 111 421 314 421" id="H"/><g id="d"><use transform="matrix(0.010850694444444444,0,0,0.010850694444444444,0,0)" xlink:href="#D"/><use transform="matrix(0.010850694444444444,0,0,0.010850694444444444,13.0859375,0)" xlink:href="#x"/><use transform="matrix(0.010850694444444444,0,0,0.010850694444444444,21.451822916666664,0)" xlink:href="#r"/><use transform="matrix(0.010850694444444444,0,0,0.010850694444444444,33.93012152777777,0)" xlink:href="#s"/><use transform="matrix(0.010850694444444444,0,0,0.010850694444444444,39.312065972222214,0)" xlink:href="#u"/><use transform="matrix(0.010850694444444444,0,0,0.010850694444444444,52.441406249999986,0)" xlink:href="#E"/><use transform="matrix(0.010850694444444444,0,0,0.010850694444444444,67.7734375,0)" xlink:href="#F"/><use transform="matrix(0.010850694444444444,0,0,0.010850694444444444,81.40190972222223,0)" xlink:href="#z"/><use transform="matrix(0.010850694444444444,0,0,0.010850694444444444,94.3576388888889,0)" xlink:href="#u"/><use transform="matrix(0.010850694444444444,0,0,0.010850694444444444,107.48697916666666,0)" xlink:href="#q"/><use transform="matrix(0.010850694444444444,0,0,0.010850694444444444,114.75694444444444,0)" xlink:href="#v"/><use transform="matrix(0.010850694444444444,0,0,0.010850694444444444,128.11414930555554,0)" xlink:href="#v"/><use transform="matrix(0.010850694444444444,0,0,0.010850694444444444,141.47135416666666,0)" xlink:href="#G"/><use transform="matrix(0.010850694444444444,0,0,0.010850694444444444,162.61935763888889,0)" xlink:href="#x"/><use transform="matrix(0.010850694444444444,0,0,0.010850694444444444,170.98524305555554,0)" xlink:href="#r"/><use transform="matrix(0.010850694444444444,0,0,0.010850694444444444,183.46354166666666,0)" xlink:href="#H"/><use transform="matrix(0.010850694444444444,0,0,0.010850694444444444,197.0703125,0)" xlink:href="#H"/><use transform="matrix(0.010850694444444444,0,0,0.010850694444444444,210.67708333333331,0)" xlink:href="#z"/><use transform="matrix(0.010850694444444444,0,0,0.010850694444444444,223.6328125,0)" xlink:href="#x"/></g><path d="M538 24C308 24 148-78 108-271l171-41c32 123 123 178 257 178 156 0 256-77 256-169 0-77-54-128-164-154l-186-44c-203-48-300-148-300-305 0-192 176-326 414-326 230 0 351 112 402 269l-163 42c-31-80-94-158-238-158-133 0-233 69-233 162 0 83 57 129 188 160l169 40c203 48 298 149 298 302 0 196-179 339-441 339" id="I"/><path d="M783 20c-382 0-661-292-661-764 0-473 279-766 661-766 302 0 548 182 601 489h-190c-42-204-217-313-411-313-268 0-476 208-476 590 0 381 209 588 476 588 195 0 369-110 411-313h190c-52 303-296 489-601 489" id="J"/><g id="e"><use transform="matrix(0.010850694444444444,0,0,0.010850694444444444,0,0)" xlink:href="#D"/><use transform="matrix(0.010850694444444444,0,0,0.010850694444444444,13.0859375,0)" xlink:href="#x"/><use transform="matrix(0.010850694444444444,0,0,0.010850694444444444,21.451822916666664,0)" xlink:href="#r"/><use transform="matrix(0.010850694444444444,0,0,0.010850694444444444,33.93012152777777,0)" xlink:href="#s"/><use transform="matrix(0.010850694444444444,0,0,0.010850694444444444,39.312065972222214,0)" xlink:href="#u"/><use transform="matrix(0.010850694444444444,0,0,0.010850694444444444,52.441406249999986,0)" xlink:href="#E"/><use transform="matrix(0.010850694444444444,0,0,0.010850694444444444,67.7734375,0)" xlink:href="#F"/><use transform="matrix(0.010850694444444444,0,0,0.010850694444444444,81.40190972222223,0)" xlink:href="#z"/><use transform="matrix(0.010850694444444444,0,0,0.010850694444444444,94.3576388888889,0)" xlink:href="#u"/><use transform="matrix(0.010850694444444444,0,0,0.010850694444444444,107.48697916666666,0)" xlink:href="#q"/><use transform="matrix(0.010850694444444444,0,0,0.010850694444444444,114.53993055555556,0)" xlink:href="#I"/><use transform="matrix(0.010850694444444444,0,0,0.010850694444444444,126.26953125,0)" xlink:href="#J"/><use transform="matrix(0.010850694444444444,0,0,0.010850694444444444,142.50217013888889,0)" xlink:href="#t"/><use transform="matrix(0.010850694444444444,0,0,0.010850694444444444,155.82682291666666,0)" xlink:href="#u"/><use transform="matrix(0.010850694444444444,0,0,0.010850694444444444,168.95616319444443,0)" xlink:href="#q"/><use transform="matrix(0.010850694444444444,0,0,0.010850694444444444,176.33463541666666,0)" xlink:href="#r"/><use transform="matrix(0.010850694444444444,0,0,0.010850694444444444,188.81293402777777,0)" xlink:href="#s"/><use transform="matrix(0.010850694444444444,0,0,0.010850694444444444,194.19487847222223,0)" xlink:href="#u"/><use transform="matrix(0.010850694444444444,0,0,0.010850694444444444,207.32421875,0)" xlink:href="#z"/><use transform="matrix(0.010850694444444444,0,0,0.010850694444444444,220.27994791666666,0)" xlink:href="#x"/></g><path d="M180 0v-1490h510c348 0 508 209 508 474 0 266-160 477-507 477H370V0H180zm190-706h312c236 0 327-133 327-310 0-176-91-307-329-307H370v617" id="K"/><path d="M678-1118v154H420V0H240v-964H20v-154h220v-149c0-194 155-293 318-293 85 0 141 18 168 30l-50 154c-19-6-47-17-97-17-111 0-159 58-159 166v109h258" id="L"/><g id="f"><use transform="matrix(0.010850694444444444,0,0,0.010850694444444444,0,0)" xlink:href="#K"/><use transform="matrix(0.010850694444444444,0,0,0.010850694444444444,14.192708333333332,0)" xlink:href="#A"/><use transform="matrix(0.010850694444444444,0,0,0.010850694444444444,19.57465277777778,0)" xlink:href="#r"/><use transform="matrix(0.010850694444444444,0,0,0.010850694444444444,32.052951388888886,0)" xlink:href="#q"/><use transform="matrix(0.010850694444444444,0,0,0.010850694444444444,38.78038194444444,0)" xlink:href="#L"/><use transform="matrix(0.010850694444444444,0,0,0.010850694444444444,46.35416666666667,0)" xlink:href="#t"/><use transform="matrix(0.010850694444444444,0,0,0.010850694444444444,59.67881944444445,0)" xlink:href="#x"/><use transform="matrix(0.010850694444444444,0,0,0.010850694444444444,68.39192708333334,0)" xlink:href="#y"/></g><path d="M613 24c-304 0-509-231-509-576 0-350 205-580 509-580 216 0 392 114 453 309l-173 49c-33-115-133-197-280-197-223 0-326 196-326 419 0 220 103 415 326 415 150 0 252-85 285-206l172 49C1010-95 832 24 613 24" id="M"/><path d="M158 0v-1490h180v865h22l478-493h223L593-638 1096 0H865L456-523 338-412V0H158" id="N"/><g id="g"><use transform="matrix(0.010850694444444444,0,0,0.010850694444444444,0,0)" xlink:href="#D"/><use transform="matrix(0.010850694444444444,0,0,0.010850694444444444,13.0859375,0)" xlink:href="#x"/><use transform="matrix(0.010850694444444444,0,0,0.010850694444444444,21.451822916666664,0)" xlink:href="#r"/><use transform="matrix(0.010850694444444444,0,0,0.010850694444444444,33.93012152777777,0)" xlink:href="#M"/><use transform="matrix(0.010850694444444444,0,0,0.010850694444444444,46.62543402777778,0)" xlink:href="#N"/></g><path fill="#333" d="M750 21c-371 0-615-218-615-544v-967h305v942c0 174 123 299 310 299s309-125 309-299v-942h306v967c0 326-247 544-615 544" id="O"/><path fill="#333" d="M572 22C302 22 117-98 78-306l279-48c29 105 101 156 224 156 114 0 185-48 185-115 0-118-228-130-337-155-215-49-322-150-322-317 0-215 187-347 470-347 265 0 424 116 466 298l-266 47c-24-76-87-130-196-130-98 0-174 46-174 113 0 56 38 95 144 117l201 40c216 44 320 143 320 302 0 220-207 367-500 367" id="P"/><path fill="#333" d="M633 22C291 22 81-200 81-553c0-345 210-579 537-579 292 0 525 185 525 567v84H378c7 183 109 277 260 277 105 0 184-46 216-132l272 51C1071-99 893 22 633 22zM380-669h474c-15-146-94-237-233-237-143 0-229 99-241 237" id="Q"/><g id="h"><use transform="matrix(0.008680555555555556,0,0,0.008680555555555556,0,0)" xlink:href="#O"/><use transform="matrix(0.008680555555555556,0,0,0.008680555555555556,13.012152777777779,0)" xlink:href="#P"/><use transform="matrix(0.008680555555555556,0,0,0.008680555555555556,22.96875,0)" xlink:href="#Q"/></g><path d="M645 0H180v-1490h484c435 0 692 280 692 742 0 466-257 748-711 748zM370-168h263c363 0 539-218 539-580 0-358-176-574-521-574H370v1154" id="R"/><path d="M140 405l46-156c120 36 205 19 263-150l32-93L54-1118h197c107 313 237 620 324 950 87-331 219-637 326-950h196L606 167c-68 178-176 259-334 259-64 0-113-12-132-21" id="S"/><path d="M677 24c-213 0-288-135-325-197h-20V0H158v-1490h180v551h14c37-59 106-193 324-193 279 0 474 222 474 576 0 356-194 580-473 580zm-27-161c209 0 317-186 317-421 0-232-105-413-317-413-206 0-314 166-314 413 0 249 111 421 314 421" id="T"/><g id="i"><use transform="matrix(0.010850694444444444,0,0,0.010850694444444444,0,0)" xlink:href="#R"/><use transform="matrix(0.010850694444444444,0,0,0.010850694444444444,16.03732638888889,0)" xlink:href="#S"/><use transform="matrix(0.010850694444444444,0,0,0.010850694444444444,28.526475694444443,0)" xlink:href="#u"/><use transform="matrix(0.010850694444444444,0,0,0.010850694444444444,41.65581597222222,0)" xlink:href="#r"/><use transform="matrix(0.010850694444444444,0,0,0.010850694444444444,54.13411458333333,0)" xlink:href="#y"/><use transform="matrix(0.010850694444444444,0,0,0.010850694444444444,73.60026041666666,0)" xlink:href="#s"/><use transform="matrix(0.010850694444444444,0,0,0.010850694444444444,78.9822048611111,0)" xlink:href="#M"/><use transform="matrix(0.010850694444444444,0,0,0.010850694444444444,89.94140624999997,0)" xlink:href="#D"/><use transform="matrix(0.010850694444444444,0,0,0.010850694444444444,104.28602430555556,0)" xlink:href="#s"/><use transform="matrix(0.010850694444444444,0,0,0.010850694444444444,109.66796874999997,0)" xlink:href="#y"/><use transform="matrix(0.010850694444444444,0,0,0.010850694444444444,129.13411458333331,0)" xlink:href="#z"/><use transform="matrix(0.010850694444444444,0,0,0.010850694444444444,142.08984374999997,0)" xlink:href="#q"/><use transform="matrix(0.010850694444444444,0,0,0.010850694444444444,149.4683159722222,0)" xlink:href="#r"/><use transform="matrix(0.010850694444444444,0,0,0.010850694444444444,161.94661458333331,0)" xlink:href="#T"/><use transform="matrix(0.010850694444444444,0,0,0.010850694444444444,175.55338541666666,0)" xlink:href="#A"/><use transform="matrix(0.010850694444444444,0,0,0.010850694444444444,180.93532986111111,0)" xlink:href="#z"/></g><g id="j"><use transform="matrix(0.010850694444444444,0,0,0.010850694444444444,0,0)" xlink:href="#p"/><use transform="matrix(0.010850694444444444,0,0,0.010850694444444444,14.2578125,0)" xlink:href="#q"/><use transform="matrix(0.010850694444444444,0,0,0.010850694444444444,21.63628472222222,0)" xlink:href="#r"/><use transform="matrix(0.010850694444444444,0,0,0.010850694444444444,34.11458333333333,0)" xlink:href="#q"/><use transform="matrix(0.010850694444444444,0,0,0.010850694444444444,41.38454861111111,0)" xlink:href="#s"/><use transform="matrix(0.010850694444444444,0,0,0.010850694444444444,46.76649305555556,0)" xlink:href="#t"/><use transform="matrix(0.010850694444444444,0,0,0.010850694444444444,60.09114583333333,0)" xlink:href="#u"/></g><g id="k"><use transform="matrix(0.010850694444444444,0,0,0.010850694444444444,0,0)" xlink:href="#B"/><use transform="matrix(0.010850694444444444,0,0,0.010850694444444444,13.975694444444445,0)" xlink:href="#t"/><use transform="matrix(0.010850694444444444,0,0,0.010850694444444444,27.30034722222222,0)" xlink:href="#C"/><use transform="matrix(0.010850694444444444,0,0,0.010850694444444444,40.44053819444444,0)" xlink:href="#q"/><use transform="matrix(0.010850694444444444,0,0,0.010850694444444444,47.49348958333333,0)" xlink:href="#z"/></g><g id="l"><use transform="matrix(0.010850694444444444,0,0,0.010850694444444444,0,0)" xlink:href="#D"/><use transform="matrix(0.010850694444444444,0,0,0.010850694444444444,14.344618055555555,0)" xlink:href="#s"/><use transform="matrix(0.010850694444444444,0,0,0.010850694444444444,19.7265625,0)" xlink:href="#y"/><use transform="matrix(0.010850694444444444,0,0,0.010850694444444444,39.19270833333333,0)" xlink:href="#z"/><use transform="matrix(0.010850694444444444,0,0,0.010850694444444444,52.148437499999986,0)" xlink:href="#q"/><use transform="matrix(0.010850694444444444,0,0,0.010850694444444444,59.52690972222221,0)" xlink:href="#r"/><use transform="matrix(0.010850694444444444,0,0,0.010850694444444444,72.00520833333333,0)" xlink:href="#T"/><use transform="matrix(0.010850694444444444,0,0,0.010850694444444444,85.61197916666666,0)" xlink:href="#A"/><use transform="matrix(0.010850694444444444,0,0,0.010850694444444444,90.99392361111111,0)" xlink:href="#z"/></g><g id="m"><use transform="matrix(0.010850694444444444,0,0,0.010850694444444444,0,0)" xlink:href="#p"/><use transform="matrix(0.010850694444444444,0,0,0.010850694444444444,14.2578125,0)" xlink:href="#s"/><use transform="matrix(0.010850694444444444,0,0,0.010850694444444444,19.639756944444443,0)" xlink:href="#y"/><use transform="matrix(0.010850694444444444,0,0,0.010850694444444444,39.10590277777777,0)" xlink:href="#C"/><use transform="matrix(0.010850694444444444,0,0,0.010850694444444444,52.246093749999986,0)" xlink:href="#A"/><use transform="matrix(0.010850694444444444,0,0,0.010850694444444444,57.628038194444436,0)" xlink:href="#r"/><use transform="matrix(0.010850694444444444,0,0,0.010850694444444444,70.10633680555554,0)" xlink:href="#q"/><use transform="matrix(0.010850694444444444,0,0,0.010850694444444444,77.37630208333331,0)" xlink:href="#s"/><use transform="matrix(0.010850694444444444,0,0,0.010850694444444444,82.75824652777776,0)" xlink:href="#t"/><use transform="matrix(0.010850694444444444,0,0,0.010850694444444444,96.08289930555553,0)" xlink:href="#u"/><use transform="matrix(0.010850694444444444,0,0,0.010850694444444444,109.21223958333331,0)" xlink:href="#E"/><use transform="matrix(0.010850694444444444,0,0,0.010850694444444444,124.54427083333331,0)" xlink:href="#F"/><use transform="matrix(0.010850694444444444,0,0,0.010850694444444444,138.17274305555551,0)" xlink:href="#z"/><use transform="matrix(0.010850694444444444,0,0,0.010850694444444444,151.12847222222217,0)" xlink:href="#u"/><use transform="matrix(0.010850694444444444,0,0,0.010850694444444444,164.25781249999994,0)" xlink:href="#q"/></g><g id="n"><use transform="matrix(0.010850694444444444,0,0,0.010850694444444444,0,0)" xlink:href="#D"/><use transform="matrix(0.010850694444444444,0,0,0.010850694444444444,13.0859375,0)" xlink:href="#x"/><use transform="matrix(0.010850694444444444,0,0,0.010850694444444444,21.451822916666664,0)" xlink:href="#r"/><use transform="matrix(0.010850694444444444,0,0,0.010850694444444444,33.93012152777777,0)" xlink:href="#s"/><use transform="matrix(0.010850694444444444,0,0,0.010850694444444444,39.312065972222214,0)" xlink:href="#u"/><use transform="matrix(0.010850694444444444,0,0,0.010850694444444444,52.441406249999986,0)" xlink:href="#E"/><use transform="matrix(0.010850694444444444,0,0,0.010850694444444444,67.7734375,0)" xlink:href="#F"/><use transform="matrix(0.010850694444444444,0,0,0.010850694444444444,81.40190972222223,0)" xlink:href="#z"/><use transform="matrix(0.010850694444444444,0,0,0.010850694444444444,94.3576388888889,0)" xlink:href="#u"/><use transform="matrix(0.010850694444444444,0,0,0.010850694444444444,107.48697916666666,0)" xlink:href="#q"/></g><g id="o"><use transform="matrix(0.010850694444444444,0,0,0.010850694444444444,0,0)" xlink:href="#D"/><use transform="matrix(0.010850694444444444,0,0,0.010850694444444444,13.0859375,0)" xlink:href="#x"/><use transform="matrix(0.010850694444444444,0,0,0.010850694444444444,21.451822916666664,0)" xlink:href="#r"/><use transform="matrix(0.010850694444444444,0,0,0.010850694444444444,33.93012152777777,0)" xlink:href="#s"/><use transform="matrix(0.010850694444444444,0,0,0.010850694444444444,39.312065972222214,0)" xlink:href="#u"/></g></defs></g></svg>