<svg xmlns="http://www.w3.org/2000/svg" xmlns:xlink="http://www.w3.org/1999/xlink" xmlns:lucid="lucid" width="2000.99" height="654.67"><g transform="translate(-39 -219)" lucid:page-tab-id="8ZQZ73fJQtMR"><path d="M40 546a6 6 0 0 1 6-6h348a6 6 0 0 1 6 6v60.67a6 6 0 0 1-6 6H46a6 6 0 0 1-6-6z" stroke="#3a414a" stroke-width="2" fill="#cfe4ff"/><use xlink:href="#a" transform="matrix(1,0,0,1,52,552) translate(23.479600694444457 33.77777777777778)"/><path d="M460 546a6 6 0 0 1 6-6h348a6 6 0 0 1 6 6v60.67a6 6 0 0 1-6 6H466a6 6 0 0 1-6-6z" stroke="#3a414a" stroke-width="2" fill="#cfe4ff"/><use xlink:href="#b" transform="matrix(1,0,0,1,472,552) translate(29.865234375 33.77777777777778)"/><path d="M440 226a6 6 0 0 1 6-6h348a6 6 0 0 1 6 6v60.67a6 6 0 0 1-6 6H446a6 6 0 0 1-6-6z" stroke="#3a414a" stroke-width="2" fill="#cfe4ff"/><use xlink:href="#c" transform="matrix(1,0,0,1,452,232) translate(52.00065104166667 33.77777777777778)"/><path d="M639.98 538l-.72-37-1.68-27.06-2.46-23.45-12.7-91.77-1.68-27.06-.43-22.02" stroke="#3a414a" stroke-width="2" stroke-linejoin="round" fill="none"/><path d="M640.98 539H639v-1l1.94-.05z" stroke="#3a414a" stroke-width=".05" fill="#3a414a"/><path d="M620.04 295.67l7.75 12.84-15 .3z" stroke="#3a414a" stroke-width="2" fill="#3a414a"/><path d="M802 256.33h397.5" stroke="#3a414a" stroke-width="2" stroke-linejoin="round" fill="none"/><path d="M802.03 257.3H801v-1.94h1.03z" stroke="#3a414a" stroke-width=".05" fill="#3a414a"/><path d="M1214.76 256.33l-14.27 4.64v-9.27z" stroke="#3a414a" stroke-width="2" fill="#3a414a"/><path d="M1679 226a6 6 0 0 1 6-6h348a6 6 0 0 1 6 6v60.67a6 6 0 0 1-6 6h-348a6 6 0 0 1-6-6z" stroke="#3a414a" stroke-width="2" fill="#cfe4ff"/><use xlink:href="#d" transform="matrix(1,0,0,1,1690.991080088198,232) translate(71.05447048611111 33.77777777777778)"/><path d="M1677 256.33h-81.02" stroke="#3a414a" stroke-width="2" stroke-linejoin="round" fill="none"/><path d="M1678 257.3h-1.04v-1.94h1.03z" stroke="#3a414a" stroke-width=".05" fill="#3a414a"/><path d="M1582 256.33l12.98-7.5v15z" stroke="#3a414a" stroke-width="2" fill="#3a414a"/><path d="M900 546a6 6 0 0 1 6-6h288a6 6 0 0 1 6 6v60.67a6 6 0 0 1-6 6H906a6 6 0 0 1-6-6z" stroke="#3a414a" stroke-width="2" fill="#cfe4ff"/><use xlink:href="#e" transform="matrix(1,0,0,1,912,552) translate(14.969401041666686 33.77777777777778)"/><path d="M460 806a6 6 0 0 1 6-6h348a6 6 0 0 1 6 6v60.67a6 6 0 0 1-6 6H466a6 6 0 0 1-6-6z" stroke="#3a414a" stroke-width="2" fill="#cfe4ff"/><use xlink:href="#f" transform="matrix(1,0,0,1,472,812) translate(72.1232638888889 33.77777777777778)"/><path d="M1679 546a6 6 0 0 1 6-6h348a6 6 0 0 1 6 6v60.67a6 6 0 0 1-6 6h-348a6 6 0 0 1-6-6z" stroke="#3a414a" stroke-width="2" fill="#cfe4ff"/><use xlink:href="#g" transform="matrix(1,0,0,1,1690.991080088198,552) translate(5.402343750000028 33.77777777777778)"/><path d="M1399 294.67v213.58" stroke="#3a414a" stroke-width="2" stroke-linejoin="round" fill="none"/><path d="M1399.97 294.7h-1.95v-1.03h1.95z" stroke="#3a414a" stroke-width=".05" fill="#3a414a"/><path d="M1399 537.6l14.84-14.86L1399 507.9l-14.86 14.84z" stroke="#3a414a" stroke-width="2" fill="#fff"/><path d="M1050.96 538h-1.94l-.03-1.97 1.94-.02zm-.2-9.92l-1.96.1-.17-3.96 1.95-.08zm-.56-11.88l-1.94.16-.33-3.93 1.94-.16zm-1.1-13.06l.1 1.25-1.93.15-.1-1.2-.34-2.68 1.93-.25zm-1.76-14l.43 3.44-1.93.25-.43-3.4-.07-.48 1.92-.32zm-1.4-8.3l-1.93.32-.65-3.9 1.92-.32zm-2.26-11.7l-1.9.42-.82-3.87 1.9-.4zm-2.66-11.58l-1.88.5-1-3.84 1.9-.5zm-3.08-11.5l-1.86.58-1.14-3.78 1.86-.57zm-3.5-11.35l-1.84.65-1.3-3.73 1.84-.64zm-3.93-11.22l-1.8.72-1.46-3.68 1.82-.7zm-15.05-33.85l.63 1.28-1.75.88-.6-1.24-1.23-2.22 1.7-.94zm-5.8-10.52l.75 1.36-1.7.94-.72-1.3-1.26-2.08 1.67-1zm-6.07-10.04l.72 1.2-1.67 1-.7-1.15-1.42-2.13 1.64-1.08zm-6.36-9.57l.54.8-1.62 1.1-.52-.8-1.75-2.4 1.58-1.14zm-6.6-9.1l.2.26-1.6 1.15-.16-.23-2.25-2.83 1.54-1.22zm-7.23-9.08l-1.5 1.27-2.57-3 1.48-1.28zm-7.84-8.96l-1.42 1.33-2.7-2.9 1.42-1.32zm-8.23-8.6l-1.36 1.4-2.83-2.76 1.37-1.4zm-8.63-8.17l-1.3 1.44-2.94-2.65 1.3-1.46zm-11.96-10.22l2.95 2.44-1.25 1.5-2.92-2.4-.1-.08 1.18-1.55zm-7.88-5.98l1.46 1.1-1.18 1.56-1.43-1.1-1.73-1.2 1.12-1.6zm-8.3-5.76l-1.05 1.65-3.33-2.13 1.05-1.65zm-10.1-6.28l-.98 1.7-3.42-2 .98-1.68zm-10.4-5.77l-.9 1.72-3.5-1.83.9-1.74zm-12.78-6.24l2.1 1-.83 1.75-2.06-.96-1.5-.63.74-1.8zm-8.86-3.72l-.68 1.82-3.7-1.37.67-1.84zm-11.2-4.05l-.6 1.84-3.75-1.22.6-1.85zm-11.36-3.5l-.52 1.88-3.8-1.06.5-1.88zm-14.06-3.5l2.53.6-.45 1.9-2.48-.6-1.33-.24.36-1.92zm-9.66-1.84l.53.1-.37 1.92-.5-.1-3.36-.5.28-1.92zm-11.28-1.6l-.2 1.93-3.94-.42.2-1.94zM819 256.03l-.1 1.95-1.98-.14.12-1.94z" stroke="#3a414a" stroke-width=".05" fill="#3a414a"/><path d="M815.73 264.35L803 256.4l13.25-7.04z" fill="#3a414a"/><path d="M816.64 266.07l-15.6-9.74 16.24-8.62zm-11.7-9.6l9.87 6.16.4-11.62z" stroke="#3a414a" stroke-width=".05" fill="#3a414a"/><path d="M1050.97 539h-1.94l-.02-1 1.96-.04z" fill="#3a414a"/><path stroke="#3a414a" stroke-width=".05" fill="#3a414a"/><use xlink:href="#h" transform="matrix(1,0,0,1,1004.4613989009199,393.02916929502345) translate(0 17.22222222222222)"/><path d="M40 806a6 6 0 0 1 6-6h348a6 6 0 0 1 6 6v60.67a6 6 0 0 1-6 6H46a6 6 0 0 1-6-6z" stroke="#3a414a" stroke-width="2" fill="#cfe4ff"/><use xlink:href="#i" transform="matrix(1,0,0,1,52.00000000000003,812) translate(69.37261284722223 33.77777777777778)"/><path d="M1299 546a6 6 0 0 1 6-6h188a6 6 0 0 1 6 6v60.67a6 6 0 0 1-6 6h-188a6 6 0 0 1-6-6z" stroke="#3a414a" stroke-width="2" fill="#cfe4ff"/><use xlink:href="#j" transform="matrix(1,0,0,1,1310.991080088198,552) translate(22.3478732638889 33.77777777777778)"/><path d="M1219 226a6 6 0 0 1 6-6h348a6 6 0 0 1 6 6v60.67a6 6 0 0 1-6 6h-348a6 6 0 0 1-6-6z" stroke="#3a414a" stroke-width="2" fill="#cfe4ff"/><use xlink:href="#k" transform="matrix(1,0,0,1,1230.991080088198,232) translate(60.089843750000014 33.77777777777778)"/><path d="M1202 576.33h77.5" stroke="#3a414a" stroke-width="2" fill="none"/><path d="M1202.03 577.3H1201v-1.94h1.03z" stroke="#3a414a" stroke-width=".05" fill="#3a414a"/><path d="M1294.76 576.33l-14.27 4.64v-9.27z" stroke="#3a414a" stroke-width="2" fill="#3a414a"/><path d="M1677 576.33h-158.5" stroke="#3a414a" stroke-width="2" fill="none"/><path d="M1678 577.3h-1.04v-1.94h1.03z" stroke="#3a414a" stroke-width=".05" fill="#3a414a"/><path d="M1503.23 576.33l14.26-4.63v9.27z" stroke="#3a414a" stroke-width="2" fill="#3a414a"/><path d="M1859.97 538h-1.95v-2.03h1.95zm0-10.14h-1.95v-4.05h1.95zm0-12.17h-1.95v-4.06h1.95zm0-12.17h-1.95v-4.06h1.95zm0-12.17h-1.95v-4.05h1.95zm0-12.17h-1.95v-4.06h1.95zm0-12.17h-1.95v-4.06h1.95zm0-12.17h-1.95v-4.05h1.95zm0-12.17h-1.95v-4.06h1.95zm0-12.17h-1.95v-4.06h1.95zm0-12.17h-1.95v-4.05h1.95zm0-36.5h-1.95v-4.05h1.95zm0-12.17h-1.95v-4.06h1.95zm0-12.17h-1.95v-4.06h1.95zm0-12.17h-1.95v-4.05h1.95zm0-12.17h-1.95v-4.06h1.95zm0-12.17h-1.95v-4.06h1.95zm0-12.17h-1.95v-4.05h1.95zm0-12.17h-1.95v-2.03h1.95z" stroke="#3a414a" stroke-width=".05" fill="#3a414a"/><path d="M1859.97 294.7h-1.95v-1.03h1.95z" fill="#3a414a"/><path stroke="#3a414a" stroke-width=".05" fill="#3a414a"/><path d="M1859.97 539h-1.95v-1.03h1.95z" fill="#3a414a"/><path stroke="#3a414a" stroke-width=".05" fill="#3a414a"/><use xlink:href="#h" transform="matrix(1,0,0,1,1842.2115661993091,389.6932432706701) translate(0 17.22222222222222)"/><path d="M1046.84 629.42l-.06.12-.82 1.42-.93 1.46-1.05 1.5-1.2 1.58-1.34 1.63-1.54 1.7-1.77 1.82-2.04 1.9-2.36 2.04-2.76 2.17-3.25 2.36-3.87 2.57-4.68 2.82-5.73 3.15-7.18 3.56-9.2 4.08-12.23 4.84-17.1 5.93-26.3 7.88-137.58 32.8-54.8 13.85-26.2 7.86-17.03 5.9-12.14 4.8-9.14 4.05-7.1 3.52-5.67 3.1-4.62 2.8-3.8 2.52-3.18 2.3-2.7 2.14-2.3 1.98-1.97 1.86-1.7 1.74-1.5 1.65-1.3 1.58-1.13 1.5-1 1.45-.9 1.4-.77 1.34-.7 1.3-.6 1.3-.52 1.25-.45 1.25-.4 1.22-.34 1.2-.28 1.23-.23 1.2-.2 1.23-.12 1.23-.08 1.23v.3l-1.95-.05v-.33l.1-1.32.12-1.3.2-1.3.24-1.3.32-1.3.36-1.3.42-1.3.5-1.32.56-1.33.63-1.36.72-1.37.82-1.42.93-1.46 1.05-1.5 1.2-1.57 1.34-1.63 1.54-1.72 1.77-1.8 2.03-1.9 2.36-2.04 2.76-2.18 3.25-2.36 3.87-2.57 4.68-2.83 5.73-3.14 7.18-3.56 9.2-4.1 12.23-4.8 17.1-5.94 26.28-7.88 54.86-13.87 137.55-32.78 26.2-7.86 17.02-5.9 12.14-4.78 9.14-4.06 7.1-3.52 5.67-3.1 4.62-2.8 3.8-2.5 3.18-2.32 2.7-2.13 2.3-2 1.97-1.85 1.7-1.74 1.5-1.64 1.3-1.57 1.13-1.5 1-1.46.9-1.4.77-1.34.04-.08z" stroke="#3a414a" stroke-width=".05" fill="#3a414a"/><path d="M641 798l-.02 1H639l.03-1.05z" fill="#3a414a"/><path stroke="#3a414a" stroke-width=".05" fill="#3a414a"/><path d="M1053.44 630.07l-14.5-3.8 10.55-10.67z" fill="#3a414a"/><path d="M1054.83 631.44l-17.77-4.67 12.93-13.05zm-14-5.7l11.23 2.96-3.06-11.2zM640.98 798H639v-2H641zm0-10.02H639v-4H641zm0-12.02H639v-4H641zm0-12.03H639v-4H641zm0-12.02H639v-4H641zm0-36.07H639v-4H641zm0-12.02H639v-4H641zm0-12H639v-4.02H641zm0-12.04H639v-4H641zm0-12.02H639v-4H641zm0-12.03H639v-4H641zm0-12H639v-4.02H641zm0-12.04H639v-2H641z" stroke="#3a414a" stroke-width=".05" fill="#3a414a"/><path d="M647.5 628.66h-15l7.5-13z" fill="#3a414a"/><path d="M649.2 629.63h-18.4l9.2-15.9zm-15-1.95h11.6l-5.8-10.06z" stroke="#3a414a" stroke-width=".05" fill="#3a414a"/><path d="M640.98 799H639v-1.03H641z" fill="#3a414a"/><path stroke="#3a414a" stroke-width=".05" fill="#3a414a"/><use xlink:href="#h" transform="matrix(1,0,0,1,623.2204861111112,719.3386700066205) translate(0 17.22222222222222)"/><path d="M1043.9 628.36l-.25.26-1.22 1.15L1041 631l-1.68 1.33-2 1.46-2.43 1.6-2.95 1.77-3.65 2-4.58 2.28-5.9 2.6-7.77 3.08-10.56 3.66-14.98 4.5-22.4 5.7-36.53 7.7-511.3 65.64-69.55 11.56-36.42 7.67-22.33 5.7-14.9 4.46-10.48 3.64-7.7 3.03-5.8 2.6-4.52 2.22-3.57 1.96-2.88 1.74-2.35 1.56-1.94 1.4-1.62 1.3-1.37 1.17-1.16 1.1-.98 1-.85.95-.74.9-.64.83-.57.8-.48.76-.43.72-.37.7-.3.7-.3.65-.23.64-.2.65-.18.62-.15.6-.12.6-.1.62-.05.6-.02.26-1.94-.12.02-.32.07-.68.1-.68.14-.7.15-.68.2-.7.22-.7.27-.73.3-.74.37-.74.4-.78.48-.8.53-.83.6-.87.7-.9.8-.96.9-1 1.05-1.08 1.22-1.14 1.43-1.23 1.68-1.34 2-1.45 2.43-1.6 2.95-1.8 3.65-2 4.58-2.26 5.9-2.62 7.77-3.06 10.56-3.66 14.98-4.5 22.4-5.7 36.5-7.7 69.65-11.57 511.24-65.64 36.4-7.66 22.33-5.7 14.9-4.46 10.48-3.64 7.7-3.04 5.8-2.58 4.52-2.24 3.57-1.96 2.88-1.74 2.35-1.55 1.94-1.42 1.62-1.28 1.37-1.18 1.16-1.1.22-.23z" stroke="#3a414a" stroke-width=".05" fill="#3a414a"/><path d="M221 798l-.03 1h-1.94l.02-1.05z" fill="#3a414a"/><path stroke="#3a414a" stroke-width=".05" fill="#3a414a"/><path d="M1050.22 630.43l-13.5-6.54 12.4-8.43z" fill="#3a414a"/><path d="M1051.3 632.04l-16.53-8 15.2-10.33zm-12.64-8.3l10.46 5.07-.84-11.58zM220.97 798h-1.94v-2h1.94zm0-10.02h-1.94v-4h1.94zm0-12.02h-1.94v-4h1.94zm0-12.03h-1.94v-4h1.94zm0-12.02h-1.94v-4h1.94zm0-12.02h-1.94v-4h1.94zm0-12.02h-1.94v-4h1.94zm0-36.08h-1.94v-4h1.94zm0-12.02h-1.94v-4h1.94zm0-12.02h-1.94v-4h1.94zm0-12.03h-1.94v-4h1.94zm0-12h-1.94v-4.02h1.94zm0-12.04h-1.94v-2h1.94z" stroke="#3a414a" stroke-width=".05" fill="#3a414a"/><path d="M227.5 628.66h-15l7.5-13z" fill="#3a414a"/><path d="M229.2 629.63h-18.4l9.2-15.9zm-15-1.95h11.6l-5.8-10.06z" stroke="#3a414a" stroke-width=".05" fill="#3a414a"/><path d="M220.97 799h-1.94v-1.03h1.94z" fill="#3a414a"/><path stroke="#3a414a" stroke-width=".05" fill="#3a414a"/><use xlink:href="#h" transform="matrix(1,0,0,1,203.22048611111117,695.5795151535143) translate(0 17.22222222222222)"/><path d="M220.02 538l.03-1.34.14-2.28.23-2.25.32-2.2.42-2.2.5-2.18.62-2.17.7-2.17.8-2.17.93-2.2 1.05-2.23 1.2-2.27 1.32-2.3 1.5-2.38 1.7-2.44 1.92-2.5 2.17-2.63 2.45-2.73 2.82-2.88 3.23-3.03 3.74-3.23 4.37-3.45 5.15-3.74 6.15-4.06 7.45-4.5 9.23-5.07 11.76-5.83 15.64-6.94 22.43-8.84 39.6-13.67L510 386.9l22.42-8.83 15.64-6.94 11.76-5.83 9.23-5.06 7.45-4.5 6.15-4.1 5.14-3.72 4.36-3.46 3.74-3.22 3.23-3.04 2.82-2.87 2.46-2.74 2.18-2.63 1.92-2.52 1.7-2.44 1.5-2.36 1.33-2.3 1.2-2.27 1.04-2.23.92-2.2.8-2.18.66-2.03" stroke="#3a414a" stroke-width="2" stroke-linejoin="round" fill="none"/><path d="M221 538l-.03 1h-1.94l.02-1.05z" stroke="#3a414a" stroke-width=".05" fill="#3a414a"/><path d="M619.7 295.64l5.52 13.96-14.84-2.2z" stroke="#3a414a" stroke-width="2" fill="#3a414a"/><defs><path d="M657 26c-323 0-524-166-541-416h195c15 169 171 246 346 246 202 0 356-106 356-265 5-203-294-238-475-293-239-73-380-191-380-389 0-252 224-419 512-419 294 0 499 171 508 396H992c-17-145-151-228-328-228-193 0-321 102-321 242 0 156 175 211 284 241l149 41c160 44 422 134 422 412 0 244-197 432-541 432" id="l"/><path d="M598-1118v154H368v674c0 100 37 144 132 144 23 0 62-6 92-12L629-6c-37 13-88 20-134 20-193 0-307-107-307-290v-688H20v-154h168v-266h180v266h230" id="m"/><path d="M471 26C259 26 90-98 90-318c0-256 228-303 435-329 202-27 287-16 287-108 0-139-79-219-234-219-161 0-248 86-283 164l-173-57c86-203 278-265 451-265 150 0 419 46 419 395V0H815v-152h-12C765-73 660 26 471 26zm31-159c199 0 310-134 310-271v-155c-30 35-226 55-295 64-131 17-246 59-246 186 0 116 97 176 231 176" id="n"/><path d="M158 0v-1118h180V0H158zm91-1301c-68 0-125-53-125-119s57-119 125-119c69 0 126 53 126 119s-57 119-126 119" id="o"/><path d="M613 24c-304 0-509-231-509-576 0-350 205-580 509-580 305 0 511 230 511 580 0 345-206 576-511 576zm0-161c226 0 329-195 329-415 0-222-103-419-329-419-223 0-326 196-326 419 0 220 103 415 326 415" id="p"/><path d="M338-670V0H158v-1118h173l1 207c72-158 192-221 342-221 226 0 378 139 378 422V0H872v-695c0-172-96-275-252-275-161 0-282 109-282 300" id="q"/><path d="M180 0v-1490h908v168H370v486h669v168H370v500h727V0H180" id="r"/><path d="M481 0L54-1118h197c107 314 236 620 325 951 87-331 217-637 324-951h197L670 0H481" id="s"/><path d="M158 0v-1118h174v172h12c41-113 157-188 290-188 26 0 70 2 91 3v181c-11-2-60-10-108-10-161 0-279 109-279 260V0H158" id="t"/><path d="M158 0v-1118h175l1 205c55-151 181-225 313-225 147 0 245 90 285 228 53-141 190-228 352-228 194 0 352 125 352 384V0h-181v-749c0-161-105-225-225-225-151 0-243 103-243 244V0H807v-767c0-124-93-207-219-207-131 0-250 92-250 270V0H158" id="u"/><path d="M628 24c-324 0-524-230-524-574 0-343 198-582 503-582 237 0 487 146 487 559v75H286c9 234 145 362 343 362 132 0 231-58 273-172l174 48C1024-91 857 24 628 24zM287-650h624c-17-190-120-322-304-322-192 0-309 151-320 322" id="v"/><path d="M338-1490V0H158v-1490h180" id="w"/><g id="a"><use transform="matrix(0.010850694444444444,0,0,0.010850694444444444,0,0)" xlink:href="#l"/><use transform="matrix(0.010850694444444444,0,0,0.010850694444444444,14.2578125,0)" xlink:href="#m"/><use transform="matrix(0.010850694444444444,0,0,0.010850694444444444,21.63628472222222,0)" xlink:href="#n"/><use transform="matrix(0.010850694444444444,0,0,0.010850694444444444,34.11458333333333,0)" xlink:href="#m"/><use transform="matrix(0.010850694444444444,0,0,0.010850694444444444,41.38454861111111,0)" xlink:href="#o"/><use transform="matrix(0.010850694444444444,0,0,0.010850694444444444,46.76649305555556,0)" xlink:href="#p"/><use transform="matrix(0.010850694444444444,0,0,0.010850694444444444,60.09114583333333,0)" xlink:href="#q"/><use transform="matrix(0.010850694444444444,0,0,0.010850694444444444,73.2204861111111,0)" xlink:href="#r"/><use transform="matrix(0.010850694444444444,0,0,0.010850694444444444,86.57769097222221,0)" xlink:href="#q"/><use transform="matrix(0.010850694444444444,0,0,0.010850694444444444,99.38151041666666,0)" xlink:href="#s"/><use transform="matrix(0.010850694444444444,0,0,0.010850694444444444,111.87065972222221,0)" xlink:href="#o"/><use transform="matrix(0.010850694444444444,0,0,0.010850694444444444,117.25260416666666,0)" xlink:href="#t"/><use transform="matrix(0.010850694444444444,0,0,0.010850694444444444,125.24956597222221,0)" xlink:href="#p"/><use transform="matrix(0.010850694444444444,0,0,0.010850694444444444,138.57421875,0)" xlink:href="#q"/><use transform="matrix(0.010850694444444444,0,0,0.010850694444444444,151.70355902777777,0)" xlink:href="#u"/><use transform="matrix(0.010850694444444444,0,0,0.010850694444444444,171.16970486111111,0)" xlink:href="#v"/><use transform="matrix(0.010850694444444444,0,0,0.010850694444444444,184.12543402777777,0)" xlink:href="#q"/><use transform="matrix(0.010850694444444444,0,0,0.010850694444444444,197.25477430555554,0)" xlink:href="#m"/><use transform="matrix(0.010850694444444444,0,0,0.010850694444444444,204.52473958333331,0)" xlink:href="#r"/><use transform="matrix(0.010850694444444444,0,0,0.010850694444444444,217.88194444444443,0)" xlink:href="#w"/><use transform="matrix(0.010850694444444444,0,0,0.010850694444444444,223.26388888888889,0)" xlink:href="#v"/><use transform="matrix(0.010850694444444444,0,0,0.010850694444444444,236.21961805555554,0)" xlink:href="#u"/><use transform="matrix(0.010850694444444444,0,0,0.010850694444444444,255.68576388888889,0)" xlink:href="#v"/><use transform="matrix(0.010850694444444444,0,0,0.010850694444444444,268.64149305555554,0)" xlink:href="#q"/><use transform="matrix(0.010850694444444444,0,0,0.010850694444444444,281.7708333333333,0)" xlink:href="#m"/></g><path d="M180 0v-1490h510c348 0 508 194 508 460 0 198-88 351-276 417L1256 0h-220L726-579c-117 2-238 0-356 1V0H180zm190-747h312c235 0 327-108 327-283 0-177-92-293-329-293H370v576" id="x"/><path d="M537 14c-226 0-379-139-379-422v-710h180v695c0 172 97 275 253 275 160 0 281-109 281-300v-670h181V0H879v-209C806-46 684 14 537 14" id="y"/><g id="b"><use transform="matrix(0.010850694444444444,0,0,0.010850694444444444,0,0)" xlink:href="#x"/><use transform="matrix(0.010850694444444444,0,0,0.010850694444444444,13.975694444444445,0)" xlink:href="#p"/><use transform="matrix(0.010850694444444444,0,0,0.010850694444444444,27.30034722222222,0)" xlink:href="#y"/><use transform="matrix(0.010850694444444444,0,0,0.010850694444444444,40.44053819444444,0)" xlink:href="#m"/><use transform="matrix(0.010850694444444444,0,0,0.010850694444444444,47.49348958333333,0)" xlink:href="#v"/><use transform="matrix(0.010850694444444444,0,0,0.010850694444444444,60.44921875,0)" xlink:href="#r"/><use transform="matrix(0.010850694444444444,0,0,0.010850694444444444,73.80642361111111,0)" xlink:href="#q"/><use transform="matrix(0.010850694444444444,0,0,0.010850694444444444,86.61024305555556,0)" xlink:href="#s"/><use transform="matrix(0.010850694444444444,0,0,0.010850694444444444,99.09939236111111,0)" xlink:href="#o"/><use transform="matrix(0.010850694444444444,0,0,0.010850694444444444,104.48133680555556,0)" xlink:href="#t"/><use transform="matrix(0.010850694444444444,0,0,0.010850694444444444,112.4782986111111,0)" xlink:href="#p"/><use transform="matrix(0.010850694444444444,0,0,0.010850694444444444,125.80295138888889,0)" xlink:href="#q"/><use transform="matrix(0.010850694444444444,0,0,0.010850694444444444,138.93229166666666,0)" xlink:href="#u"/><use transform="matrix(0.010850694444444444,0,0,0.010850694444444444,158.3984375,0)" xlink:href="#v"/><use transform="matrix(0.010850694444444444,0,0,0.010850694444444444,171.35416666666666,0)" xlink:href="#q"/><use transform="matrix(0.010850694444444444,0,0,0.010850694444444444,184.48350694444443,0)" xlink:href="#m"/><use transform="matrix(0.010850694444444444,0,0,0.010850694444444444,191.75347222222223,0)" xlink:href="#r"/><use transform="matrix(0.010850694444444444,0,0,0.010850694444444444,205.11067708333331,0)" xlink:href="#w"/><use transform="matrix(0.010850694444444444,0,0,0.010850694444444444,210.49262152777777,0)" xlink:href="#v"/><use transform="matrix(0.010850694444444444,0,0,0.010850694444444444,223.44835069444443,0)" xlink:href="#u"/><use transform="matrix(0.010850694444444444,0,0,0.010850694444444444,242.91449652777777,0)" xlink:href="#v"/><use transform="matrix(0.010850694444444444,0,0,0.010850694444444444,255.87022569444443,0)" xlink:href="#q"/><use transform="matrix(0.010850694444444444,0,0,0.010850694444444444,268.99956597222223,0)" xlink:href="#m"/></g><path d="M98-1322v-168h1126v168H757V0H567v-1322H98" id="z"/><path d="M52 0l541-1490h220L1361 0h-200l-149-416H398L254 0H52zm404-582h497c-103-290-145-390-251-756-108 377-145 460-246 756" id="A"/><path d="M611 442c-248 0-391-105-460-228l146-94c47 65 117 165 314 165 178 0 307-82 307-266v-224h-17C863-141 792-18 576-18c-268 0-472-195-472-546 0-346 197-568 476-568 216 0 288 133 326 193h17v-179h175V29c0 289-215 413-487 413zm-5-620c203 0 314-146 314-390 0-237-108-403-314-403-213 0-319 180-319 403 0 230 109 390 319 390" id="B"/><path d="M458 0L52-1490h194c108 439 233 855 324 1313 92-459 221-873 331-1313h216c110 438 234 854 330 1307 92-455 216-869 323-1307h196L1558 0h-221l-256-944c-26-95-50-200-73-331-22 122-44 223-73 331L680 0H458" id="C"/><path d="M158 418v-1536h174v179h20c37-59 106-193 324-193 279 0 474 222 474 576 0 356-194 580-473 580-213 0-288-135-325-197h-14v591H158zm492-555c209 0 317-186 317-421 0-232-105-413-317-413-206 0-314 166-314 413 0 249 111 421 314 421" id="D"/><g id="c"><use transform="matrix(0.010850694444444444,0,0,0.010850694444444444,0,0)" xlink:href="#z"/><use transform="matrix(0.010850694444444444,0,0,0.010850694444444444,13.0859375,0)" xlink:href="#t"/><use transform="matrix(0.010850694444444444,0,0,0.010850694444444444,21.451822916666664,0)" xlink:href="#n"/><use transform="matrix(0.010850694444444444,0,0,0.010850694444444444,33.93012152777777,0)" xlink:href="#o"/><use transform="matrix(0.010850694444444444,0,0,0.010850694444444444,39.312065972222214,0)" xlink:href="#q"/><use transform="matrix(0.010850694444444444,0,0,0.010850694444444444,52.441406249999986,0)" xlink:href="#A"/><use transform="matrix(0.010850694444444444,0,0,0.010850694444444444,67.7734375,0)" xlink:href="#B"/><use transform="matrix(0.010850694444444444,0,0,0.010850694444444444,81.40190972222223,0)" xlink:href="#v"/><use transform="matrix(0.010850694444444444,0,0,0.010850694444444444,94.3576388888889,0)" xlink:href="#q"/><use transform="matrix(0.010850694444444444,0,0,0.010850694444444444,107.48697916666666,0)" xlink:href="#m"/><use transform="matrix(0.010850694444444444,0,0,0.010850694444444444,114.75694444444444,0)" xlink:href="#r"/><use transform="matrix(0.010850694444444444,0,0,0.010850694444444444,128.11414930555554,0)" xlink:href="#r"/><use transform="matrix(0.010850694444444444,0,0,0.010850694444444444,141.47135416666666,0)" xlink:href="#C"/><use transform="matrix(0.010850694444444444,0,0,0.010850694444444444,162.61935763888889,0)" xlink:href="#t"/><use transform="matrix(0.010850694444444444,0,0,0.010850694444444444,170.98524305555554,0)" xlink:href="#n"/><use transform="matrix(0.010850694444444444,0,0,0.010850694444444444,183.46354166666666,0)" xlink:href="#D"/><use transform="matrix(0.010850694444444444,0,0,0.010850694444444444,197.0703125,0)" xlink:href="#D"/><use transform="matrix(0.010850694444444444,0,0,0.010850694444444444,210.67708333333331,0)" xlink:href="#v"/><use transform="matrix(0.010850694444444444,0,0,0.010850694444444444,223.6328125,0)" xlink:href="#t"/></g><path d="M645 0H180v-1490h484c435 0 692 280 692 742 0 466-257 748-711 748zM370-168h263c363 0 539-218 539-580 0-358-176-574-521-574H370v1154" id="E"/><path d="M140 405l46-156c120 36 205 19 263-150l32-93L54-1118h197c107 313 237 620 324 950 87-331 219-637 326-950h196L606 167c-68 178-176 259-334 259-64 0-113-12-132-21" id="F"/><path d="M613 24c-304 0-509-231-509-576 0-350 205-580 509-580 216 0 392 114 453 309l-173 49c-33-115-133-197-280-197-223 0-326 196-326 419 0 220 103 415 326 415 150 0 252-85 285-206l172 49C1010-95 832 24 613 24" id="G"/><path d="M677 24c-213 0-288-135-325-197h-20V0H158v-1490h180v551h14c37-59 106-193 324-193 279 0 474 222 474 576 0 356-194 580-473 580zm-27-161c209 0 317-186 317-421 0-232-105-413-317-413-206 0-314 166-314 413 0 249 111 421 314 421" id="H"/><g id="d"><use transform="matrix(0.010850694444444444,0,0,0.010850694444444444,0,0)" xlink:href="#E"/><use transform="matrix(0.010850694444444444,0,0,0.010850694444444444,16.03732638888889,0)" xlink:href="#F"/><use transform="matrix(0.010850694444444444,0,0,0.010850694444444444,28.526475694444443,0)" xlink:href="#q"/><use transform="matrix(0.010850694444444444,0,0,0.010850694444444444,41.65581597222222,0)" xlink:href="#n"/><use transform="matrix(0.010850694444444444,0,0,0.010850694444444444,54.13411458333333,0)" xlink:href="#u"/><use transform="matrix(0.010850694444444444,0,0,0.010850694444444444,73.60026041666666,0)" xlink:href="#o"/><use transform="matrix(0.010850694444444444,0,0,0.010850694444444444,78.9822048611111,0)" xlink:href="#G"/><use transform="matrix(0.010850694444444444,0,0,0.010850694444444444,89.94140624999997,0)" xlink:href="#z"/><use transform="matrix(0.010850694444444444,0,0,0.010850694444444444,104.28602430555556,0)" xlink:href="#o"/><use transform="matrix(0.010850694444444444,0,0,0.010850694444444444,109.66796874999997,0)" xlink:href="#u"/><use transform="matrix(0.010850694444444444,0,0,0.010850694444444444,129.13411458333331,0)" xlink:href="#v"/><use transform="matrix(0.010850694444444444,0,0,0.010850694444444444,142.08984374999997,0)" xlink:href="#m"/><use transform="matrix(0.010850694444444444,0,0,0.010850694444444444,149.4683159722222,0)" xlink:href="#n"/><use transform="matrix(0.010850694444444444,0,0,0.010850694444444444,161.94661458333331,0)" xlink:href="#H"/><use transform="matrix(0.010850694444444444,0,0,0.010850694444444444,175.55338541666666,0)" xlink:href="#w"/><use transform="matrix(0.010850694444444444,0,0,0.010850694444444444,180.93532986111111,0)" xlink:href="#v"/></g><g id="e"><use transform="matrix(0.010850694444444444,0,0,0.010850694444444444,0,0)" xlink:href="#z"/><use transform="matrix(0.010850694444444444,0,0,0.010850694444444444,13.0859375,0)" xlink:href="#t"/><use transform="matrix(0.010850694444444444,0,0,0.010850694444444444,21.451822916666664,0)" xlink:href="#n"/><use transform="matrix(0.010850694444444444,0,0,0.010850694444444444,33.93012152777777,0)" xlink:href="#o"/><use transform="matrix(0.010850694444444444,0,0,0.010850694444444444,39.312065972222214,0)" xlink:href="#q"/><use transform="matrix(0.010850694444444444,0,0,0.010850694444444444,52.441406249999986,0)" xlink:href="#A"/><use transform="matrix(0.010850694444444444,0,0,0.010850694444444444,67.7734375,0)" xlink:href="#B"/><use transform="matrix(0.010850694444444444,0,0,0.010850694444444444,81.40190972222223,0)" xlink:href="#v"/><use transform="matrix(0.010850694444444444,0,0,0.010850694444444444,94.3576388888889,0)" xlink:href="#q"/><use transform="matrix(0.010850694444444444,0,0,0.010850694444444444,107.48697916666666,0)" xlink:href="#m"/><use transform="matrix(0.010850694444444444,0,0,0.010850694444444444,114.75694444444444,0)" xlink:href="#r"/><use transform="matrix(0.010850694444444444,0,0,0.010850694444444444,128.11414930555554,0)" xlink:href="#q"/><use transform="matrix(0.010850694444444444,0,0,0.010850694444444444,140.91796875,0)" xlink:href="#s"/><use transform="matrix(0.010850694444444444,0,0,0.010850694444444444,153.40711805555554,0)" xlink:href="#o"/><use transform="matrix(0.010850694444444444,0,0,0.010850694444444444,158.7890625,0)" xlink:href="#t"/><use transform="matrix(0.010850694444444444,0,0,0.010850694444444444,166.78602430555554,0)" xlink:href="#p"/><use transform="matrix(0.010850694444444444,0,0,0.010850694444444444,180.11067708333331,0)" xlink:href="#q"/><use transform="matrix(0.010850694444444444,0,0,0.010850694444444444,193.24001736111111,0)" xlink:href="#u"/><use transform="matrix(0.010850694444444444,0,0,0.010850694444444444,212.70616319444443,0)" xlink:href="#v"/><use transform="matrix(0.010850694444444444,0,0,0.010850694444444444,225.66189236111111,0)" xlink:href="#q"/><use transform="matrix(0.010850694444444444,0,0,0.010850694444444444,238.79123263888883,0)" xlink:href="#m"/></g><g id="f"><use transform="matrix(0.010850694444444444,0,0,0.010850694444444444,0,0)" xlink:href="#x"/><use transform="matrix(0.010850694444444444,0,0,0.010850694444444444,13.975694444444445,0)" xlink:href="#p"/><use transform="matrix(0.010850694444444444,0,0,0.010850694444444444,27.30034722222222,0)" xlink:href="#y"/><use transform="matrix(0.010850694444444444,0,0,0.010850694444444444,40.44053819444444,0)" xlink:href="#m"/><use transform="matrix(0.010850694444444444,0,0,0.010850694444444444,47.49348958333333,0)" xlink:href="#v"/><use transform="matrix(0.010850694444444444,0,0,0.010850694444444444,60.44921875,0)" xlink:href="#r"/><use transform="matrix(0.010850694444444444,0,0,0.010850694444444444,73.80642361111111,0)" xlink:href="#q"/><use transform="matrix(0.010850694444444444,0,0,0.010850694444444444,86.61024305555556,0)" xlink:href="#s"/><use transform="matrix(0.010850694444444444,0,0,0.010850694444444444,99.09939236111111,0)" xlink:href="#o"/><use transform="matrix(0.010850694444444444,0,0,0.010850694444444444,104.48133680555556,0)" xlink:href="#t"/><use transform="matrix(0.010850694444444444,0,0,0.010850694444444444,112.4782986111111,0)" xlink:href="#p"/><use transform="matrix(0.010850694444444444,0,0,0.010850694444444444,125.80295138888889,0)" xlink:href="#q"/><use transform="matrix(0.010850694444444444,0,0,0.010850694444444444,138.93229166666666,0)" xlink:href="#u"/><use transform="matrix(0.010850694444444444,0,0,0.010850694444444444,158.3984375,0)" xlink:href="#v"/><use transform="matrix(0.010850694444444444,0,0,0.010850694444444444,171.35416666666666,0)" xlink:href="#q"/><use transform="matrix(0.010850694444444444,0,0,0.010850694444444444,184.48350694444443,0)" xlink:href="#m"/></g><g id="g"><use transform="matrix(0.010850694444444444,0,0,0.010850694444444444,0,0)" xlink:href="#E"/><use transform="matrix(0.010850694444444444,0,0,0.010850694444444444,16.03732638888889,0)" xlink:href="#F"/><use transform="matrix(0.010850694444444444,0,0,0.010850694444444444,28.526475694444443,0)" xlink:href="#q"/><use transform="matrix(0.010850694444444444,0,0,0.010850694444444444,41.65581597222222,0)" xlink:href="#n"/><use transform="matrix(0.010850694444444444,0,0,0.010850694444444444,54.13411458333333,0)" xlink:href="#u"/><use transform="matrix(0.010850694444444444,0,0,0.010850694444444444,73.60026041666666,0)" xlink:href="#o"/><use transform="matrix(0.010850694444444444,0,0,0.010850694444444444,78.9822048611111,0)" xlink:href="#G"/><use transform="matrix(0.010850694444444444,0,0,0.010850694444444444,89.94140624999997,0)" xlink:href="#z"/><use transform="matrix(0.010850694444444444,0,0,0.010850694444444444,104.28602430555556,0)" xlink:href="#o"/><use transform="matrix(0.010850694444444444,0,0,0.010850694444444444,109.66796874999997,0)" xlink:href="#u"/><use transform="matrix(0.010850694444444444,0,0,0.010850694444444444,129.13411458333331,0)" xlink:href="#v"/><use transform="matrix(0.010850694444444444,0,0,0.010850694444444444,142.08984374999997,0)" xlink:href="#m"/><use transform="matrix(0.010850694444444444,0,0,0.010850694444444444,149.4683159722222,0)" xlink:href="#n"/><use transform="matrix(0.010850694444444444,0,0,0.010850694444444444,161.94661458333331,0)" xlink:href="#H"/><use transform="matrix(0.010850694444444444,0,0,0.010850694444444444,175.55338541666666,0)" xlink:href="#w"/><use transform="matrix(0.010850694444444444,0,0,0.010850694444444444,180.93532986111111,0)" xlink:href="#v"/><use transform="matrix(0.010850694444444444,0,0,0.010850694444444444,193.89105902777777,0)" xlink:href="#r"/><use transform="matrix(0.010850694444444444,0,0,0.010850694444444444,207.24826388888889,0)" xlink:href="#q"/><use transform="matrix(0.010850694444444444,0,0,0.010850694444444444,220.05208333333331,0)" xlink:href="#s"/><use transform="matrix(0.010850694444444444,0,0,0.010850694444444444,232.54123263888883,0)" xlink:href="#o"/><use transform="matrix(0.010850694444444444,0,0,0.010850694444444444,237.92317708333331,0)" xlink:href="#t"/><use transform="matrix(0.010850694444444444,0,0,0.010850694444444444,245.92013888888883,0)" xlink:href="#p"/><use transform="matrix(0.010850694444444444,0,0,0.010850694444444444,259.24479166666663,0)" xlink:href="#q"/><use transform="matrix(0.010850694444444444,0,0,0.010850694444444444,272.3741319444444,0)" xlink:href="#u"/><use transform="matrix(0.010850694444444444,0,0,0.010850694444444444,291.8402777777777,0)" xlink:href="#v"/><use transform="matrix(0.010850694444444444,0,0,0.010850694444444444,304.7960069444444,0)" xlink:href="#q"/><use transform="matrix(0.010850694444444444,0,0,0.010850694444444444,317.9253472222222,0)" xlink:href="#m"/></g><path fill="#333" d="M750 21c-371 0-615-218-615-544v-967h305v942c0 174 123 299 310 299s309-125 309-299v-942h306v967c0 326-247 544-615 544" id="I"/><path fill="#333" d="M572 22C302 22 117-98 78-306l279-48c29 105 101 156 224 156 114 0 185-48 185-115 0-118-228-130-337-155-215-49-322-150-322-317 0-215 187-347 470-347 265 0 424 116 466 298l-266 47c-24-76-87-130-196-130-98 0-174 46-174 113 0 56 38 95 144 117l201 40c216 44 320 143 320 302 0 220-207 367-500 367" id="J"/><path fill="#333" d="M633 22C291 22 81-200 81-553c0-345 210-579 537-579 292 0 525 185 525 567v84H378c7 183 109 277 260 277 105 0 184-46 216-132l272 51C1071-99 893 22 633 22zM380-669h474c-15-146-94-237-233-237-143 0-229 99-241 237" id="K"/><g id="h"><use transform="matrix(0.008680555555555556,0,0,0.008680555555555556,0,0)" xlink:href="#I"/><use transform="matrix(0.008680555555555556,0,0,0.008680555555555556,13.012152777777779,0)" xlink:href="#J"/><use transform="matrix(0.008680555555555556,0,0,0.008680555555555556,22.96875,0)" xlink:href="#K"/></g><g id="i"><use transform="matrix(0.010850694444444444,0,0,0.010850694444444444,0,0)" xlink:href="#l"/><use transform="matrix(0.010850694444444444,0,0,0.010850694444444444,14.2578125,0)" xlink:href="#m"/><use transform="matrix(0.010850694444444444,0,0,0.010850694444444444,21.63628472222222,0)" xlink:href="#n"/><use transform="matrix(0.010850694444444444,0,0,0.010850694444444444,34.11458333333333,0)" xlink:href="#m"/><use transform="matrix(0.010850694444444444,0,0,0.010850694444444444,41.38454861111111,0)" xlink:href="#o"/><use transform="matrix(0.010850694444444444,0,0,0.010850694444444444,46.76649305555556,0)" xlink:href="#p"/><use transform="matrix(0.010850694444444444,0,0,0.010850694444444444,60.09114583333333,0)" xlink:href="#q"/><use transform="matrix(0.010850694444444444,0,0,0.010850694444444444,73.2204861111111,0)" xlink:href="#r"/><use transform="matrix(0.010850694444444444,0,0,0.010850694444444444,86.57769097222221,0)" xlink:href="#q"/><use transform="matrix(0.010850694444444444,0,0,0.010850694444444444,99.38151041666666,0)" xlink:href="#s"/><use transform="matrix(0.010850694444444444,0,0,0.010850694444444444,111.87065972222221,0)" xlink:href="#o"/><use transform="matrix(0.010850694444444444,0,0,0.010850694444444444,117.25260416666666,0)" xlink:href="#t"/><use transform="matrix(0.010850694444444444,0,0,0.010850694444444444,125.24956597222221,0)" xlink:href="#p"/><use transform="matrix(0.010850694444444444,0,0,0.010850694444444444,138.57421875,0)" xlink:href="#q"/><use transform="matrix(0.010850694444444444,0,0,0.010850694444444444,151.70355902777777,0)" xlink:href="#u"/><use transform="matrix(0.010850694444444444,0,0,0.010850694444444444,171.16970486111111,0)" xlink:href="#v"/><use transform="matrix(0.010850694444444444,0,0,0.010850694444444444,184.12543402777777,0)" xlink:href="#q"/></g><g id="j"><use transform="matrix(0.010850694444444444,0,0,0.010850694444444444,0,0)" xlink:href="#r"/><use transform="matrix(0.010850694444444444,0,0,0.010850694444444444,13.35720486111111,0)" xlink:href="#q"/><use transform="matrix(0.010850694444444444,0,0,0.010850694444444444,26.161024305555554,0)" xlink:href="#s"/><use transform="matrix(0.010850694444444444,0,0,0.010850694444444444,38.65017361111111,0)" xlink:href="#o"/><use transform="matrix(0.010850694444444444,0,0,0.010850694444444444,44.03211805555555,0)" xlink:href="#t"/><use transform="matrix(0.010850694444444444,0,0,0.010850694444444444,52.0290798611111,0)" xlink:href="#p"/><use transform="matrix(0.010850694444444444,0,0,0.010850694444444444,65.35373263888887,0)" xlink:href="#q"/><use transform="matrix(0.010850694444444444,0,0,0.010850694444444444,78.48307291666664,0)" xlink:href="#u"/><use transform="matrix(0.010850694444444444,0,0,0.010850694444444444,97.94921874999997,0)" xlink:href="#v"/><use transform="matrix(0.010850694444444444,0,0,0.010850694444444444,110.90494791666664,0)" xlink:href="#q"/><use transform="matrix(0.010850694444444444,0,0,0.010850694444444444,124.03428819444441,0)" xlink:href="#m"/></g><g id="k"><use transform="matrix(0.010850694444444444,0,0,0.010850694444444444,0,0)" xlink:href="#r"/><use transform="matrix(0.010850694444444444,0,0,0.010850694444444444,13.35720486111111,0)" xlink:href="#q"/><use transform="matrix(0.010850694444444444,0,0,0.010850694444444444,26.161024305555554,0)" xlink:href="#s"/><use transform="matrix(0.010850694444444444,0,0,0.010850694444444444,38.65017361111111,0)" xlink:href="#o"/><use transform="matrix(0.010850694444444444,0,0,0.010850694444444444,44.03211805555555,0)" xlink:href="#t"/><use transform="matrix(0.010850694444444444,0,0,0.010850694444444444,52.0290798611111,0)" xlink:href="#p"/><use transform="matrix(0.010850694444444444,0,0,0.010850694444444444,65.35373263888887,0)" xlink:href="#q"/><use transform="matrix(0.010850694444444444,0,0,0.010850694444444444,78.48307291666664,0)" xlink:href="#u"/><use transform="matrix(0.010850694444444444,0,0,0.010850694444444444,97.94921874999997,0)" xlink:href="#v"/><use transform="matrix(0.010850694444444444,0,0,0.010850694444444444,110.90494791666664,0)" xlink:href="#q"/><use transform="matrix(0.010850694444444444,0,0,0.010850694444444444,124.03428819444441,0)" xlink:href="#m"/><use transform="matrix(0.010850694444444444,0,0,0.010850694444444444,131.3042534722222,0)" xlink:href="#r"/><use transform="matrix(0.010850694444444444,0,0,0.010850694444444444,144.66145833333331,0)" xlink:href="#w"/><use transform="matrix(0.010850694444444444,0,0,0.010850694444444444,150.04340277777777,0)" xlink:href="#v"/><use transform="matrix(0.010850694444444444,0,0,0.010850694444444444,162.99913194444443,0)" xlink:href="#u"/><use transform="matrix(0.010850694444444444,0,0,0.010850694444444444,182.46527777777777,0)" xlink:href="#v"/><use transform="matrix(0.010850694444444444,0,0,0.010850694444444444,195.42100694444443,0)" xlink:href="#q"/><use transform="matrix(0.010850694444444444,0,0,0.010850694444444444,208.55034722222223,0)" xlink:href="#m"/></g></defs></g></svg>