<svg xmlns="http://www.w3.org/2000/svg" xmlns:xlink="http://www.w3.org/1999/xlink" xmlns:lucid="lucid" width="3402" height="1301"><g transform="translate(-339 121)" lucid:page-tab-id="xz6Z0G8eKyK-"><path d="M1969.44-99.8A7.83 7.83 0 0 0 1977-94h77a6 6 0 0 1 6 6v72a6 6 0 0 1-6 6h-228a6 6 0 0 1-6-6v-98a6 6 0 0 1 6-6h132a7.83 7.83 0 0 1 7.56 5.8zM1820-94h151" stroke="#3a414a" stroke-width="2" fill="#cfe4ff"/><path d="M1820-74a6 6 0 0 1 6-6h228a6 6 0 0 1 6 6v48a6 6 0 0 1-6 6h-228a6 6 0 0 1-6-6z" fill="none"/><use xlink:href="#a" transform="matrix(1,0,0,1,1820,-80) translate(71.74479166666666 42.93402777777778)"/><path d="M1269.44 118.2a7.83 7.83 0 0 0 7.56 5.8h77a6 6 0 0 1 6 6v72a6 6 0 0 1-6 6h-228a6 6 0 0 1-6-6v-98a6 6 0 0 1 6-6h132a7.83 7.83 0 0 1 7.56 5.8zM1120 124h151" stroke="#3a414a" stroke-width="2" fill="#cfe4ff"/><path d="M1120 144a6 6 0 0 1 6-6h228a6 6 0 0 1 6 6v48a6 6 0 0 1-6 6h-228a6 6 0 0 1-6-6z" fill="none"/><use xlink:href="#b" transform="matrix(1,0,0,1,1120,138.00508811890893) translate(46.18055555555556 42.93402777777778)"/><path d="M1549.44 118.2a7.83 7.83 0 0 0 7.56 5.8h77a6 6 0 0 1 6 6v72a6 6 0 0 1-6 6h-228a6 6 0 0 1-6-6v-98a6 6 0 0 1 6-6h132a7.83 7.83 0 0 1 7.56 5.8zM1400 124h151" stroke="#3a414a" stroke-width="2" fill="#cfe4ff"/><path d="M1400 144a6 6 0 0 1 6-6h228a6 6 0 0 1 6 6v48a6 6 0 0 1-6 6h-228a6 6 0 0 1-6-6z" fill="none"/><use xlink:href="#c" transform="matrix(1,0,0,1,1400,138.00508811890893) translate(18.654513888888857 42.93402777777778)"/><path d="M1829.44 116.22a7.83 7.83 0 0 0 7.56 5.8h77a6 6 0 0 1 6 6v72a6 6 0 0 1-6 6h-228a6 6 0 0 1-6-6v-98a6 6 0 0 1 6-6h132a7.83 7.83 0 0 1 7.56 5.78zm-149.44 5.8h151" stroke="#3a414a" stroke-width="2" fill="#cfe4ff"/><path d="M1680 142a6 6 0 0 1 6-6h228a6 6 0 0 1 6 6v48a6 6 0 0 1-6 6h-228a6 6 0 0 1-6-6z" fill="none"/><use xlink:href="#d" transform="matrix(1,0,0,1,1680,136.01017623781786) translate(95.42534722222223 42.93402777777778)"/><path d="M2109.44 116.22a7.83 7.83 0 0 0 7.56 5.8h77a6 6 0 0 1 6 6v72a6 6 0 0 1-6 6h-228a6 6 0 0 1-6-6v-98a6 6 0 0 1 6-6h132a7.83 7.83 0 0 1 7.56 5.78zm-149.44 5.8h151" stroke="#3a414a" stroke-width="2" fill="#cfe4ff"/><path d="M1960 143a6 6 0 0 1 6-6h228a6 6 0 0 1 6 6v48a6 6 0 0 1-6 6h-228a6 6 0 0 1-6-6z" fill="none"/><use xlink:href="#e" transform="matrix(1,0,0,1,1960,137.0076321783634) translate(59.14062499999999 42.93402777777778)"/><path d="M2389.44 119.2a7.83 7.83 0 0 0 7.56 5.8h77a6 6 0 0 1 6 6v72a6 6 0 0 1-6 6h-228a6 6 0 0 1-6-6v-98a6 6 0 0 1 6-6h132a7.83 7.83 0 0 1 7.56 5.8zM2240 125h151" stroke="#3a414a" stroke-width="2" fill="#cfe4ff"/><path d="M2240 145a6 6 0 0 1 6-6h228a6 6 0 0 1 6 6v48a6 6 0 0 1-6 6h-228a6 6 0 0 1-6-6z" fill="none"/><use xlink:href="#f" transform="matrix(1,0,0,1,2240,139.00254405945446) translate(6.2847222222222285 42.93402777777778)"/><path d="M2709.44 117.2a7.83 7.83 0 0 0 7.56 5.8h77a6 6 0 0 1 6 6v72a6 6 0 0 1-6 6h-228a6 6 0 0 1-6-6v-98a6 6 0 0 1 6-6h132a7.83 7.83 0 0 1 7.56 5.8zM2560 123h151" stroke="#3a414a" stroke-width="2" fill="#fff"/><path d="M2560 143a6 6 0 0 1 6-6h228a6 6 0 0 1 6 6v48a6 6 0 0 1-6 6h-228a6 6 0 0 1-6-6z" fill="none"/><use xlink:href="#g" transform="matrix(1,0,0,1,2560,137.0076321783634) translate(85.67708333333333 42.93402777777778)"/><path d="M940 293v-2.08m0-8.34v-4.16m0-8.34V268l.07-.94.15-.6m4.23-4.24l.6-.15.95-.07h2m8 0h4m8 0h4m8 0h4m8 0h4m8 0h4m8 0h4m8 0h4m8 0h4m8 0h4m8 0h4m8 0h4m8 0h4m8 0h4m8 0h4m8 0h4m8 0h4m8 0h4m8 0h4m8 0h4m8 0h4m8 0h4m8 0h4m8 0h4m8 0h2l.94-.07.6-.15m4.24-4.23l.15-.6.07-.95v-1.88m0-7.53v-3.78m0-7.53v-3.77m0-7.53v-3.76m0-7.53v-1.88" stroke="#3a414a" stroke-width="2" fill="none"/><path d="M940.98 294H939v-1.03H941z" stroke="#3a414a" stroke-width=".05" fill="#3a414a"/><path d="M1230 228.33l10-17.33 10 17.33M1240 293v-1.96m0-7.82v-3.92m0-7.82v-3.92m0-7.82v-3.92m0-7.82v-3.9m0-7.84v-3.9m0-7.84v-3.9m0-7.84v-1.96" stroke="#3a414a" stroke-width="2" fill="none"/><path d="M1240.97 294h-1.94v-1.03h1.94z" stroke="#3a414a" stroke-width=".05" fill="#3a414a"/><path d="M1230 228.33l10-17.33 10 17.33" stroke="#3a414a" stroke-width="2" fill="none"/><path d="M769.44 520.2A7.83 7.83 0 0 0 777 526h77a6 6 0 0 1 6 6v72a6 6 0 0 1-6 6H626a6 6 0 0 1-6-6v-98a6 6 0 0 1 6-6h132a7.83 7.83 0 0 1 7.56 5.8zM620 526h151" stroke="#3a414a" stroke-width="2" fill="#cfe4ff"/><path d="M620 546a6 6 0 0 1 6-6h228a6 6 0 0 1 6 6v48a6 6 0 0 1-6 6H626a6 6 0 0 1-6-6z" fill="none"/><use xlink:href="#h" transform="matrix(1,0,0,1,620,540) translate(64.44444444444444 42.93402777777778)"/><path d="M1240 96v-1.9m0-7.68V82.6m0-7.68V71.1m0-7.68V59.6m0-7.68V50l.07-.94.15-.6m4.23-4.24l.6-.14.95-.08h2m8.06 0h4.02m8.05 0h4.02m8.05 0h4.02m8.05 0h4.02m8.04 0h4.02m8.05 0h4.03m8.05 0h4.02m8.05 0h4.02m8.05 0h4.02m8.05 0h4m8.06 0h4.02m8.05 0h4.02m8.05 0h4.02m8.05 0h4.02m8.04 0h4.02m8.05 0h4.04m8.04 0h4.02m8.05 0h4.03m8.04 0h4.03m8.04 0h4m8.06 0h4.02m8.05 0h4.03m8.04 0h4.03m8.04 0h4.03m8.04 0h4.03m8.04 0h4.04m8.04 0h4.03m8.05 0h4.03m8.04 0h4.03m8.04 0h4.02m8.04 0h4.03m8.03 0h4.03m8.04 0h4.03m8.04 0h4.03m8.04 0h4.03m8.05 0h4.02m8.05 0h4m8.06 0h4.02m8.04 0h4.03m8.05 0h4.02m8.05 0h4.02m8.04 0h4.02m8.05 0h4.03m8.05 0h4.02m8.05 0h4.02m8.05 0h4.02m8.05 0h4m8.06 0h4.02m8.05 0h4.02m8.05 0h4.02m8.05 0h4.02m8.04 0h4.02m8.05 0h4.03m8.05 0h4.02m8.05 0h4.02m8.05 0h4.02m8.05 0h2l.94-.07.6-.15m4.24-4.23l.15-.6.07-.95v-1.88m0-7.53V24.8m0-7.53v-3.77m0-7.53V2.23m0-7.53v-1.88" stroke="#3a414a" stroke-width="2" fill="none"/><path d="M1240.97 97h-1.94v-1.02h1.94z" stroke="#3a414a" stroke-width=".05" fill="#3a414a"/><path d="M1930 10.32L1940-7l10 17.32M1520 96v-1.9m0-7.68V82.6m0-7.68V71.1m0-7.68V59.6m0-7.68V50l.07-.94.15-.6m4.23-4.24l.6-.14.95-.08h2m8 0h4m8 0h4m8 0h4m8 0h4m8 0h4m8 0h4m8 0h4m8 0h4m8 0h4m8 0h4m8 0h4m8 0h4m8 0h4m8 0h4m8 0h4m8 0h4m8 0h4m8 0h4m8 0h4m8 0h4m8 0h4m8 0h4m8 0h4m8 0h4m8 0h4m8 0h4m8 0h4m8 0h4m8 0h4m8 0h4m8 0h4m8 0h4m8 0h4m8 0h2l.94-.07.6-.15m4.24-4.23l.15-.6.07-.95v-1.88m0-7.53V24.8m0-7.53v-3.77m0-7.53V2.23m0-7.53v-1.88" stroke="#3a414a" stroke-width="2" fill="none"/><path d="M1520.97 97h-1.94v-1.02h1.94z" stroke="#3a414a" stroke-width=".05" fill="#3a414a"/><path d="M1930 10.32L1940-7l10 17.32M1800 94v-1.86m0-7.5v-3.76m0-7.5v-3.75m0-7.5v-3.75m0-7.5V49l.07-.93.15-.6m4.23-4.24l.6-.15.95-.07h1.94m7.76 0h3.88m7.75 0h3.88m7.77 0h3.88m7.76 0h3.88m7.76 0h3.88m7.76 0h3.88m7.76 0h3.87m7.75 0h3.88m7.76 0h3.87m7.75 0h3.88m7.76 0h1.94l.94-.07.6-.15m4.24-4.23l.15-.6.07-.95v-1.84m0-7.36v-3.68m0-7.37v-3.68m0-7.36V2.03m0-7.36v-1.84" stroke="#3a414a" stroke-width="2" fill="none"/><path d="M1800.97 95h-1.94V94h1.94z" stroke="#3a414a" stroke-width=".05" fill="#3a414a"/><path d="M1930 10.32L1940-7l10 17.32M2080 94v-1.86m0-7.5v-3.76m0-7.5v-3.75m0-7.5v-3.75m0-7.5V49l-.07-.93-.15-.6m-4.23-4.24l-.6-.15-.95-.07h-1.94m-7.76 0h-3.88m-7.75 0h-3.88m-7.77 0h-3.88m-7.76 0h-3.88m-7.76 0h-3.88m-7.76 0h-3.88m-7.76 0h-3.87m-7.75 0h-3.88m-7.76 0h-3.87m-7.75 0h-3.88m-7.76 0H1946l-.94-.07-.6-.15m-4.24-4.23l-.15-.6-.07-.95v-1.84m0-7.36v-3.68m0-7.37v-3.68m0-7.36V2.03m0-7.36v-1.84" stroke="#3a414a" stroke-width="2" fill="none"/><path d="M2080.97 95h-1.94V94h1.94z" stroke="#3a414a" stroke-width=".05" fill="#3a414a"/><path d="M1930 10.32L1940-7l10 17.32M2360 97v-1.94m0-7.75v-3.86m0-7.75v-3.9m0-7.74V60.2m0-7.76V50.5l-.07-.94-.15-.6m-4.23-4.24l-.6-.14-.95-.08h-2m-8 0h-4m-8 0h-4m-8 0h-4m-8 0h-4m-8 0h-4m-8 0h-4m-8 0h-4m-8 0h-4m-8 0h-4m-8 0h-4m-8 0h-4m-8 0h-4m-8 0h-4m-8 0h-4m-8 0h-4m-8 0h-4m-8 0h-4m-8 0h-4m-8 0h-4m-8 0h-4m-8 0h-4m-8 0h-4m-8 0h-4m-8 0h-4m-8 0h-4m-8 0h-4m-8 0h-4m-8 0h-4m-8 0h-4m-8 0h-4m-8 0h-4m-8 0h-4m-8 0h-4m-8 0h-2l-.94-.07-.6-.15m-4.24-4.23l-.15-.6-.07-.95v-1.9m0-7.62v-3.8m0-7.62v-3.8m0-7.62v-3.8m0-7.62v-1.9" stroke="#3a414a" stroke-width="2" fill="none"/><path d="M2360.97 98h-1.94v-1.02h1.94z" stroke="#3a414a" stroke-width=".05" fill="#3a414a"/><path d="M1930 10.32L1940-7l10 17.32M2680 95v-1.9m0-7.57v-3.8m0-7.58v-3.8m0-7.57v-3.8m0-7.58v-1.9l-.07-.94-.15-.6m-4.23-4.24l-.6-.14-.95-.08h-2m-7.95 0h-3.97m-7.96 0h-3.98m-7.95 0h-4m-7.95 0h-3.98m-7.95 0h-3.98m-7.96 0h-3.98m-7.95 0h-3.98m-7.96 0h-3.96m-7.96 0h-3.98m-7.95 0h-3.98m-7.96 0h-3.97m-7.95 0h-3.98m-7.96 0h-3.98m-7.95 0h-3.97m-7.96 0H2493m-7.96 0h-3.98m-7.96 0h-3.97m-7.96 0h-3.98m-7.96 0h-3.98m-7.96 0h-3.98m-7.95 0h-3.98m-7.97 0h-3.98m-7.95 0h-3.98m-7.96 0h-3.97m-7.97 0h-3.98m-7.96 0h-3.98m-7.96 0h-3.98m-7.96 0h-3.97m-7.96 0h-4m-7.94 0h-3.98m-7.96 0h-3.98m-7.95 0h-4m-7.95 0h-3.97m-7.96 0h-3.98m-7.96 0h-3.97m-7.95 0h-3.98m-7.95 0h-3.98m-7.96 0h-3.98m-7.95 0h-3.98m-7.96 0h-3.97m-7.95 0h-3.98m-7.96 0h-3.97m-7.96 0h-3.97m-7.96 0h-3.97m-7.96 0h-3.98m-7.95 0h-3.97m-7.96 0h-3.98m-7.96 0h-3.98m-7.96 0h-3.98m-7.95 0h-3.98m-7.97 0h-3.97m-7.96 0h-3.98m-7.96 0h-3.97m-7.97 0h-3.98m-7.95 0h-3.98m-7.96 0h-3.98m-7.95 0h-3.98m-7.96 0h-4m-7.94 0h-3.98m-7.96 0h-3.98m-7.95 0h-2l-.94-.07-.6-.15m-4.24-4.23l-.15-.6-.07-.95v-1.86m0-7.45v-3.73m0-7.45V13.3m0-7.45V2.13m0-7.45v-1.86" stroke="#3a414a" stroke-width="2" fill="none"/><path d="M2680.97 96h-1.94V95h1.94z" stroke="#3a414a" stroke-width=".05" fill="#3a414a"/><path d="M1930 10.32L1940-7l10 17.32" stroke="#3a414a" stroke-width="2" fill="none"/><path d="M1049.44 520.2a7.83 7.83 0 0 0 7.56 5.8h77a6 6 0 0 1 6 6v72a6 6 0 0 1-6 6H906a6 6 0 0 1-6-6v-98a6 6 0 0 1 6-6h132a7.83 7.83 0 0 1 7.56 5.8zM900 526h151" stroke="#3a414a" stroke-width="2" fill="#cfe4ff"/><path d="M900 547a6 6 0 0 1 6-6h228a6 6 0 0 1 6 6v48a6 6 0 0 1-6 6H906a6 6 0 0 1-6-6z" fill="none"/><use xlink:href="#i" transform="matrix(1,0,0,1,900,540.9974559405455) translate(36.61458333333333 42.93402777777778)"/><path d="M489.44 522.2A7.83 7.83 0 0 0 497 528h77a6 6 0 0 1 6 6v72a6 6 0 0 1-6 6H346a6 6 0 0 1-6-6v-98a6 6 0 0 1 6-6h132a7.83 7.83 0 0 1 7.56 5.8zM340 528h151" stroke="#3a414a" stroke-width="2" fill="#fff"/><path d="M340 548a6 6 0 0 1 6-6h228a6 6 0 0 1 6 6v48a6 6 0 0 1-6 6H346a6 6 0 0 1-6-6z" fill="none"/><use xlink:href="#j" transform="matrix(1,0,0,1,340,541.9949118810911) translate(57.50868055555555 42.93402777777778)"/><path d="M1329.44 523.2a7.83 7.83 0 0 0 7.56 5.8h77a6 6 0 0 1 6 6v72a6 6 0 0 1-6 6h-228a6 6 0 0 1-6-6v-98a6 6 0 0 1 6-6h132a7.83 7.83 0 0 1 7.56 5.8zM1180 529h151" stroke="#3a414a" stroke-width="2" fill="#cfe4ff"/><path d="M1180 549a6 6 0 0 1 6-6h228a6 6 0 0 1 6 6v48a6 6 0 0 1-6 6h-228a6 6 0 0 1-6-6z" fill="none"/><use xlink:href="#k" transform="matrix(1,0,0,1,1180,542.9923678216367) translate(76.45833333333331 42.93402777777778)"/><path d="M1649.44 523.2a7.83 7.83 0 0 0 7.56 5.8h77a6 6 0 0 1 6 6v72a6 6 0 0 1-6 6h-228a6 6 0 0 1-6-6v-98a6 6 0 0 1 6-6h132a7.83 7.83 0 0 1 7.56 5.8zM1500 529h151" stroke="#3a414a" stroke-width="2" fill="#cfe4ff"/><path d="M1500 549a6 6 0 0 1 6-6h228a6 6 0 0 1 6 6v48a6 6 0 0 1-6 6h-228a6 6 0 0 1-6-6z" fill="none"/><use xlink:href="#l" transform="matrix(1,0,0,1,1500,542.9923678216367) translate(37.638888888888886 42.93402777777778)"/><path d="M460 500v-1.9m0-7.55v-3.78m0-7.55v-3.78m0-7.55V466l.07-.94.15-.6m4.23-4.24l.6-.15.95-.07h2m8.04 0h4m8.04 0h4.02m8.03 0h4.02m8.03 0h4m8.04 0h4.02m8.03 0h4m8.04 0h4.03m8.03 0h4m8.05 0h4.02m8.03 0h4.02m8.03 0h4m8.04 0h4.02m8.03 0h4m8.04 0h4m8.04 0h4.02m8.03 0h4m8.04 0h4.02m8.02 0h4m8.05 0h4m8.04 0h4.03m8.03 0h4m8.04 0h4.02m8.03 0h4.02m8.03 0h4m8.04 0h4.02m8.03 0h4m8.03 0h4.02m8.03 0h4m8.05 0h4m8.04 0h4.02m8.02 0h4m8.04 0h4.02m8.03 0h4.02m8.04 0h4m8.04 0h4.02m8.03 0h4m8.04 0h4m8.04 0h4m8.04 0h4.02m8.03 0h4.02m8.03 0h4m8.04 0h4.02m8.03 0h4m8.04 0h4.03m8.03 0h4.02m8.03 0h4.02m8.03 0h4.02m8.03 0h4m8.04 0h4.02m8.03 0h4m8.04 0h4m8.04 0h4.02m8.03 0h4m8.04 0h4.02m8.02 0h4.02m8.03 0h4m8.04 0h4.03m8.03 0h4m8.04 0h4.02m8.03 0h4.02m8.03 0h4m8.04 0h4.02m8.03 0h4m8.03 0h4.02m8.03 0h4.02m8.03 0h4m8.04 0h4.02m8.02 0h4m8.05 0h4m8.04 0h4.03m8.03 0h4m8.04 0h4.02m8.03 0h4m8.05 0h4m8.04 0h4.02m8.03 0h4m8.03 0h4.02m8.03 0h4m8.05 0h4m8.04 0h4.02m8.02 0h4m8.04 0h4.02m8.03 0h4.02m8.03 0h4.02m8.03 0h4.02m8.03 0h4m8.04 0h2l.94-.07.6-.15m4.24-4.23l.15-.6.07-.95v-2.03m0-8.1v-4.06m0-8.1v-4.04m0-8.1v-4.06m0-8.1v-4.06m0-8.1v-4.06m0-8.1V379m0-8.1v-4.06m0-8.1v-4.06m0-8.1v-4.06m0-8.1v-4.06m0-8.1v-4.05m0-8.1v-4.06m0-8.1v-4.06m0-8.1v-4.05m0-8.1v-4.06m0-8.12v-4.05m0-8.1v-4.06m0-8.1v-4.06m0-8.1v-4.04m0-8.1v-2.04" stroke="#3a414a" stroke-width="2" fill="none"/><path d="M460.98 501h-1.96v-1.03h1.96z" stroke="#3a414a" stroke-width=".05" fill="#3a414a"/><path d="M1510 228.33l10-17.33 10 17.33M740 498v-1.78m0-7.1v-3.56m0-7.12v-3.55m0-7.12V466l.07-.94.15-.6m4.23-4.24l.6-.15.95-.07h2m8 0h4m8 0h4m8 0h4m8 0h4m8 0h4m8 0h4m8 0h4m8 0h4m8 0h4m8 0h4m8 0h4m8 0h4m8 0h4m8 0h4m8 0h4m8 0h4m8 0h4m8 0h4m8 0h4m8 0h4m8 0h4m8 0h4m8 0h4m8 0h4m8 0h4m8 0h4m8 0h4m8 0h4m8 0h4m8 0h4m8 0h4m8 0h4m8 0h4m8 0h4m8 0h4m8 0h4m8 0h4m8 0h4m8 0h4m8 0h4m8 0h4m8 0h4m8 0h4m8 0h4m8 0h4m8 0h4m8 0h4m8 0h4m8 0h4m8 0h4m8 0h4m8 0h4m8 0h4m8 0h4m8 0h4m8 0h4m8 0h4m8 0h4m8 0h4m8 0h4m8 0h4m8 0h4m8 0h4m8 0h2l.94-.07.6-.15m4.24-4.23l.15-.6.07-.95v-2.03m0-8.1v-4.06m0-8.1v-4.04m0-8.1v-4.06m0-8.1v-4.06m0-8.1v-4.06m0-8.1V379m0-8.1v-4.06m0-8.1v-4.06m0-8.1v-4.06m0-8.1v-4.06m0-8.1v-4.05m0-8.1v-4.06m0-8.1v-4.06m0-8.1v-4.05m0-8.1v-4.06m0-8.12v-4.05m0-8.1v-4.06m0-8.1v-4.06m0-8.1v-4.04m0-8.1v-2.04" stroke="#3a414a" stroke-width="2" fill="none"/><path d="M740.98 499H739v-1.03H741z" stroke="#3a414a" stroke-width=".05" fill="#3a414a"/><path d="M1510 228.33l10-17.33 10 17.33" stroke="#3a414a" stroke-width="2" fill="none"/><path d="M1269.44 315.2a7.83 7.83 0 0 0 7.56 5.8h77a6 6 0 0 1 6 6v72a6 6 0 0 1-6 6h-228a6 6 0 0 1-6-6v-98a6 6 0 0 1 6-6h132a7.83 7.83 0 0 1 7.56 5.8zM1120 321h151" stroke="#3a414a" stroke-width="2" fill="#fff"/><path d="M1120 341a6 6 0 0 1 6-6h228a6 6 0 0 1 6 6v48a6 6 0 0 1-6 6h-228a6 6 0 0 1-6-6z" fill="none"/><use xlink:href="#m" transform="matrix(1,0,0,1,1120,335) translate(65.79861111111111 42.93402777777778)"/><path d="M969.44 315.2A7.83 7.83 0 0 0 977 321h77a6 6 0 0 1 6 6v72a6 6 0 0 1-6 6H826a6 6 0 0 1-6-6v-98a6 6 0 0 1 6-6h132a7.83 7.83 0 0 1 7.56 5.8zM820 321h151" stroke="#3a414a" stroke-width="2" fill="#fff"/><path d="M820 341a6 6 0 0 1 6-6h228a6 6 0 0 1 6 6v48a6 6 0 0 1-6 6H826a6 6 0 0 1-6-6z" fill="none"/><use xlink:href="#n" transform="matrix(1,0,0,1,820,335) translate(77.97743055555554 42.93402777777778)"/><path d="M1020 498v-1.78m0-7.1v-3.56m0-7.12v-3.55m0-7.12V466l.07-.94.15-.6m4.23-4.24l.6-.15.95-.07h1.98m7.94 0h3.97m7.92 0h3.97m7.92 0h3.97m7.93 0h3.96m7.93 0h3.97m7.93 0h3.97m7.93 0h3.97m7.94 0h3.96m7.94 0h3.97m7.94 0h3.97m7.94 0h3.97m7.95 0h3.96m7.95 0h3.96m7.95 0h3.97m7.93 0h3.97m7.93 0h3.97m7.94 0h3.97m7.93 0h3.97m7.93 0h3.97m7.93 0h3.97m7.94 0h3.96m7.94 0h3.97m7.93 0h3.97m7.93 0h3.97m7.94 0h3.97m7.93 0h3.97m7.93 0h3.97m7.94 0h3.95m7.94 0h3.95m7.94 0h3.96m7.93 0h3.96m7.93 0h3.96m7.94 0h3.96m7.94 0h3.97m7.93 0h3.97m7.93 0h3.97m7.94 0h3.97m7.94 0h3.98m7.93 0h3.98m7.93 0h3.98m7.94 0h1.98l.94-.07.6-.15m4.24-4.23l.15-.6.07-.95v-2.03m0-8.1v-4.06m0-8.1v-4.04m0-8.1v-4.06m0-8.1v-4.06m0-8.1v-4.06m0-8.1V379m0-8.1v-4.06m0-8.1v-4.06m0-8.1v-4.06m0-8.1v-4.06m0-8.1v-4.05m0-8.1v-4.06m0-8.1v-4.06m0-8.1v-4.05m0-8.1v-4.06m0-8.12v-4.05m0-8.1v-4.06m0-8.1v-4.06m0-8.1v-4.04m0-8.1v-2.04" stroke="#3a414a" stroke-width="2" fill="none"/><path d="M1020.98 499H1019v-1.03h1.96z" stroke="#3a414a" stroke-width=".05" fill="#3a414a"/><path d="M1510 228.33l10-17.33 10 17.33M1300 501v-1.95m0-7.78v-3.9m0-7.76v-3.88m0-7.78V466l.07-.94.15-.6m4.23-4.24l.6-.15.95-.07h2.04m8.16 0h4.08m8.15 0h4.08m8.17 0h4.07m8.16 0h4.08m8.16 0h4.08m8.15 0h4.08m8.16 0h4.1m8.14 0h4.08m8.16 0h4.08m8.15 0h4.1m8.15 0h4.08m8.15 0h4.08m8.16 0h4.08m8.16 0h4.07m8.16 0h4.07m8.15 0h4.08m8.16 0h2.04l.94-.07.6-.15m4.24-4.23l.15-.6.07-.95v-2.03m0-8.1v-4.06m0-8.1v-4.04m0-8.1v-4.06m0-8.1v-4.06m0-8.1v-4.06m0-8.1V379m0-8.1v-4.06m0-8.1v-4.06m0-8.1v-4.06m0-8.1v-4.06m0-8.1v-4.05m0-8.1v-4.06m0-8.1v-4.06m0-8.1v-4.05m0-8.1v-4.06m0-8.12v-4.05m0-8.1v-4.06m0-8.1v-4.06m0-8.1v-4.04m0-8.1v-2.04" stroke="#3a414a" stroke-width="2" fill="none"/><path d="M1300.97 502h-1.94v-1.03h1.94z" stroke="#3a414a" stroke-width=".05" fill="#3a414a"/><path d="M1510 228.33l10-17.33 10 17.33M1620 501v-1.95m0-7.78v-3.9m0-7.76v-3.88m0-7.78V466l-.07-.94-.15-.6m-4.23-4.24l-.6-.15-.95-.07h-2.1m-8.38 0h-4.2m-8.37 0h-4.2m-8.37 0h-4.2m-8.37 0h-4.18m-8.38 0h-4.2m-8.37 0h-4.2m-8.38 0h-2.1l-.94-.07-.6-.15m-4.24-4.23l-.15-.6-.07-.95v-2.03m0-8.1v-4.06m0-8.1v-4.04m0-8.1v-4.06m0-8.1v-4.06m0-8.1v-4.06m0-8.1V379m0-8.1v-4.06m0-8.1v-4.06m0-8.1v-4.06m0-8.1v-4.06m0-8.1v-4.05m0-8.1v-4.06m0-8.1v-4.06m0-8.1v-4.05m0-8.1v-4.06m0-8.12v-4.05m0-8.1v-4.06m0-8.1v-4.06m0-8.1v-4.04m0-8.1v-2.04" stroke="#3a414a" stroke-width="2" fill="none"/><path d="M1620.97 502h-1.94v-1.03h1.94z" stroke="#3a414a" stroke-width=".05" fill="#3a414a"/><path d="M1510 228.33l10-17.33 10 17.33" stroke="#3a414a" stroke-width="2" fill="none"/><path d="M489.44 762.2A7.83 7.83 0 0 0 497 768h77a6 6 0 0 1 6 6v72a6 6 0 0 1-6 6H346a6 6 0 0 1-6-6v-98a6 6 0 0 1 6-6h132a7.83 7.83 0 0 1 7.56 5.8zM340 768h151" stroke="#3a414a" stroke-width="2" fill="#fff"/><path d="M340 788a6 6 0 0 1 6-6h228a6 6 0 0 1 6 6v48a6 6 0 0 1-6 6H346a6 6 0 0 1-6-6z" fill="none"/><use xlink:href="#o" transform="matrix(1,0,0,1,340,781.994911881091) translate(76.42361111111111 42.93402777777778)"/><path d="M769.44 760.2A7.83 7.83 0 0 0 777 766h77a6 6 0 0 1 6 6v72a6 6 0 0 1-6 6H626a6 6 0 0 1-6-6v-98a6 6 0 0 1 6-6h132a7.83 7.83 0 0 1 7.56 5.8zM620 766h151" stroke="#3a414a" stroke-width="2" fill="#cfe4ff"/><path d="M620 786a6 6 0 0 1 6-6h228a6 6 0 0 1 6 6v48a6 6 0 0 1-6 6H626a6 6 0 0 1-6-6z" fill="none"/><use xlink:href="#p" transform="matrix(1,0,0,1,620,780) translate(34.65277777777777 42.93402777777778)"/><path d="M1049.44 760.2a7.83 7.83 0 0 0 7.56 5.8h77a6 6 0 0 1 6 6v72a6 6 0 0 1-6 6H906a6 6 0 0 1-6-6v-98a6 6 0 0 1 6-6h132a7.83 7.83 0 0 1 7.56 5.8zM900 766h151" stroke="#3a414a" stroke-width="2" fill="#fff"/><path d="M900 787a6 6 0 0 1 6-6h228a6 6 0 0 1 6 6v48a6 6 0 0 1-6 6H906a6 6 0 0 1-6-6z" fill="none"/><use xlink:href="#q" transform="matrix(1,0,0,1,900,780.9974559405455) translate(63.44618055555556 42.93402777777778)"/><path d="M1329.44 763.2a7.83 7.83 0 0 0 7.56 5.8h77a6 6 0 0 1 6 6v72a6 6 0 0 1-6 6h-228a6 6 0 0 1-6-6v-98a6 6 0 0 1 6-6h132a7.83 7.83 0 0 1 7.56 5.8zM1180 769h151" stroke="#3a414a" stroke-width="2" fill="#fff"/><path d="M1180 789a6 6 0 0 1 6-6h228a6 6 0 0 1 6 6v48a6 6 0 0 1-6 6h-228a6 6 0 0 1-6-6z" fill="none"/><use xlink:href="#r" transform="matrix(1,0,0,1,1180,782.9923678216367) translate(42.5 42.93402777777778)"/><path d="M1649.44 761.2a7.83 7.83 0 0 0 7.56 5.8h77a6 6 0 0 1 6 6v72a6 6 0 0 1-6 6h-228a6 6 0 0 1-6-6v-98a6 6 0 0 1 6-6h132a7.83 7.83 0 0 1 7.56 5.8zM1500 767h151" stroke="#3a414a" stroke-width="2" fill="#fff"/><path d="M1500 787a6 6 0 0 1 6-6h228a6 6 0 0 1 6 6v48a6 6 0 0 1-6 6h-228a6 6 0 0 1-6-6z" fill="none"/><use xlink:href="#s" transform="matrix(1,0,0,1,1500,780.9974559405455) translate(82.69965277777777 42.93402777777778)"/><path d="M460 740v-1.84m0-7.33v-3.67m0-7.33v-3.67m0-7.33V707l.07-.94.15-.6m4.23-4.25l.6-.13.95-.08h2m8 0h4m8 0h4m8 0h4m8 0h4m8 0h4m8 0h4m8 0h4m8 0h4m8 0h4m8 0h4m8 0h4m8 0h4m8 0h4m8 0h4m8 0h4m8 0h4m8 0h4m8 0h4m8 0h4m8 0h4m8 0h4m8 0h4m8 0h4m8 0h4m8 0h4m8 0h4m8 0h4m8 0h4m8 0h4m8 0h4m8 0h4m8 0h4m8 0h4m8 0h4m8 0h4m8 0h4m8 0h4m8 0h4m8 0h4m8 0h4m8 0h4m8 0h4m8 0h4m8 0h4m8 0h4m8 0h4m8 0h4m8 0h4m8 0h4m8 0h4m8 0h4m8 0h4m8 0h4m8 0h4m8 0h4m8 0h4m8 0h4m8 0h4m8 0h4m8 0h4m8 0h4m8 0h4m8 0h4m8 0h4m8 0h4m8 0h4m8 0h4m8 0h4m8 0h4m8 0h4m8 0h4m8 0h4m8 0h4m8 0h4m8 0h4m8 0h4m8 0h4m8 0h4m8 0h4m8 0h4m8 0h4m8 0h4m8 0h4m8 0h4m8 0h4m8 0h4m8 0h4m8 0h4m8 0h4m8 0h4m8 0h4m8 0h4m8 0h4m8 0h4m8 0h4m8 0h4m8 0h4m8 0h4m8 0h4m8 0h4m8 0h4m8 0h4m8 0h4m8 0h4m8 0h4m8 0h4m8 0h4m8 0h4m8 0h2l.94-.08.6-.14m4.24-4.24l.15-.6.07-.95v-2m0-7.96v-3.98m0-7.96v-4m0-7.95v-3.98m0-7.97v-3.98m0-7.96v-3.98m0-7.97v-3.97m0-7.96v-4m0-7.95v-3.98m0-7.96v-4m0-7.95v-3.98m0-7.96v-4m0-7.96v-3.98m0-7.97v-4m0-7.95v-3.98m0-7.97v-3.98m0-7.96v-4m0-7.95v-3.97m0-7.96v-4m0-7.95v-3.98m0-7.97v-3.98m0-7.97v-3.98m0-7.97v-3.98m0-7.96v-3.98m0-7.97v-4m0-7.95v-3.98m0-7.97v-3.98m0-7.96v-3.98m0-7.97v-3.97m0-7.96v-4m0-7.95v-3.98m0-7.97v-3.98m0-7.97v-3.98m0-7.97v-3.98m0-7.96v-3.98m0-7.97v-4m0-7.95v-4m0-7.95v-2l.07-.93.15-.6m4.23-4.24l.6-.15.95-.07h2m8 0h4m8 0h4m8 0h4m8 0h4m8 0h4m8 0h4m8 0h4m8 0h4m8 0h4m8 0h4m8 0h4m8 0h4m8 0h4m8 0h4m8 0h4m8 0h4m8 0h4m8 0h4m8 0h4m8 0h4m8 0h4m8 0h4m8 0h4m8 0h2l.94-.06.6-.15m4.24-4.24l.15-.6.07-.95v-1.78m0-7.15v-3.57m0-7.16v-3.57m0-7.15v-1.8" stroke="#3a414a" stroke-width="2" fill="none"/><path d="M460.98 741h-1.96v-1.03h1.96z" stroke="#3a414a" stroke-width=".05" fill="#3a414a"/><path d="M2070 226.33l10-17.32 10 17.33M740 738v-1.72m0-6.9v-3.44m0-6.9v-3.43m0-6.88V707l.07-.94.15-.6m4.23-4.25l.6-.13.95-.08h2m7.96 0h4m7.95 0h4m7.97 0h3.98m7.97 0h4m7.95 0h4m7.96 0h3.98m7.98 0h4m7.96 0h3.98m7.97 0h3.97m7.97 0h4m7.96 0h3.98m7.97 0h3.98m7.97 0h4m7.96 0h3.98m7.97 0h4m7.96 0h4m7.96 0h3.98m7.97 0h4m7.95 0h4m7.96 0h3.98m7.97 0h4m7.95 0h4m7.96 0h3.98m7.97 0h3.98m7.96 0h4m7.96 0h3.98m7.97 0h4m7.95 0h4m7.96 0h3.98m7.97 0h4m7.97 0h3.98m7.97 0h3.98m7.97 0h4m7.96 0h3.98m7.98 0h3.98m7.97 0h4m7.96 0h3.97m7.97 0h3.98m7.97 0h3.98m7.97 0h3.98m7.97 0h4m7.95 0h4m7.96 0h4m7.96 0h4m7.95 0h4m7.97 0h3.98m7.97 0h4m7.96 0h3.98m7.97 0h3.98m7.98 0h4m7.96 0h3.98m7.97 0h3.97m7.97 0h4m7.96 0h3.98m7.97 0h3.98m7.97 0h4m7.96 0h3.98m7.97 0h4m7.96 0h4m7.96 0h3.98m7.97 0h3.98m7.97 0h4m7.96 0h3.98m7.97 0h4m7.95 0h4m7.96 0h3.98m7.97 0h3.98m7.96 0h4m7.96 0h3.98m7.97 0h4m7.95 0h4m7.96 0h3.98m7.97 0h4m7.97 0h3.98m7.97 0h3.98m7.97 0h4m7.96 0h3.98m7.98 0h3.98m7.97 0h4m7.96 0h3.97m7.97 0h3.98m7.97 0h3.98m7.97 0h3.98m7.97 0h4m7.95 0h4m7.96 0h2l.94-.08.6-.14m4.24-4.24l.15-.6.07-.95v-2m0-7.96v-3.98m0-7.96v-4m0-7.95v-3.98m0-7.97v-3.98m0-7.96v-3.98m0-7.97v-3.97m0-7.96v-4m0-7.95v-3.98m0-7.96v-4m0-7.95v-3.98m0-7.96v-4m0-7.96v-3.98m0-7.97v-4m0-7.95v-3.98m0-7.97v-3.98m0-7.96v-4m0-7.95v-3.97m0-7.96v-4m0-7.95v-3.98m0-7.97v-3.98m0-7.97v-3.98m0-7.97v-3.98m0-7.96v-3.98m0-7.97v-4m0-7.95v-3.98m0-7.97v-3.98m0-7.96v-3.98m0-7.97v-3.97m0-7.96v-4m0-7.95v-3.98m0-7.97v-3.98m0-7.97v-3.98m0-7.97v-3.98m0-7.96v-3.98m0-7.97v-4m0-7.95v-4m0-7.95v-2l.07-.93.15-.6m4.23-4.24l.6-.15.95-.07h2m8 0h4m8 0h4m8 0h4m8 0h4m8 0h4m8 0h4m8 0h4m8 0h4m8 0h4m8 0h4m8 0h4m8 0h4m8 0h4m8 0h4m8 0h4m8 0h4m8 0h4m8 0h4m8 0h4m8 0h4m8 0h4m8 0h4m8 0h4m8 0h2l.94-.06.6-.15m4.24-4.24l.15-.6.07-.95v-1.78m0-7.15v-3.57m0-7.16v-3.57m0-7.15v-1.8" stroke="#3a414a" stroke-width="2" fill="none"/><path d="M740.98 739H739v-1.03H741z" stroke="#3a414a" stroke-width=".05" fill="#3a414a"/><path d="M2070 226.33l10-17.32 10 17.33M1020 738v-1.78m0-7.1v-3.57m0-7.1v-3.56m0-7.13V706l.07-.94.15-.6m4.23-4.24l.6-.15.95-.07h2m8.05 0h4.03m8.04 0h4.02m8.04 0h4.02m8.05 0h4.02m8.04 0h4.03m8.05 0h4.02m8.04 0h4.02m8.05 0h4.03m8.04 0h4.02m8.03 0h4.03m8.04 0h4.02m8.04 0h4.03m8.03 0h4.02m8.04 0h4m8.06 0h4.02m8.04 0h4.02m8.05 0h4m8.05 0h4.02m8.04 0h4.04m8.04 0h4.02m8.04 0h4.03m8.04 0h4.03m8.04 0h4.02m8.04 0h4.02m8.04 0h4.02m8.05 0h4.02m8.03 0h4.02m8.05 0h4.02m8.04 0h4.02m8.04 0h4.03m8.04 0h4m8.05 0h4.03m8.04 0h4.02m8.04 0h4.02m8.05 0h4.02m8.04 0h4.03m8.05 0h4.02m8.04 0h4.02m8.05 0h4.03m8.04 0h4.02m8.03 0h4.03m8.04 0h4.02m8.04 0h4.03m8.03 0h4.02m8.04 0h4m8.06 0h4.02m8.04 0h4.02m8.05 0h4m8.05 0h4.02m8.04 0h4.04m8.04 0h4.02m8.04 0h4.03m8.04 0h4.03m8.04 0h4.02m8.04 0h4.02m8.04 0h4.02m8.05 0h4.02m8.03 0h4.02m8.05 0h4.02m8.04 0h4.02m8.04 0h4.03m8.04 0h2l.94-.08.6-.14m4.24-4.23l.15-.6.07-.95v-2m0-7.93v-3.98m0-7.95v-3.98m0-7.94v-3.98m0-7.94v-3.96m0-7.95v-3.98m0-7.95v-3.97m0-7.95v-3.97m0-7.95v-3.97m0-7.94v-3.98m0-7.94v-3.97m0-7.95v-3.97m0-7.94V549m0-7.96v-3.97m0-7.95v-3.97m0-7.94v-3.97m0-7.94v-4m0-7.93v-3.98m0-7.95v-3.97m0-7.95v-3.97m0-7.95v-3.96m0-7.95v-3.98m0-7.95v-3.97m0-7.94v-3.98m0-7.94v-3.98m0-7.94v-3.97m0-7.95v-3.97m0-7.95v-3.97m0-7.94v-3.97m0-7.95v-3.98m0-7.94v-3.98m0-7.94v-3.96m0-7.95v-3.98m0-7.95v-3.97m0-7.95v-3.97m0-7.95v-3.97m0-7.94v-3.98m0-7.94v-2l.07-.93.15-.6m4.23-4.24l.6-.15.95-.07h2m8 0h4m8 0h4m8 0h4m8 0h4m8 0h4m8 0h4m8 0h4m8 0h4m8 0h4m8 0h4m8 0h4m8 0h4m8 0h4m8 0h4m8 0h4m8 0h4m8 0h4m8 0h4m8 0h4m8 0h4m8 0h4m8 0h4m8 0h4m8 0h2l.94-.06.6-.15m4.24-4.24l.15-.6.07-.95v-1.78m0-7.15v-3.57m0-7.16v-3.57m0-7.15v-1.8" stroke="#3a414a" stroke-width="2" fill="none"/><path d="M1020.98 739H1019v-1.03h1.96z" stroke="#3a414a" stroke-width=".05" fill="#3a414a"/><path d="M2070 226.33l10-17.32 10 17.33M1300 741v-2m0-8v-4m0-8v-4m0-8v-2l.07-.94.15-.6m4.23-4.24l.6-.15.95-.07h2m8 0h4m8 0h4m8 0h4m8 0h4m8 0h4m8 0h4m8 0h4m8 0h4m8 0h4m8 0h4m8 0h4m8 0h4m8 0h4m8 0h4m8 0h4m8 0h4m8 0h4m8 0h4m8 0h4m8 0h4m8 0h4m8 0h4m8 0h4m8 0h4m8 0h4m8 0h4m8 0h4m8 0h4m8 0h4m8 0h4m8 0h4m8 0h4m8 0h4m8 0h4m8 0h4m8 0h4m8 0h4m8 0h4m8 0h2l.94-.07.6-.15m4.24-4.23l.15-.6.07-.95v-1.98m0-7.93v-3.97m0-7.93v-3.97m0-7.92v-3.96m0-7.93v-3.95m0-7.93v-3.96m0-7.93v-3.96m0-7.93v-3.96m0-7.93v-3.97m0-7.92V584m0-7.93v-3.97m0-7.93v-3.96m0-7.92v-3.96m0-7.93v-3.97m0-7.93v-3.97m0-7.92v-3.96m0-7.92v-3.97m0-7.93v-3.96m0-7.93v-3.96m0-7.93v-3.96m0-7.93v-3.96m0-7.94v-3.97m0-7.93v-3.97m0-7.92v-3.97m0-7.92v-3.96m0-7.93v-3.97m0-7.93v-3.96m0-7.93v-3.96m0-7.92v-3.97m0-7.93v-3.96m0-7.93v-3.96m0-7.93v-3.96m0-7.93v-3.96m0-7.94v-3.96m0-7.93v-3.97m0-7.93v-3.96m0-7.92v-3.96m0-7.93v-2l.07-.93.15-.6m4.23-4.24l.6-.15.95-.07h2m8 0h4m8 0h4m8 0h4m8 0h4m8 0h4m8 0h4m8 0h4m8 0h4m8 0h4m8 0h4m8 0h4m8 0h4m8 0h4m8 0h4m8 0h4m8 0h4m8 0h4m8 0h4m8 0h4m8 0h4m8 0h4m8 0h4m8 0h4m8 0h2l.94-.06.6-.15m4.24-4.24l.15-.6.07-.95v-1.78m0-7.15v-3.57m0-7.16v-3.57m0-7.15v-1.8" stroke="#3a414a" stroke-width="2" fill="none"/><path d="M1300.97 742h-1.94v-1.03h1.94z" stroke="#3a414a" stroke-width=".05" fill="#3a414a"/><path d="M2070 226.33l10-17.32 10 17.33M1620 739v-1.84m0-7.33v-3.67m0-7.33v-3.67m0-7.33V706l.07-.94.15-.6m4.23-4.24l.6-.15.95-.07h2.06m8.22 0h4.1m8.23 0h4.12m8.22 0h4.12m8.22 0h4.1m8.23 0h4.12m8.22 0h4.12m8.22 0h4.1m8.23 0h4.12m8.22 0h4.12m8.22 0h4.1m8.23 0h4.12m8.22 0h2.06l.94-.08.6-.14m4.24-4.23l.15-.6.07-.95v-2m0-7.93v-3.98m0-7.95v-3.98m0-7.94v-3.98m0-7.94v-3.96m0-7.95v-3.98m0-7.95v-3.97m0-7.95v-3.97m0-7.95v-3.97m0-7.94v-3.98m0-7.94v-3.97m0-7.95v-3.97m0-7.94V549m0-7.96v-3.97m0-7.95v-3.97m0-7.94v-3.97m0-7.94v-4m0-7.93v-3.98m0-7.95v-3.97m0-7.95v-3.97m0-7.95v-3.96m0-7.95v-3.98m0-7.95v-3.97m0-7.94v-3.98m0-7.94v-3.98m0-7.94v-3.97m0-7.95v-3.97m0-7.95v-3.97m0-7.94v-3.97m0-7.95v-3.98m0-7.94v-3.98m0-7.94v-3.96m0-7.95v-3.98m0-7.95v-3.97m0-7.95v-3.97m0-7.95v-3.97m0-7.94v-3.98m0-7.94v-2l.07-.93.15-.6m4.23-4.24l.6-.15.95-.07h2m8 0h4m8 0h4m8 0h4m8 0h4m8 0h4m8 0h4m8 0h4m8 0h4m8 0h4m8 0h4m8 0h4m8 0h4m8 0h4m8 0h4m8 0h4m8 0h4m8 0h4m8 0h4m8 0h4m8 0h4m8 0h4m8 0h4m8 0h4m8 0h2l.94-.06.6-.15m4.24-4.24l.15-.6.07-.95v-1.78m0-7.15v-3.57m0-7.16v-3.57m0-7.15v-1.8" stroke="#3a414a" stroke-width="2" fill="none"/><path d="M1620.97 740h-1.94v-1.03h1.94z" stroke="#3a414a" stroke-width=".05" fill="#3a414a"/><path d="M2070 226.33l10-17.32 10 17.33" stroke="#3a414a" stroke-width="2" fill="none"/><path d="M2389.44 335.2a7.83 7.83 0 0 0 7.56 5.8h77a6 6 0 0 1 6 6v72a6 6 0 0 1-6 6h-228a6 6 0 0 1-6-6v-98a6 6 0 0 1 6-6h132a7.83 7.83 0 0 1 7.56 5.8zM2240 341h151" stroke="#3a414a" stroke-width="2" fill="#fff"/><path d="M2240 361a6 6 0 0 1 6-6h228a6 6 0 0 1 6 6v48a6 6 0 0 1-6 6h-228a6 6 0 0 1-6-6z" fill="none"/><use xlink:href="#g" transform="matrix(1,0,0,1,2240,354.9975059405454) translate(85.67708333333333 42.93402777777778)"/><path d="M2729.44 335.2a7.83 7.83 0 0 0 7.56 5.8h77a6 6 0 0 1 6 6v72a6 6 0 0 1-6 6h-228a6 6 0 0 1-6-6v-98a6 6 0 0 1 6-6h132a7.83 7.83 0 0 1 7.56 5.8zM2580 341h151" stroke="#3a414a" stroke-width="2" fill="#cfe4ff"/><path d="M2580 361a6 6 0 0 1 6-6h228a6 6 0 0 1 6 6v48a6 6 0 0 1-6 6h-228a6 6 0 0 1-6-6z" fill="none"/><use xlink:href="#t" transform="matrix(1,0,0,1,2580,354.9975059405454) translate(81.11111111111111 42.93402777777778)"/><path d="M2360 313v-2.1m0-8.44v-4.22m0-8.43v-4.2m0-8.44v-4.2m0-8.44v-4.22m0-8.43v-4.22m0-8.43v-4.2m0-8.44v-4.22m0-8.43v-2.1" stroke="#3a414a" stroke-width="2" fill="none"/><path d="M2360.97 314h-1.94v-1.03h1.94z" stroke="#3a414a" stroke-width=".05" fill="#3a414a"/><path d="M2350 229.32l10-17.32 10 17.32M2700 313v-1.88m0-7.5v-3.75m0-7.5v-3.75m0-7.5v-3.75m0-7.5V268l-.07-.94-.15-.6m-4.23-4.24l-.6-.15-.95-.07h-2.03m-8.1 0h-4.04m-8.1 0h-4.05m-8.1 0h-4.05m-8.1 0h-4.05m-8.1 0h-4.05m-8.1 0h-4.04m-8.1 0h-4.06m-8.1 0h-4.05m-8.1 0h-4.06m-8.1 0h-4.05m-8.1 0h-4.05m-8.1 0h-4.05m-8.1 0h-4.05m-8.1 0h-4.05m-8.1 0h-4.05m-8.1 0h-4.05m-8.1 0h-4.04m-8.1 0h-4.05m-8.1 0h-4.04m-8.1 0H2449m-8.1 0h-4.04m-8.1 0h-4.04m-8.1 0h-4.05m-8.1 0h-4.05m-8.1 0h-4.05m-8.1 0h-4.05m-8.1 0H2366l-.94-.07-.6-.15m-4.24-4.23l-.15-.6-.07-.95v-1.84m0-7.36v-3.7m0-7.35v-3.68m0-7.36v-3.67m0-7.37v-1.84" stroke="#3a414a" stroke-width="2" fill="none"/><path d="M2700.97 314h-1.94v-1.03h1.94z" stroke="#3a414a" stroke-width=".05" fill="#3a414a"/><path d="M2350 229.32l10-17.32 10 17.32" stroke="#3a414a" stroke-width="2" fill="none"/><path d="M1969.44 525.2a7.83 7.83 0 0 0 7.56 5.8h77a6 6 0 0 1 6 6v72a6 6 0 0 1-6 6h-228a6 6 0 0 1-6-6v-98a6 6 0 0 1 6-6h132a7.83 7.83 0 0 1 7.56 5.78zM1820 531h151" stroke="#3a414a" stroke-width="2" fill="#fff"/><path d="M1820 551a6 6 0 0 1 6-6h228a6 6 0 0 1 6 6v48a6 6 0 0 1-6 6h-228a6 6 0 0 1-6-6z" fill="none"/><use xlink:href="#u" transform="matrix(1,0,0,1,1820,544.9872797027277) translate(46.875 42.93402777777778)"/><path d="M2249.44 523.2a7.83 7.83 0 0 0 7.56 5.8h77a6 6 0 0 1 6 6v72a6 6 0 0 1-6 6h-228a6 6 0 0 1-6-6v-98a6 6 0 0 1 6-6h132a7.83 7.83 0 0 1 7.56 5.8zM2100 529h151" stroke="#3a414a" stroke-width="2" fill="#cfe4ff"/><path d="M2100 549a6 6 0 0 1 6-6h228a6 6 0 0 1 6 6v48a6 6 0 0 1-6 6h-228a6 6 0 0 1-6-6z" fill="none"/><use xlink:href="#v" transform="matrix(1,0,0,1,2100,542.9923678216368) translate(15.668402777777771 42.93402777777778)"/><path d="M2529.44 523.2a7.83 7.83 0 0 0 7.56 5.8h77a6 6 0 0 1 6 6v72a6 6 0 0 1-6 6h-228a6 6 0 0 1-6-6v-98a6 6 0 0 1 6-6h132a7.83 7.83 0 0 1 7.56 5.8zM2380 529h151" stroke="#3a414a" stroke-width="2" fill="#fff"/><path d="M2380 550a6 6 0 0 1 6-6h228a6 6 0 0 1 6 6v48a6 6 0 0 1-6 6h-228a6 6 0 0 1-6-6z" fill="none"/><use xlink:href="#w" transform="matrix(1,0,0,1,2380,543.9898237621823) translate(83.55902777777777 42.93402777777778)"/><path d="M2809.44 526.2a7.83 7.83 0 0 0 7.56 5.78h77a6 6 0 0 1 6 6v72a6 6 0 0 1-6 6h-228a6 6 0 0 1-6-6v-98a6 6 0 0 1 6-6h132a7.83 7.83 0 0 1 7.56 5.8zM2660 531.97h151" stroke="#3a414a" stroke-width="2" fill="#fff"/><path d="M2660 552a6 6 0 0 1 6-6h228a6 6 0 0 1 6 6v48a6 6 0 0 1-6 6h-228a6 6 0 0 1-6-6z" fill="none"/><use xlink:href="#x" transform="matrix(1,0,0,1,2660,545.9847356432734) translate(77.69097222222223 42.93402777777778)"/><path d="M3089.44 524.2a7.83 7.83 0 0 0 7.56 5.8h77a6 6 0 0 1 6 6v72a6 6 0 0 1-6 6h-228a6 6 0 0 1-6-6v-98a6 6 0 0 1 6-6h132a7.83 7.83 0 0 1 7.56 5.78zM2940 530h151" stroke="#3a414a" stroke-width="2" fill="#fff"/><path d="M2940 550a6 6 0 0 1 6-6h228a6 6 0 0 1 6 6v48a6 6 0 0 1-6 6h-228a6 6 0 0 1-6-6z" fill="none"/><use xlink:href="#r" transform="matrix(1,0,0,1,2940,543.9898237621823) translate(42.5 42.93402777777778)"/><path d="M3369.44 523.2a7.83 7.83 0 0 0 7.56 5.8h77a6 6 0 0 1 6 6v72a6 6 0 0 1-6 6h-228a6 6 0 0 1-6-6v-98a6 6 0 0 1 6-6h132a7.83 7.83 0 0 1 7.56 5.8zM3220 529h151" stroke="#3a414a" stroke-width="2" fill="#fff"/><path d="M3220 549a6 6 0 0 1 6-6h228a6 6 0 0 1 6 6v48a6 6 0 0 1-6 6h-228a6 6 0 0 1-6-6z" fill="none"/><use xlink:href="#s" transform="matrix(1,0,0,1,3220,542.9923678216367) translate(82.69965277777777 42.93402777777778)"/><path d="M3649.44 523.2a7.83 7.83 0 0 0 7.56 5.8h77a6 6 0 0 1 6 6v72a6 6 0 0 1-6 6h-228a6 6 0 0 1-6-6v-98a6 6 0 0 1 6-6h132a7.83 7.83 0 0 1 7.56 5.8zM3500 529h151" stroke="#3a414a" stroke-width="2" fill="#fff"/><path d="M3500 549a6 6 0 0 1 6-6h228a6 6 0 0 1 6 6v48a6 6 0 0 1-6 6h-228a6 6 0 0 1-6-6z" fill="none"/><use xlink:href="#g" transform="matrix(1,0,0,1,3500,542.9923678216367) translate(85.67708333333333 42.93402777777778)"/><path d="M1940 503v-1.8m0-7.1v-3.56m0-7.1v-3.56m0-7.1v-1.8l.07-.93.15-.6m4.23-4.24l.6-.13.95-.08h2m8.05 0h4.03m8.04 0h4.02m8.04 0h4.02m8.05 0h4.02m8.04 0h4.03m8.05 0h4.02m8.04 0h4.02m8.05 0h4.03m8.04 0h4.02m8.03 0h4.03m8.04 0h4.02m8.04 0h4.02m8.05 0h4.02m8.04 0h4m8.06 0h4.02m8.04 0h4.02m8.05 0h4m8.05 0h4.02m8.05 0h4.02m8.04 0h4.02m8.04 0h4.03m8.04 0h4.03m8.04 0h4.03m8.04 0h4.02m8.04 0h4.02m8.05 0h4.02m8.03 0h4.02m8.05 0h4.02m8.04 0h4.02m8.05 0h4.02m8.04 0h4m8.05 0h4.02m8.05 0h4.02m8.04 0h4.02m8.05 0h4.02m8.04 0h4.03m8.05 0h4.02m8.04 0h4.02m8.05 0h4.03m8.04 0h4.02m8.03 0h4.03m8.04 0h4.02m8.04 0h4.02m8.05 0h4.02m8.04 0h4m8.06 0h4.02m8.04 0h4.02m8.05 0h4m8.05 0h4.02m8.05 0h4.02m8.04 0h4.02m8.04 0h4.03m8.04 0h4.03m8.04 0h4.03m8.04 0h4.02m8.04 0h4.02m8.05 0h4.02m8.03 0h4.02m8.05 0h4.02m8.04 0h4.02m8.05 0h4.02m8.04 0h2l.94-.08.6-.15m4.24-4.23l.15-.6.07-.95v-1.74m0-6.93v-3.46m0-6.93v-3.46m0-6.93v-1.73" stroke="#3a414a" stroke-width="2" fill="none"/><path d="M1940.97 504h-1.94v-1.04h1.94z" stroke="#3a414a" stroke-width=".05" fill="#3a414a"/><path d="M2690 445.32l10-17.32 10 17.32M2220 501v-1.73m0-6.9v-3.43m0-6.9v-3.44m0-6.88V470l.07-.94.15-.6m4.23-4.25l.6-.13.95-.07h2m8 0h4m8 0h4m8 0h4m8 0h4m8 0h4m8 0h4m8 0h4m8 0h4m8 0h4m8 0h4m8 0h4m8 0h4m8 0h4m8 0h4m8 0h4m8 0h4m8 0h4m8 0h4m8 0h4m8 0h4m8 0h4m8 0h4m8 0h4m8 0h4m8 0h4m8 0h4m8 0h4m8 0h4m8 0h4m8 0h4m8 0h4m8 0h4m8 0h4m8 0h4m8 0h4m8 0h4m8 0h4m8 0h4m8 0h2l.94-.08.6-.15m4.24-4.23l.15-.6.07-.94v-1.68m0-6.7v-3.36m0-6.7v-3.36m0-6.7v-1.68" stroke="#3a414a" stroke-width="2" fill="none"/><path d="M2220.97 502h-1.94v-1.03h1.94z" stroke="#3a414a" stroke-width=".05" fill="#3a414a"/><path d="M2690 445.32l10-17.32 10 17.32M2500 501v-1.73m0-6.9v-3.43m0-6.9v-3.44m0-6.88V470l.07-.94.15-.6m4.23-4.25l.6-.13.95-.07h1.96m7.83 0h3.9m7.84 0h3.92m7.83 0h3.9m7.84 0h3.92m7.83 0h3.9m7.84 0h3.92m7.83 0h3.9m7.84 0h3.92m7.83 0h3.9m7.84 0h3.92m7.83 0h3.9m7.84 0h3.92m7.83 0h3.9m7.84 0h3.92m7.83 0h3.9m7.84 0h1.96l.94-.08.6-.15m4.24-4.23l.15-.6.07-.94v-1.68m0-6.7v-3.36m0-6.7v-3.36m0-6.7v-1.68" stroke="#3a414a" stroke-width="2" fill="none"/><path d="M2500.97 502h-1.94v-1.03h1.94z" stroke="#3a414a" stroke-width=".05" fill="#3a414a"/><path d="M2690 445.32l10-17.32 10 17.32M2780 504v-1.82m0-7.22v-3.6m0-7.23v-3.6m0-7.23v-1.8l-.07-.95-.15-.6m-4.23-4.24l-.6-.13-.95-.08h-1.9m-7.54 0h-3.78m-7.56 0h-3.78m-7.55 0h-3.8m-7.54 0h-3.78m-7.56 0h-3.78m-7.55 0h-1.9l-.94-.08-.6-.15m-4.24-4.23l-.15-.6-.07-.95v-1.77m0-7.04v-3.53m0-7.04v-3.52m0-7.03v-1.75" stroke="#3a414a" stroke-width="2" fill="none"/><path d="M2780.97 505h-1.94v-1.04h1.94z" stroke="#3a414a" stroke-width=".05" fill="#3a414a"/><path d="M2690 445.32l10-17.32 10 17.32M3060 502v-1.76m0-7v-3.5m0-7v-3.5m0-7v-1.75l-.07-.94-.15-.62m-4.23-4.23l-.6-.13-.95-.08h-2m-8 0h-4m-8 0h-4m-8 0h-4m-8 0h-4m-8 0h-4m-8 0h-4m-8 0h-4m-8 0h-4m-8 0h-4m-8 0h-4m-8 0h-4m-8 0h-4m-8 0h-4m-8 0h-4m-8 0h-4m-8 0h-4m-8 0h-4m-8 0h-4m-8 0h-4m-8 0h-4m-8 0h-4m-8 0h-4m-8 0h-4m-8 0h-4m-8 0h-4m-8 0h-4m-8 0h-4m-8 0h-4m-8 0h-2l-.94-.08-.6-.15m-4.24-4.23l-.15-.6-.07-.95v-1.7m0-6.83v-3.4m0-6.82v-3.4m0-6.83v-1.7" stroke="#3a414a" stroke-width="2" fill="none"/><path d="M3060.97 503h-1.94v-1.04h1.94z" stroke="#3a414a" stroke-width=".05" fill="#3a414a"/><path d="M2690 445.32l10-17.32 10 17.32M3340 501v-1.73m0-6.9v-3.43m0-6.9v-3.44m0-6.88V470l-.07-.94-.15-.6m-4.23-4.25l-.6-.13-.95-.07h-2m-8.06 0h-4.03m-8.04 0h-4.03m-8.05 0h-4.02m-8.06 0h-4.02m-8.05 0h-4.03m-8.05 0h-4.02m-8.06 0h-4.02m-8.05 0h-4.03m-8.05 0h-4.03m-8.06 0h-4.02m-8.05 0h-4.03m-8.05 0h-4.04m-8.05 0h-4m-8.06 0h-4.03m-8.04 0h-4.03m-8.05 0h-4.02m-8.06 0h-4.02m-8.05 0h-4.03m-8.05 0h-4.02m-8.06 0h-4.02m-8.05 0h-4.03m-8.05 0h-4.03m-8.06 0h-4.02m-8.05 0h-4.03m-8.05 0h-4.04m-8.05 0h-4m-8.06 0h-4.03m-8.04 0h-4.03m-8.05 0h-4.02m-8.06 0h-4.02m-8.05 0h-4.03m-8.05 0h-4.02m-8.06 0h-4.02m-8.05 0h-4.03m-8.05 0h-4.03m-8.06 0h-4.02m-8.05 0h-4.03m-8.05 0h-4.04m-8.05 0h-4m-8.06 0h-4.03m-8.04 0h-4.03m-8.05 0h-4.02m-8.06 0h-4.02m-8.05 0h-4.03m-8.05 0h-4.02m-8.06 0h-4.02m-8.05 0h-4.03m-8.05 0h-4.03m-8.06 0h-4.02m-8.05 0h-4.03m-8.05 0h-4.04m-8.05 0h-2l-.94-.08-.6-.15m-4.24-4.23l-.15-.6-.07-.94v-1.68m0-6.7v-3.36m0-6.7v-3.36m0-6.7v-1.68" stroke="#3a414a" stroke-width="2" fill="none"/><path d="M3340.97 502h-1.94v-1.03h1.94z" stroke="#3a414a" stroke-width=".05" fill="#3a414a"/><path d="M2690 445.32l10-17.32 10 17.32M3620 501v-1.73m0-6.9v-3.43m0-6.9v-3.44m0-6.88V470l-.07-.94-.15-.6m-4.23-4.25l-.6-.13-.95-.07h-2m-7.96 0h-3.98m-7.96 0h-4m-7.95 0h-3.98m-7.97 0h-3.98m-7.97 0h-3.98m-7.96 0h-3.98m-7.96 0h-3.98m-7.97 0h-3.97m-7.96 0h-4m-7.95 0h-4m-7.95 0h-3.98m-7.98 0h-3.98m-7.96 0h-4m-7.95 0h-3.98m-7.97 0h-3.98m-7.97 0h-3.98m-7.96 0h-4m-7.96 0h-3.98m-7.97 0h-4m-7.96 0h-3.98m-7.96 0h-4m-7.95 0h-3.98m-7.97 0h-3.98m-7.97 0h-3.98m-7.96 0h-3.98m-7.96 0h-3.98m-7.97 0h-3.97m-7.96 0h-4m-7.95 0h-4m-7.95 0h-3.98m-7.98 0h-3.98m-7.96 0h-4m-7.95 0h-3.98m-7.97 0h-3.98m-7.97 0h-3.98m-7.96 0h-4m-7.96 0h-3.98m-7.97 0h-4m-7.96 0h-3.98m-7.96 0h-4m-7.95 0h-3.98m-7.97 0h-3.98m-7.97 0h-3.98m-7.96 0h-3.98m-7.96 0h-3.98m-7.97 0h-3.97m-7.96 0h-4m-7.95 0h-4m-7.95 0h-3.98m-7.98 0h-3.98m-7.96 0h-4m-7.95 0h-3.98m-7.97 0h-3.98m-7.97 0h-3.98m-7.96 0h-4m-7.96 0h-3.98m-7.97 0h-4m-7.96 0h-3.98m-7.96 0h-4m-7.95 0h-3.98m-7.97 0h-3.98m-7.97 0h-3.98m-7.96 0h-3.98m-7.96 0h-3.98m-7.97 0h-3.97m-7.96 0h-4m-7.95 0h-4m-7.95 0h-3.98m-7.98 0h-3.98m-7.96 0h-4m-7.95 0h-3.98m-7.97 0h-3.98m-7.97 0h-3.98m-7.96 0h-4m-7.96 0h-3.98m-7.97 0h-2l-.94-.08-.6-.15m-4.24-4.23l-.15-.6-.07-.94v-1.68m0-6.7v-3.36m0-6.7v-3.36m0-6.7v-1.68" stroke="#3a414a" stroke-width="2" fill="none"/><path d="M3620.97 502h-1.94v-1.03h1.94z" stroke="#3a414a" stroke-width=".05" fill="#3a414a"/><path d="M2690 445.32l10-17.32 10 17.32" stroke="#3a414a" stroke-width="2" fill="none"/><path d="M3089.44 766.2a7.83 7.83 0 0 0 7.56 5.78h77a6 6 0 0 1 6 6v72a6 6 0 0 1-6 6h-228a6 6 0 0 1-6-6v-98a6 6 0 0 1 6-6h132a7.83 7.83 0 0 1 7.56 5.8zM2940 771.97h151" stroke="#3a414a" stroke-width="2" fill="#fff"/><path d="M2940 792a6 6 0 0 1 6-6h228a6 6 0 0 1 6 6v48a6 6 0 0 1-6 6h-228a6 6 0 0 1-6-6z" fill="none"/><use xlink:href="#y" transform="matrix(1,0,0,1,2939.9999999958795,785.9847356432733) translate(80.73784722222221 42.93402777777778)"/><path d="M3429.44 766.2a7.83 7.83 0 0 0 7.56 5.78h77a6 6 0 0 1 6 6v72a6 6 0 0 1-6 6h-228a6 6 0 0 1-6-6v-98a6 6 0 0 1 6-6h132a7.83 7.83 0 0 1 7.56 5.8zM3280 771.97h151" stroke="#3a414a" stroke-width="2" fill="#fff"/><path d="M3280 792a6 6 0 0 1 6-6h228a6 6 0 0 1 6 6v48a6 6 0 0 1-6 6h-228a6 6 0 0 1-6-6z" fill="none"/><use xlink:href="#z" transform="matrix(1,0,0,1,3279.9999999958795,785.9847356432733) translate(18.055555555555557 42.93402777777778)"/><path d="M1969.44 763.2a7.83 7.83 0 0 0 7.56 5.8h77a6 6 0 0 1 6 6v72a6 6 0 0 1-6 6h-228a6 6 0 0 1-6-6v-98a6 6 0 0 1 6-6h132a7.83 7.83 0 0 1 7.56 5.8zM1820 769h151" stroke="#3a414a" stroke-width="2" fill="#fff"/><path d="M1820 789a6 6 0 0 1 6-6h228a6 6 0 0 1 6 6v48a6 6 0 0 1-6 6h-228a6 6 0 0 1-6-6z" fill="none"/><use xlink:href="#A" transform="matrix(1,0,0,1,1819.9999999958795,782.9923678216367) translate(31.43229166666667 42.93402777777778)"/><path d="M2249.44 763.2a7.83 7.83 0 0 0 7.56 5.8h77a6 6 0 0 1 6 6v72a6 6 0 0 1-6 6h-228a6 6 0 0 1-6-6v-98a6 6 0 0 1 6-6h132a7.83 7.83 0 0 1 7.56 5.8zM2100 769h151" stroke="#3a414a" stroke-width="2" fill="#fff"/><path d="M2100 790a6 6 0 0 1 6-6h228a6 6 0 0 1 6 6v48a6 6 0 0 1-6 6h-228a6 6 0 0 1-6-6z" fill="none"/><use xlink:href="#B" transform="matrix(1,0,0,1,2099.9999999958795,783.9898237621821) translate(28.88020833333333 42.93402777777778)"/><path d="M2529.44 766.2a7.83 7.83 0 0 0 7.56 5.78h77a6 6 0 0 1 6 6v72a6 6 0 0 1-6 6h-228a6 6 0 0 1-6-6v-98a6 6 0 0 1 6-6h132a7.83 7.83 0 0 1 7.56 5.8zM2380 771.97h151" stroke="#3a414a" stroke-width="2" fill="#fff"/><path d="M2380 792a6 6 0 0 1 6-6h228a6 6 0 0 1 6 6v48a6 6 0 0 1-6 6h-228a6 6 0 0 1-6-6z" fill="none"/><use xlink:href="#C" transform="matrix(1,0,0,1,2379.9999999958795,785.9847356432733) translate(77.890625 42.93402777777778)"/><path d="M2809.44 766.2a7.83 7.83 0 0 0 7.56 5.78h77a6 6 0 0 1 6 6v72a6 6 0 0 1-6 6h-228a6 6 0 0 1-6-6v-98a6 6 0 0 1 6-6h132a7.83 7.83 0 0 1 7.56 5.8zM2660 771.97h151" stroke="#3a414a" stroke-width="2" fill="#fff"/><path d="M2660 792a6 6 0 0 1 6-6h228a6 6 0 0 1 6 6v48a6 6 0 0 1-6 6h-228a6 6 0 0 1-6-6z" fill="none"/><use xlink:href="#D" transform="matrix(1,0,0,1,2659.9999999958795,785.9847356432733) translate(70.32118055555554 42.93402777777778)"/><path d="M1940 741v-1.9m0-7.55v-3.78m0-7.55v-3.78m0-7.56V707l.07-.94.15-.6m4.23-4.25l.6-.13.95-.08h2.04m8.15 0h4.07m8.15 0h4.07m8.14 0h4.08m8.15 0h4.08m8.15 0h4.07m8.15 0h4.08m8.15 0h4.08m8.15 0h4.07m8.16 0h4.08m8.15 0h4.08m8.16 0h4.07m8.15 0h4.08m8.15 0h4.1m8.14 0h4.08m8.15 0h4.07m8.15 0h4.07m8.15 0h4.08m8.15 0h4.07m8.15 0h4.08m8.15 0h4.08m8.15 0h4.07m8.15 0h2.04l.93-.08.6-.14m4.24-4.24l.15-.6.07-.95v-1.9m0-7.53v-3.77m0-7.54v-3.77m0-7.56v-3.77m0-7.54v-3.77m0-7.54v-3.77m0-7.54v-3.76m0-7.54v-1.9" stroke="#3a414a" stroke-width="2" fill="none"/><path d="M1940.97 742h-1.94v-1.03h1.94z" stroke="#3a414a" stroke-width=".05" fill="#3a414a"/><path d="M2211 633.3l10-17.3 10 17.3M2220 741v-2.1m0-8.34v-4.17m0-8.36v-4.17m0-8.35v-4.17m0-8.34v-4.17m0-8.34v-4.18m0-8.35v-4.17m0-8.35v-4.17m0-8.35v-4.17m0-8.35v-4.16m0-8.34v-2.1" stroke="#3a414a" stroke-width="2" fill="none"/><path d="M2220.97 742h-1.94v-1.03h1.94z" stroke="#3a414a" stroke-width=".05" fill="#3a414a"/><path d="M2210 633.3l10-17.3 10 17.3M2500 744v-2.18m0-8.66v-4.34m0-8.66v-4.33m0-8.66V705l-.07-.94-.15-.6m-4.23-4.24l-.6-.15-.95-.07h-2.03m-8.12 0h-4.06m-8.13 0h-4.06m-8.1 0h-4.08m-8.12 0h-4.06m-8.12 0h-4.06m-8.12 0h-4.06m-8.12 0h-4.06m-8.12 0h-4.07m-8.1 0h-4.07m-8.12 0h-4.05m-8.12 0h-4.06m-8.12 0h-4.06m-8.13 0h-4.06m-8.1 0h-4.08m-8.12 0h-4.06m-8.12 0h-4.06m-8.12 0h-4.06m-8.12 0h-4.06m-8.12 0h-4.07m-8.1 0h-4.07m-8.12 0h-4.05m-8.12 0H2226l-.94-.07-.6-.15m-4.24-4.23l-.15-.6-.07-.95v-2.14m0-8.58v-4.3m0-8.57v-4.27m0-8.58v-4.3m0-8.57v-4.28m0-8.58v-4.3m0-8.56v-2.15" stroke="#3a414a" stroke-width="2" fill="none"/><path d="M2500.97 745h-1.94v-1.04h1.94z" stroke="#3a414a" stroke-width=".05" fill="#3a414a"/><path d="M2210 633.3l10-17.3 10 17.3M2780 744v-2.13m0-8.44v-4.22m0-8.43v-4.22m0-8.44V706l-.07-.94-.15-.6m-4.23-4.24l-.6-.15-.95-.07h-2m-7.93 0h-3.97m-7.94 0h-3.97m-7.95 0h-3.97m-7.95 0h-3.97m-7.94 0h-3.97m-7.94 0h-3.96m-7.95 0h-3.98m-7.94 0h-3.97m-7.93 0h-3.97m-7.95 0h-3.97m-7.94 0h-3.97m-7.94 0h-3.97m-7.94 0h-3.97m-7.95 0h-3.97m-7.94 0h-3.98m-7.94 0h-3.97m-7.94 0h-3.97m-7.95 0h-3.97m-7.94 0h-3.97m-7.95 0h-3.97m-7.94 0h-3.96m-7.94 0h-3.97m-7.94 0h-4m-7.93 0h-3.97m-7.94 0h-3.97m-7.95 0h-3.97m-7.95 0h-3.97m-7.94 0h-3.97m-7.94 0h-3.96m-7.95 0h-3.98m-7.94 0h-3.97m-7.93 0h-3.97m-7.95 0h-3.97m-7.94 0h-3.97m-7.94 0h-3.97m-7.94 0h-3.97m-7.95 0h-3.97m-7.94 0h-3.98m-7.94 0h-3.97m-7.94 0h-3.97m-7.95 0h-3.97m-7.94 0h-3.97m-7.95 0h-3.97m-7.94 0h-3.96m-7.94 0h-3.97m-7.94 0h-2l-.94-.08-.6-.14m-4.24-4.23l-.15-.6-.07-.95v-1.86m0-7.45v-3.73m0-7.45v-3.72m0-7.45v-3.72m0-7.45v-3.72m0-7.45v-3.7m0-7.46v-3.72m0-7.45v-1.86" stroke="#3a414a" stroke-width="2" fill="none"/><path d="M2780.97 745h-1.94v-1.04h1.94z" stroke="#3a414a" stroke-width=".05" fill="#3a414a"/><path d="M2210 633.3l10-17.3 10 17.3M3060 744v-2m0-7.94v-3.97m0-7.95v-3.97m0-7.93v-3.98m0-7.93v-3.97m0-7.94v-3.97m0-7.94v-3.97m0-7.94v-1.97l-.07-.94-.15-.62m-4.23-4.23l-.6-.15-.95-.07h-2.03m-8.12 0h-4.06m-8.13 0h-4.06m-8.1 0h-4.08m-8.12 0h-4.06m-8.12 0h-4.06m-8.12 0h-4.06m-8.12 0h-4.06m-8.12 0h-4.07m-8.1 0h-4.07m-8.12 0h-4.05m-8.12 0h-4.06m-8.12 0h-4.06m-8.13 0h-4.06m-8.1 0h-4.08m-8.12 0h-4.06m-8.12 0h-4.06m-8.12 0h-4.06m-8.12 0h-4.06m-8.12 0h-4.07m-8.1 0h-4.07m-8.12 0h-4.05m-8.12 0H2786l-.94-.08-.6-.14m-4.24-4.22l-.15-.6-.07-.95v-2.5m0-9.93v-4.97m0-9.94v-2.5" stroke="#3a414a" stroke-width="2" fill="none"/><path d="M3060.97 745h-1.94v-1.04h1.94z" stroke="#3a414a" stroke-width=".05" fill="#3a414a"/><path d="M2770 636.3l10-17.3 10 17.3M3400 744v-2m0-7.94v-3.97m0-7.95v-3.97m0-7.93v-3.98m0-7.93v-3.97m0-7.94v-3.97m0-7.94v-3.97m0-7.94v-1.97l-.07-.94-.15-.62m-4.23-4.23l-.6-.15-.95-.07h-2m-7.93 0h-3.98m-7.96 0h-3.97m-7.95 0h-3.97m-7.95 0h-3.97m-7.95 0h-3.97m-7.94 0h-3.98m-7.94 0h-3.98m-7.95 0h-3.96m-7.95 0h-3.98m-7.95 0h-3.97m-7.95 0h-3.97m-7.95 0h-3.98m-7.94 0h-3.97m-7.95 0h-3.97m-7.94 0h-3.97m-7.96 0h-3.97m-7.95 0h-3.97m-7.95 0h-3.97m-7.95 0h-3.98m-7.94 0h-3.98m-7.95 0h-3.97m-7.95 0h-3.96m-7.95 0h-3.98m-7.95 0h-3.97m-7.95 0h-3.98m-7.94 0h-3.98m-7.95 0h-3.97m-7.95 0h-3.97m-7.94 0h-3.97m-7.96 0h-3.97m-7.95 0h-3.98m-7.94 0h-3.98m-7.95 0h-3.97m-7.95 0h-3.97m-7.95 0h-3.97m-7.95 0h-3.96m-7.95 0h-4m-7.93 0H2939m-7.95 0h-3.98m-7.95 0h-3.97m-7.95 0h-3.97m-7.95 0h-3.97m-7.94 0h-3.97m-7.96 0h-3.98m-7.94 0h-3.98m-7.95 0h-3.98m-7.95 0h-3.97m-7.95 0h-3.97m-7.95 0h-3.97m-7.95 0h-3.97m-7.94 0h-2l-.94-.08-.6-.14m-4.24-4.22l-.15-.6-.07-.95v-2.5m0-9.93v-4.97m0-9.94v-2.5" stroke="#3a414a" stroke-width="2" fill="none"/><path d="M3400.97 745h-1.94v-1.04h1.94z" stroke="#3a414a" stroke-width=".05" fill="#3a414a"/><path d="M2770 636.3l10-17.3 10 17.3" stroke="#3a414a" stroke-width="2" fill="none"/><path d="M1560 1126a6 6 0 0 1 6-6h228a6 6 0 0 1 6 6v48a6 6 0 0 1-6 6h-228a6 6 0 0 1-6-6z" fill="none"/><path d="M489.44 962.2A7.83 7.83 0 0 0 497 968h77a6 6 0 0 1 6 6v72a6 6 0 0 1-6 6H346a6 6 0 0 1-6-6v-98a6 6 0 0 1 6-6h132a7.83 7.83 0 0 1 7.56 5.8zM340 968h151" stroke="#3a414a" stroke-width="2" fill="#fff"/><path d="M340 988a6 6 0 0 1 6-6h228a6 6 0 0 1 6 6v48a6 6 0 0 1-6 6H346a6 6 0 0 1-6-6z" fill="none"/><use xlink:href="#E" transform="matrix(1,0,0,1,340,981.994911881091) translate(63.220486111111114 42.93402777777778)"/><path d="M769.44 960.2A7.83 7.83 0 0 0 777 966h77a6 6 0 0 1 6 6v72a6 6 0 0 1-6 6H626a6 6 0 0 1-6-6v-98a6 6 0 0 1 6-6h132a7.83 7.83 0 0 1 7.56 5.8zM620 966h151" stroke="#3a414a" stroke-width="2" fill="#fff"/><path d="M620 986a6 6 0 0 1 6-6h228a6 6 0 0 1 6 6v48a6 6 0 0 1-6 6H626a6 6 0 0 1-6-6z" fill="none"/><use xlink:href="#F" transform="matrix(1,0,0,1,620,980) translate(83.24652777777777 42.93402777777778)"/><path d="M1049.44 960.2a7.83 7.83 0 0 0 7.56 5.8h77a6 6 0 0 1 6 6v72a6 6 0 0 1-6 6H906a6 6 0 0 1-6-6v-98a6 6 0 0 1 6-6h132a7.83 7.83 0 0 1 7.56 5.8zM900 966h151" stroke="#3a414a" stroke-width="2" fill="#fff"/><path d="M900 987a6 6 0 0 1 6-6h228a6 6 0 0 1 6 6v48a6 6 0 0 1-6 6H906a6 6 0 0 1-6-6z" fill="none"/><use xlink:href="#G" transform="matrix(1,0,0,1,900,980.9974559405455) translate(6.067708333333314 42.93402777777778)"/><path d="M460 940v-2.12m0-8.44v-4.22m0-8.45v-4.22m0-8.44V902l.07-.94.15-.6m4.23-4.24l.6-.15.95-.07h2.03m8.12 0h4.06m8.13 0h4.06m8.12 0h4.06m8.12 0h4.06m8.12 0h4.06m8.12 0h4.06m8.12 0h4.06m8.12 0h4.07m8.1 0h4.07m8.12 0h4.05m8.12 0h4.06m8.12 0h4.06m8.13 0h4.06m8.12 0h4.06m8.12 0h4.06m8.12 0h4.06m8.12 0h4.06m8.12 0h4.06m8.12 0h4.07m8.1 0h4.07m8.12 0h4.05m8.12 0H734l.94-.08.6-.14m4.24-4.23l.15-.6.07-.95v-2.07m0-8.26v-4.13m0-8.26v-4.13m0-8.27v-2.06" stroke="#3a414a" stroke-width="2" fill="none"/><path d="M460.98 941h-1.96v-1.03h1.96z" stroke="#3a414a" stroke-width=".05" fill="#3a414a"/><path d="M730 870.32L740 853l10 17.32M740 938v-2.03m0-8.1v-4.07m0-8.1v-4.07m0-8.1v-4.06m0-8.12v-4.05m0-8.12v-4.05m0-8.12v-4.04m0-8.1v-2.04" stroke="#3a414a" stroke-width="2" fill="none"/><path d="M740.98 939H739v-1.03H741z" stroke="#3a414a" stroke-width=".05" fill="#3a414a"/><path d="M730 870.32L740 853l10 17.32M1020 938v-2.06m0-8.22v-4.1m0-8.23v-4.12m0-8.22V901l-.07-.94-.15-.6m-4.23-4.24l-.6-.15-.95-.07h-2.03m-8.12 0h-4.06m-8.13 0h-4.06m-8.12 0h-4.06m-8.12 0h-4.06m-8.12 0h-4.06m-8.12 0h-4.06m-8.12 0h-4.06m-8.12 0h-4.07m-8.1 0h-4.07m-8.12 0h-4.05m-8.12 0h-4.06m-8.12 0h-4.06m-8.13 0h-4.06m-8.12 0h-4.06m-8.12 0h-4.06m-8.12 0h-4.06m-8.12 0h-4.06m-8.12 0h-4.06m-8.12 0h-4.07m-8.1 0h-4.07m-8.12 0h-4.05m-8.12 0H746l-.94-.07-.6-.15m-4.24-4.23l-.15-.6-.07-.95v-2m0-8.05v-4.02m0-8.04v-4.03m0-8.04v-2" stroke="#3a414a" stroke-width="2" fill="none"/><path d="M1020.98 939H1019v-1.03h1.96z" stroke="#3a414a" stroke-width=".05" fill="#3a414a"/><path d="M730 870.32L740 853l10 17.32" stroke="#3a414a" stroke-width="2" fill="none"/><defs><path d="M537 14c-226 0-379-139-379-422v-710h180v695c0 172 97 275 253 275 160 0 281-109 281-300v-670h181V0H879v-209C806-46 684 14 537 14" id="H"/><path d="M338-1490V0H158v-1490h180" id="I"/><path d="M158 0v-1118h180V0H158zm91-1301c-68 0-125-53-125-119s57-119 125-119c69 0 126 53 126 119s-57 119-126 119" id="J"/><path d="M538 24C308 24 148-78 108-271l171-41c32 123 123 178 257 178 156 0 256-77 256-169 0-77-54-128-164-154l-186-44c-203-48-300-148-300-305 0-192 176-326 414-326 230 0 351 112 402 269l-163 42c-31-80-94-158-238-158-133 0-233 69-233 162 0 83 57 129 188 160l169 40c203 48 298 149 298 302 0 196-179 339-441 339" id="K"/><path d="M628 24c-324 0-524-230-524-574 0-343 198-582 503-582 237 0 487 146 487 559v75H286c9 234 145 362 343 362 132 0 231-58 273-172l174 48C1024-91 857 24 628 24zM287-650h624c-17-190-120-322-304-322-192 0-309 151-320 322" id="L"/><g id="a"><use transform="matrix(0.017361111111111112,0,0,0.017361111111111112,0,0)" xlink:href="#H"/><use transform="matrix(0.017361111111111112,0,0,0.017361111111111112,21.024305555555557,0)" xlink:href="#I"/><use transform="matrix(0.017361111111111112,0,0,0.017361111111111112,29.635416666666668,0)" xlink:href="#J"/><use transform="matrix(0.017361111111111112,0,0,0.017361111111111112,38.24652777777778,0)" xlink:href="#K"/><use transform="matrix(0.017361111111111112,0,0,0.017361111111111112,57.013888888888886,0)" xlink:href="#K"/><use transform="matrix(0.017361111111111112,0,0,0.017361111111111112,75.78125,0)" xlink:href="#L"/></g><path d="M471 26C259 26 90-98 90-318c0-256 228-303 435-329 202-27 287-16 287-108 0-139-79-219-234-219-161 0-248 86-283 164l-173-57c86-203 278-265 451-265 150 0 419 46 419 395V0H815v-152h-12C765-73 660 26 471 26zm31-159c199 0 310-134 310-271v-155c-30 35-226 55-295 64-131 17-246 59-246 186 0 116 97 176 231 176" id="M"/><path d="M577 24c-279 0-473-224-473-580 0-354 195-576 474-576 218 0 287 134 324 193h14v-551h180V0H922v-173h-20C865-111 790 24 577 24zm27-161c203 0 314-172 314-421 0-247-108-413-314-413-212 0-317 181-317 413 0 235 108 421 317 421" id="N"/><path d="M158 418v-1536h174v179h20c37-59 106-193 324-193 279 0 474 222 474 576 0 356-194 580-473 580-213 0-288-135-325-197h-14v591H158zm492-555c209 0 317-186 317-421 0-232-105-413-317-413-206 0-314 166-314 413 0 249 111 421 314 421" id="O"/><path d="M598-1118v154H368v674c0 100 37 144 132 144 23 0 62-6 92-12L629-6c-37 13-88 20-134 20-193 0-307-107-307-290v-688H20v-154h168v-266h180v266h230" id="P"/><path d="M158 0v-1118h174v172h12c41-113 157-188 290-188 26 0 70 2 91 3v181c-11-2-60-10-108-10-161 0-279 109-279 260V0H158" id="Q"/><g id="b"><use transform="matrix(0.017361111111111112,0,0,0.017361111111111112,0,0)" xlink:href="#M"/><use transform="matrix(0.017361111111111112,0,0,0.017361111111111112,19.96527777777778,0)" xlink:href="#N"/><use transform="matrix(0.017361111111111112,0,0,0.017361111111111112,41.736111111111114,0)" xlink:href="#M"/><use transform="matrix(0.017361111111111112,0,0,0.017361111111111112,61.70138888888889,0)" xlink:href="#O"/><use transform="matrix(0.017361111111111112,0,0,0.017361111111111112,83.47222222222223,0)" xlink:href="#P"/><use transform="matrix(0.017361111111111112,0,0,0.017361111111111112,94.75694444444444,0)" xlink:href="#L"/><use transform="matrix(0.017361111111111112,0,0,0.017361111111111112,115.48611111111111,0)" xlink:href="#Q"/><use transform="matrix(0.017361111111111112,0,0,0.017361111111111112,128.87152777777777,0)" xlink:href="#K"/></g><path d="M613 24c-304 0-509-231-509-576 0-350 205-580 509-580 216 0 392 114 453 309l-173 49c-33-115-133-197-280-197-223 0-326 196-326 419 0 220 103 415 326 415 150 0 252-85 285-206l172 49C1010-95 832 24 613 24" id="R"/><path d="M613 24c-304 0-509-231-509-576 0-350 205-580 509-580 305 0 511 230 511 580 0 345-206 576-511 576zm0-161c226 0 329-195 329-415 0-222-103-419-329-419-223 0-326 196-326 419 0 220 103 415 326 415" id="S"/><path d="M338-670V0H158v-1118h173l1 207c72-158 192-221 342-221 226 0 378 139 378 422V0H872v-695c0-172-96-275-252-275-161 0-282 109-282 300" id="T"/><g id="c"><use transform="matrix(0.017361111111111112,0,0,0.017361111111111112,0,0)" xlink:href="#M"/><use transform="matrix(0.017361111111111112,0,0,0.017361111111111112,19.96527777777778,0)" xlink:href="#O"/><use transform="matrix(0.017361111111111112,0,0,0.017361111111111112,41.736111111111114,0)" xlink:href="#O"/><use transform="matrix(0.017361111111111112,0,0,0.017361111111111112,63.50694444444445,0)" xlink:href="#I"/><use transform="matrix(0.017361111111111112,0,0,0.017361111111111112,72.11805555555556,0)" xlink:href="#J"/><use transform="matrix(0.017361111111111112,0,0,0.017361111111111112,80.72916666666667,0)" xlink:href="#R"/><use transform="matrix(0.017361111111111112,0,0,0.017361111111111112,101.3888888888889,0)" xlink:href="#M"/><use transform="matrix(0.017361111111111112,0,0,0.017361111111111112,121.35416666666669,0)" xlink:href="#P"/><use transform="matrix(0.017361111111111112,0,0,0.017361111111111112,132.98611111111114,0)" xlink:href="#J"/><use transform="matrix(0.017361111111111112,0,0,0.017361111111111112,141.59722222222226,0)" xlink:href="#S"/><use transform="matrix(0.017361111111111112,0,0,0.017361111111111112,162.9166666666667,0)" xlink:href="#T"/><use transform="matrix(0.017361111111111112,0,0,0.017361111111111112,183.92361111111117,0)" xlink:href="#K"/></g><g id="d"><use transform="matrix(0.017361111111111112,0,0,0.017361111111111112,0,0)" xlink:href="#N"/><use transform="matrix(0.017361111111111112,0,0,0.017361111111111112,21.770833333333336,0)" xlink:href="#K"/><use transform="matrix(0.017361111111111112,0,0,0.017361111111111112,40.53819444444444,0)" xlink:href="#I"/></g><g id="e"><use transform="matrix(0.017361111111111112,0,0,0.017361111111111112,0,0)" xlink:href="#L"/><use transform="matrix(0.017361111111111112,0,0,0.017361111111111112,20.729166666666668,0)" xlink:href="#T"/><use transform="matrix(0.017361111111111112,0,0,0.017361111111111112,41.736111111111114,0)" xlink:href="#P"/><use transform="matrix(0.017361111111111112,0,0,0.017361111111111112,53.36805555555556,0)" xlink:href="#J"/><use transform="matrix(0.017361111111111112,0,0,0.017361111111111112,61.97916666666667,0)" xlink:href="#P"/><use transform="matrix(0.017361111111111112,0,0,0.017361111111111112,73.61111111111111,0)" xlink:href="#J"/><use transform="matrix(0.017361111111111112,0,0,0.017361111111111112,82.22222222222223,0)" xlink:href="#L"/><use transform="matrix(0.017361111111111112,0,0,0.017361111111111112,102.9513888888889,0)" xlink:href="#K"/></g><path d="M678-1118v154H420V0H240v-964H20v-154h220v-149c0-194 155-293 318-293 85 0 141 18 168 30l-50 154c-19-6-47-17-97-17-111 0-159 58-159 166v109h258" id="U"/><g id="f"><use transform="matrix(0.017361111111111112,0,0,0.017361111111111112,0,0)" xlink:href="#J"/><use transform="matrix(0.017361111111111112,0,0,0.017361111111111112,8.61111111111111,0)" xlink:href="#T"/><use transform="matrix(0.017361111111111112,0,0,0.017361111111111112,29.618055555555557,0)" xlink:href="#U"/><use transform="matrix(0.017361111111111112,0,0,0.017361111111111112,42.77777777777778,0)" xlink:href="#Q"/><use transform="matrix(0.017361111111111112,0,0,0.017361111111111112,56.163194444444436,0)" xlink:href="#M"/><use transform="matrix(0.017361111111111112,0,0,0.017361111111111112,76.12847222222223,0)" xlink:href="#K"/><use transform="matrix(0.017361111111111112,0,0,0.017361111111111112,94.89583333333334,0)" xlink:href="#P"/><use transform="matrix(0.017361111111111112,0,0,0.017361111111111112,106.52777777777779,0)" xlink:href="#Q"/><use transform="matrix(0.017361111111111112,0,0,0.017361111111111112,119.91319444444444,0)" xlink:href="#H"/><use transform="matrix(0.017361111111111112,0,0,0.017361111111111112,140.9375,0)" xlink:href="#R"/><use transform="matrix(0.017361111111111112,0,0,0.017361111111111112,161.25,0)" xlink:href="#P"/><use transform="matrix(0.017361111111111112,0,0,0.017361111111111112,172.88194444444446,0)" xlink:href="#H"/><use transform="matrix(0.017361111111111112,0,0,0.017361111111111112,193.90625,0)" xlink:href="#Q"/><use transform="matrix(0.017361111111111112,0,0,0.017361111111111112,206.70138888888889,0)" xlink:href="#L"/></g><g id="g"><use transform="matrix(0.017361111111111112,0,0,0.017361111111111112,0,0)" xlink:href="#H"/><use transform="matrix(0.017361111111111112,0,0,0.017361111111111112,21.024305555555557,0)" xlink:href="#P"/><use transform="matrix(0.017361111111111112,0,0,0.017361111111111112,32.65625,0)" xlink:href="#J"/><use transform="matrix(0.017361111111111112,0,0,0.017361111111111112,41.267361111111114,0)" xlink:href="#I"/><use transform="matrix(0.017361111111111112,0,0,0.017361111111111112,49.878472222222236,0)" xlink:href="#K"/></g><path d="M481 0L54-1118h197c107 314 236 620 325 951 87-331 217-637 324-951h197L670 0H481" id="V"/><g id="h"><use transform="matrix(0.017361111111111112,0,0,0.017361111111111112,0,0)" xlink:href="#L"/><use transform="matrix(0.017361111111111112,0,0,0.017361111111111112,20.03472222222222,0)" xlink:href="#V"/><use transform="matrix(0.017361111111111112,0,0,0.017361111111111112,39.32291666666667,0)" xlink:href="#L"/><use transform="matrix(0.017361111111111112,0,0,0.017361111111111112,60.05208333333334,0)" xlink:href="#T"/><use transform="matrix(0.017361111111111112,0,0,0.017361111111111112,81.05902777777779,0)" xlink:href="#P"/><use transform="matrix(0.017361111111111112,0,0,0.017361111111111112,92.34375,0)" xlink:href="#K"/></g><path d="M158 0v-1118h175l1 205c55-151 181-225 313-225 147 0 245 90 285 228 53-141 190-228 352-228 194 0 352 125 352 384V0h-181v-749c0-161-105-225-225-225-151 0-243 103-243 244V0H807v-767c0-124-93-207-219-207-131 0-250 92-250 270V0H158" id="W"/><path d="M611 442c-248 0-391-105-460-228l146-94c47 65 117 165 314 165 178 0 307-82 307-266v-224h-17C863-141 792-18 576-18c-268 0-472-195-472-546 0-346 197-568 476-568 216 0 288 133 326 193h17v-179h175V29c0 289-215 413-487 413zm-5-620c203 0 314-146 314-390 0-237-108-403-314-403-213 0-319 180-319 403 0 230 109 390 319 390" id="X"/><g id="i"><use transform="matrix(0.017361111111111112,0,0,0.017361111111111112,0,0)" xlink:href="#W"/><use transform="matrix(0.017361111111111112,0,0,0.017361111111111112,31.145833333333336,0)" xlink:href="#M"/><use transform="matrix(0.017361111111111112,0,0,0.017361111111111112,51.111111111111114,0)" xlink:href="#T"/><use transform="matrix(0.017361111111111112,0,0,0.017361111111111112,72.11805555555556,0)" xlink:href="#M"/><use transform="matrix(0.017361111111111112,0,0,0.017361111111111112,92.08333333333334,0)" xlink:href="#X"/><use transform="matrix(0.017361111111111112,0,0,0.017361111111111112,113.8888888888889,0)" xlink:href="#L"/><use transform="matrix(0.017361111111111112,0,0,0.017361111111111112,134.61805555555557,0)" xlink:href="#Q"/><use transform="matrix(0.017361111111111112,0,0,0.017361111111111112,148.00347222222223,0)" xlink:href="#K"/></g><g id="j"><use transform="matrix(0.017361111111111112,0,0,0.017361111111111112,0,0)" xlink:href="#R"/><use transform="matrix(0.017361111111111112,0,0,0.017361111111111112,20.3125,0)" xlink:href="#S"/><use transform="matrix(0.017361111111111112,0,0,0.017361111111111112,41.63194444444444,0)" xlink:href="#T"/><use transform="matrix(0.017361111111111112,0,0,0.017361111111111112,62.638888888888886,0)" xlink:href="#U"/><use transform="matrix(0.017361111111111112,0,0,0.017361111111111112,75.79861111111111,0)" xlink:href="#J"/><use transform="matrix(0.017361111111111112,0,0,0.017361111111111112,84.40972222222223,0)" xlink:href="#X"/><use transform="matrix(0.017361111111111112,0,0,0.017361111111111112,106.21527777777779,0)" xlink:href="#K"/></g><g id="k"><use transform="matrix(0.017361111111111112,0,0,0.017361111111111112,0,0)" xlink:href="#O"/><use transform="matrix(0.017361111111111112,0,0,0.017361111111111112,21.770833333333336,0)" xlink:href="#S"/><use transform="matrix(0.017361111111111112,0,0,0.017361111111111112,43.090277777777786,0)" xlink:href="#Q"/><use transform="matrix(0.017361111111111112,0,0,0.017361111111111112,57.03125000000001,0)" xlink:href="#P"/><use transform="matrix(0.017361111111111112,0,0,0.017361111111111112,68.31597222222224,0)" xlink:href="#K"/></g><path d="M783 20c-382 0-661-292-661-764 0-473 279-766 661-766 302 0 548 182 601 489h-190c-42-204-217-313-411-313-268 0-476 208-476 590 0 381 209 588 476 588 195 0 369-110 411-313h190c-52 303-296 489-601 489" id="Y"/><g id="l"><use transform="matrix(0.017361111111111112,0,0,0.017361111111111112,0,0)" xlink:href="#H"/><use transform="matrix(0.017361111111111112,0,0,0.017361111111111112,21.024305555555557,0)" xlink:href="#K"/><use transform="matrix(0.017361111111111112,0,0,0.017361111111111112,39.79166666666667,0)" xlink:href="#L"/><use transform="matrix(0.017361111111111112,0,0,0.017361111111111112,60.52083333333334,0)" xlink:href="#Y"/><use transform="matrix(0.017361111111111112,0,0,0.017361111111111112,86.49305555555557,0)" xlink:href="#M"/><use transform="matrix(0.017361111111111112,0,0,0.017361111111111112,106.45833333333334,0)" xlink:href="#K"/><use transform="matrix(0.017361111111111112,0,0,0.017361111111111112,125.22569444444446,0)" xlink:href="#L"/><use transform="matrix(0.017361111111111112,0,0,0.017361111111111112,145.95486111111111,0)" xlink:href="#K"/></g><g id="m"><use transform="matrix(0.017361111111111112,0,0,0.017361111111111112,0,0)" xlink:href="#S"/><use transform="matrix(0.017361111111111112,0,0,0.017361111111111112,21.319444444444446,0)" xlink:href="#H"/><use transform="matrix(0.017361111111111112,0,0,0.017361111111111112,42.34375,0)" xlink:href="#P"/><use transform="matrix(0.017361111111111112,0,0,0.017361111111111112,53.975694444444436,0)" xlink:href="#O"/><use transform="matrix(0.017361111111111112,0,0,0.017361111111111112,75.74652777777777,0)" xlink:href="#H"/><use transform="matrix(0.017361111111111112,0,0,0.017361111111111112,96.77083333333333,0)" xlink:href="#P"/></g><g id="n"><use transform="matrix(0.017361111111111112,0,0,0.017361111111111112,0,0)" xlink:href="#J"/><use transform="matrix(0.017361111111111112,0,0,0.017361111111111112,8.61111111111111,0)" xlink:href="#T"/><use transform="matrix(0.017361111111111112,0,0,0.017361111111111112,29.618055555555557,0)" xlink:href="#O"/><use transform="matrix(0.017361111111111112,0,0,0.017361111111111112,51.38888888888889,0)" xlink:href="#H"/><use transform="matrix(0.017361111111111112,0,0,0.017361111111111112,72.41319444444446,0)" xlink:href="#P"/></g><g id="o"><use transform="matrix(0.017361111111111112,0,0,0.017361111111111112,0,0)" xlink:href="#Q"/><use transform="matrix(0.017361111111111112,0,0,0.017361111111111112,12.79513888888889,0)" xlink:href="#S"/><use transform="matrix(0.017361111111111112,0,0,0.017361111111111112,34.114583333333336,0)" xlink:href="#H"/><use transform="matrix(0.017361111111111112,0,0,0.017361111111111112,55.13888888888889,0)" xlink:href="#P"/><use transform="matrix(0.017361111111111112,0,0,0.017361111111111112,66.42361111111111,0)" xlink:href="#L"/></g><g id="p"><use transform="matrix(0.017361111111111112,0,0,0.017361111111111112,0,0)" xlink:href="#K"/><use transform="matrix(0.017361111111111112,0,0,0.017361111111111112,18.76736111111111,0)" xlink:href="#J"/><use transform="matrix(0.017361111111111112,0,0,0.017361111111111112,27.378472222222218,0)" xlink:href="#W"/><use transform="matrix(0.017361111111111112,0,0,0.017361111111111112,58.52430555555556,0)" xlink:href="#H"/><use transform="matrix(0.017361111111111112,0,0,0.017361111111111112,79.54861111111111,0)" xlink:href="#I"/><use transform="matrix(0.017361111111111112,0,0,0.017361111111111112,88.15972222222223,0)" xlink:href="#M"/><use transform="matrix(0.017361111111111112,0,0,0.017361111111111112,108.125,0)" xlink:href="#P"/><use transform="matrix(0.017361111111111112,0,0,0.017361111111111112,119.75694444444444,0)" xlink:href="#J"/><use transform="matrix(0.017361111111111112,0,0,0.017361111111111112,128.36805555555554,0)" xlink:href="#S"/><use transform="matrix(0.017361111111111112,0,0,0.017361111111111112,149.6875,0)" xlink:href="#T"/></g><g id="q"><use transform="matrix(0.017361111111111112,0,0,0.017361111111111112,0,0)" xlink:href="#K"/><use transform="matrix(0.017361111111111112,0,0,0.017361111111111112,18.76736111111111,0)" xlink:href="#P"/><use transform="matrix(0.017361111111111112,0,0,0.017361111111111112,30.572916666666664,0)" xlink:href="#M"/><use transform="matrix(0.017361111111111112,0,0,0.017361111111111112,50.53819444444445,0)" xlink:href="#P"/><use transform="matrix(0.017361111111111112,0,0,0.017361111111111112,62.170138888888886,0)" xlink:href="#J"/><use transform="matrix(0.017361111111111112,0,0,0.017361111111111112,70.78125,0)" xlink:href="#S"/><use transform="matrix(0.017361111111111112,0,0,0.017361111111111112,92.10069444444444,0)" xlink:href="#T"/></g><path d="M677 24c-213 0-288-135-325-197h-20V0H158v-1490h180v551h14c37-59 106-193 324-193 279 0 474 222 474 576 0 356-194 580-473 580zm-27-161c209 0 317-186 317-421 0-232-105-413-317-413-206 0-314 166-314 413 0 249 111 421 314 421" id="Z"/><g id="r"><use transform="matrix(0.017361111111111112,0,0,0.017361111111111112,0,0)" xlink:href="#P"/><use transform="matrix(0.017361111111111112,0,0,0.017361111111111112,11.631944444444445,0)" xlink:href="#J"/><use transform="matrix(0.017361111111111112,0,0,0.017361111111111112,20.243055555555557,0)" xlink:href="#W"/><use transform="matrix(0.017361111111111112,0,0,0.017361111111111112,51.38888888888889,0)" xlink:href="#L"/><use transform="matrix(0.017361111111111112,0,0,0.017361111111111112,72.11805555555556,0)" xlink:href="#P"/><use transform="matrix(0.017361111111111112,0,0,0.017361111111111112,83.92361111111111,0)" xlink:href="#M"/><use transform="matrix(0.017361111111111112,0,0,0.017361111111111112,103.8888888888889,0)" xlink:href="#Z"/><use transform="matrix(0.017361111111111112,0,0,0.017361111111111112,125.65972222222223,0)" xlink:href="#I"/><use transform="matrix(0.017361111111111112,0,0,0.017361111111111112,134.27083333333334,0)" xlink:href="#L"/></g><g id="s"><use transform="matrix(0.017361111111111112,0,0,0.017361111111111112,0,0)" xlink:href="#P"/><use transform="matrix(0.017361111111111112,0,0,0.017361111111111112,11.631944444444445,0)" xlink:href="#Q"/><use transform="matrix(0.017361111111111112,0,0,0.017361111111111112,25.017361111111118,0)" xlink:href="#M"/><use transform="matrix(0.017361111111111112,0,0,0.017361111111111112,44.98263888888889,0)" xlink:href="#J"/><use transform="matrix(0.017361111111111112,0,0,0.017361111111111112,53.59375,0)" xlink:href="#T"/></g><path d="M409 0L70-1118h191c89 329 165 560 243 925 75-353 154-601 240-925h192c85 325 161 564 235 922 77-354 157-598 244-922h191L1267 0h-179c-86-307-176-590-250-913C763-588 675-308 588 0H409" id="aa"/><g id="t"><use transform="matrix(0.017361111111111112,0,0,0.017361111111111112,0,0)" xlink:href="#V"/><use transform="matrix(0.017361111111111112,0,0,0.017361111111111112,19.98263888888889,0)" xlink:href="#J"/><use transform="matrix(0.017361111111111112,0,0,0.017361111111111112,28.59375,0)" xlink:href="#L"/><use transform="matrix(0.017361111111111112,0,0,0.017361111111111112,48.68055555555556,0)" xlink:href="#aa"/></g><g id="u"><use transform="matrix(0.017361111111111112,0,0,0.017361111111111112,0,0)" xlink:href="#R"/><use transform="matrix(0.017361111111111112,0,0,0.017361111111111112,20.3125,0)" xlink:href="#S"/><use transform="matrix(0.017361111111111112,0,0,0.017361111111111112,41.63194444444444,0)" xlink:href="#W"/><use transform="matrix(0.017361111111111112,0,0,0.017361111111111112,72.77777777777777,0)" xlink:href="#W"/><use transform="matrix(0.017361111111111112,0,0,0.017361111111111112,103.92361111111111,0)" xlink:href="#S"/><use transform="matrix(0.017361111111111112,0,0,0.017361111111111112,125.24305555555556,0)" xlink:href="#T"/></g><g id="v"><use transform="matrix(0.017361111111111112,0,0,0.017361111111111112,0,0)" xlink:href="#R"/><use transform="matrix(0.017361111111111112,0,0,0.017361111111111112,20.3125,0)" xlink:href="#S"/><use transform="matrix(0.017361111111111112,0,0,0.017361111111111112,41.63194444444444,0)" xlink:href="#W"/><use transform="matrix(0.017361111111111112,0,0,0.017361111111111112,72.77777777777777,0)" xlink:href="#O"/><use transform="matrix(0.017361111111111112,0,0,0.017361111111111112,94.54861111111111,0)" xlink:href="#S"/><use transform="matrix(0.017361111111111112,0,0,0.017361111111111112,115.86805555555556,0)" xlink:href="#T"/><use transform="matrix(0.017361111111111112,0,0,0.017361111111111112,136.875,0)" xlink:href="#L"/><use transform="matrix(0.017361111111111112,0,0,0.017361111111111112,157.60416666666663,0)" xlink:href="#T"/><use transform="matrix(0.017361111111111112,0,0,0.017361111111111112,178.61111111111111,0)" xlink:href="#P"/><use transform="matrix(0.017361111111111112,0,0,0.017361111111111112,189.89583333333334,0)" xlink:href="#K"/></g><g id="w"><use transform="matrix(0.017361111111111112,0,0,0.017361111111111112,0,0)" xlink:href="#W"/><use transform="matrix(0.017361111111111112,0,0,0.017361111111111112,31.145833333333336,0)" xlink:href="#M"/><use transform="matrix(0.017361111111111112,0,0,0.017361111111111112,51.111111111111114,0)" xlink:href="#O"/></g><g id="x"><use transform="matrix(0.017361111111111112,0,0,0.017361111111111112,0,0)" xlink:href="#O"/><use transform="matrix(0.017361111111111112,0,0,0.017361111111111112,22.118055555555557,0)" xlink:href="#M"/><use transform="matrix(0.017361111111111112,0,0,0.017361111111111112,42.083333333333336,0)" xlink:href="#X"/><use transform="matrix(0.017361111111111112,0,0,0.017361111111111112,63.88888888888889,0)" xlink:href="#L"/></g><g id="y"><use transform="matrix(0.017361111111111112,0,0,0.017361111111111112,0,0)" xlink:href="#U"/><use transform="matrix(0.017361111111111112,0,0,0.017361111111111112,12.118055555555559,0)" xlink:href="#S"/><use transform="matrix(0.017361111111111112,0,0,0.017361111111111112,33.4375,0)" xlink:href="#Q"/><use transform="matrix(0.017361111111111112,0,0,0.017361111111111112,47.378472222222236,0)" xlink:href="#W"/></g><path d="M158 0v-1490h180v865h22l478-493h223L593-638 1096 0H865L456-523 338-412V0H158" id="ab"/><g id="z"><use transform="matrix(0.017361111111111112,0,0,0.017361111111111112,0,0)" xlink:href="#aa"/><use transform="matrix(0.017361111111111112,0,0,0.017361111111111112,28.45486111111111,0)" xlink:href="#S"/><use transform="matrix(0.017361111111111112,0,0,0.017361111111111112,49.77430555555556,0)" xlink:href="#Q"/><use transform="matrix(0.017361111111111112,0,0,0.017361111111111112,63.715277777777786,0)" xlink:href="#ab"/><use transform="matrix(0.017361111111111112,0,0,0.017361111111111112,83.22916666666667,0)" xlink:href="#K"/><use transform="matrix(0.017361111111111112,0,0,0.017361111111111112,101.99652777777779,0)" xlink:href="#O"/><use transform="matrix(0.017361111111111112,0,0,0.017361111111111112,124.11458333333334,0)" xlink:href="#M"/><use transform="matrix(0.017361111111111112,0,0,0.017361111111111112,144.07986111111111,0)" xlink:href="#R"/><use transform="matrix(0.017361111111111112,0,0,0.017361111111111112,164.39236111111111,0)" xlink:href="#L"/><use transform="matrix(0.017361111111111112,0,0,0.017361111111111112,185.1215277777778,0)" xlink:href="#K"/></g><g id="A"><use transform="matrix(0.017361111111111112,0,0,0.017361111111111112,0,0)" xlink:href="#R"/><use transform="matrix(0.017361111111111112,0,0,0.017361111111111112,20.3125,0)" xlink:href="#S"/><use transform="matrix(0.017361111111111112,0,0,0.017361111111111112,41.63194444444444,0)" xlink:href="#W"/><use transform="matrix(0.017361111111111112,0,0,0.017361111111111112,72.77777777777777,0)" xlink:href="#O"/><use transform="matrix(0.017361111111111112,0,0,0.017361111111111112,94.54861111111111,0)" xlink:href="#S"/><use transform="matrix(0.017361111111111112,0,0,0.017361111111111112,115.86805555555556,0)" xlink:href="#K"/><use transform="matrix(0.017361111111111112,0,0,0.017361111111111112,134.63541666666666,0)" xlink:href="#L"/><use transform="matrix(0.017361111111111112,0,0,0.017361111111111112,155.36458333333331,0)" xlink:href="#N"/></g><g id="B"><use transform="matrix(0.017361111111111112,0,0,0.017361111111111112,0,0)" xlink:href="#N"/><use transform="matrix(0.017361111111111112,0,0,0.017361111111111112,21.770833333333336,0)" xlink:href="#L"/><use transform="matrix(0.017361111111111112,0,0,0.017361111111111112,42.5,0)" xlink:href="#R"/><use transform="matrix(0.017361111111111112,0,0,0.017361111111111112,62.8125,0)" xlink:href="#S"/><use transform="matrix(0.017361111111111112,0,0,0.017361111111111112,84.13194444444444,0)" xlink:href="#Q"/><use transform="matrix(0.017361111111111112,0,0,0.017361111111111112,97.51736111111111,0)" xlink:href="#M"/><use transform="matrix(0.017361111111111112,0,0,0.017361111111111112,117.48263888888887,0)" xlink:href="#P"/><use transform="matrix(0.017361111111111112,0,0,0.017361111111111112,128.76736111111111,0)" xlink:href="#S"/><use transform="matrix(0.017361111111111112,0,0,0.017361111111111112,150.08680555555557,0)" xlink:href="#Q"/><use transform="matrix(0.017361111111111112,0,0,0.017361111111111112,163.47222222222223,0)" xlink:href="#K"/></g><g id="C"><use transform="matrix(0.017361111111111112,0,0,0.017361111111111112,0,0)" xlink:href="#N"/><use transform="matrix(0.017361111111111112,0,0,0.017361111111111112,21.770833333333336,0)" xlink:href="#Q"/><use transform="matrix(0.017361111111111112,0,0,0.017361111111111112,35.15625,0)" xlink:href="#M"/><use transform="matrix(0.017361111111111112,0,0,0.017361111111111112,55.12152777777778,0)" xlink:href="#aa"/></g><path d="M140 405l46-156c120 36 205 19 263-150l32-93L54-1118h197c107 313 237 620 324 950 87-331 219-637 326-950h196L606 167c-68 178-176 259-334 259-64 0-113-12-132-21" id="ac"/><g id="D"><use transform="matrix(0.017361111111111112,0,0,0.017361111111111112,0,0)" xlink:href="#K"/><use transform="matrix(0.017361111111111112,0,0,0.017361111111111112,18.76736111111111,0)" xlink:href="#P"/><use transform="matrix(0.017361111111111112,0,0,0.017361111111111112,31.09375,0)" xlink:href="#ac"/><use transform="matrix(0.017361111111111112,0,0,0.017361111111111112,51.25,0)" xlink:href="#I"/><use transform="matrix(0.017361111111111112,0,0,0.017361111111111112,59.861111111111114,0)" xlink:href="#L"/><use transform="matrix(0.017361111111111112,0,0,0.017361111111111112,80.59027777777779,0)" xlink:href="#K"/></g><g id="E"><use transform="matrix(0.017361111111111112,0,0,0.017361111111111112,0,0)" xlink:href="#M"/><use transform="matrix(0.017361111111111112,0,0,0.017361111111111112,19.96527777777778,0)" xlink:href="#X"/><use transform="matrix(0.017361111111111112,0,0,0.017361111111111112,41.770833333333336,0)" xlink:href="#L"/><use transform="matrix(0.017361111111111112,0,0,0.017361111111111112,62.5,0)" xlink:href="#T"/><use transform="matrix(0.017361111111111112,0,0,0.017361111111111112,83.50694444444444,0)" xlink:href="#P"/><use transform="matrix(0.017361111111111112,0,0,0.017361111111111112,94.79166666666666,0)" xlink:href="#K"/></g><g id="F"><use transform="matrix(0.017361111111111112,0,0,0.017361111111111112,0,0)" xlink:href="#N"/><use transform="matrix(0.017361111111111112,0,0,0.017361111111111112,21.770833333333336,0)" xlink:href="#M"/><use transform="matrix(0.017361111111111112,0,0,0.017361111111111112,41.736111111111114,0)" xlink:href="#P"/><use transform="matrix(0.017361111111111112,0,0,0.017361111111111112,53.54166666666667,0)" xlink:href="#M"/></g><g id="G"><use transform="matrix(0.017361111111111112,0,0,0.017361111111111112,0,0)" xlink:href="#L"/><use transform="matrix(0.017361111111111112,0,0,0.017361111111111112,20.729166666666668,0)" xlink:href="#T"/><use transform="matrix(0.017361111111111112,0,0,0.017361111111111112,41.215277777777786,0)" xlink:href="#V"/><use transform="matrix(0.017361111111111112,0,0,0.017361111111111112,61.19791666666667,0)" xlink:href="#J"/><use transform="matrix(0.017361111111111112,0,0,0.017361111111111112,69.80902777777779,0)" xlink:href="#Q"/><use transform="matrix(0.017361111111111112,0,0,0.017361111111111112,82.60416666666669,0)" xlink:href="#S"/><use transform="matrix(0.017361111111111112,0,0,0.017361111111111112,103.92361111111113,0)" xlink:href="#T"/><use transform="matrix(0.017361111111111112,0,0,0.017361111111111112,124.93055555555557,0)" xlink:href="#W"/><use transform="matrix(0.017361111111111112,0,0,0.017361111111111112,156.0763888888889,0)" xlink:href="#L"/><use transform="matrix(0.017361111111111112,0,0,0.017361111111111112,176.80555555555557,0)" xlink:href="#T"/><use transform="matrix(0.017361111111111112,0,0,0.017361111111111112,197.81250000000003,0)" xlink:href="#P"/><use transform="matrix(0.017361111111111112,0,0,0.017361111111111112,209.09722222222226,0)" xlink:href="#K"/></g></defs></g></svg>