<svg xmlns="http://www.w3.org/2000/svg" xmlns:xlink="http://www.w3.org/1999/xlink" xmlns:lucid="lucid" width="1282" height="574.67"><g transform="translate(-219 -359)" lucid:page-tab-id="heQZIhnGm2VW"><path d="M220 566a6 6 0 0 1 6-6h148a6 6 0 0 1 6 6v60.67a6 6 0 0 1-6 6H226a6 6 0 0 1-6-6z" stroke="#3a414a" stroke-width="2" fill="#cfe4ff"/><use xlink:href="#a" transform="matrix(1,0,0,1,232,572) translate(19.66558159722222 33.77777777777778)"/><path d="M520 566a6 6 0 0 1 6-6h148a6 6 0 0 1 6 6v60.67a6 6 0 0 1-6 6H526a6 6 0 0 1-6-6z" stroke="#3a414a" stroke-width="2" fill="#cfe4ff"/><use xlink:href="#b" transform="matrix(1,0,0,1,532,572) translate(4.02430555555555 33.77777777777778)"/><path d="M850 766a6 6 0 0 1 6-6h248a6 6 0 0 1 6 6v60.67a6 6 0 0 1-6 6H856a6 6 0 0 1-6-6z" stroke="#3a414a" stroke-width="2" fill="#cfe4ff"/><use xlink:href="#c" transform="matrix(1,0,0,1,862,772) translate(-0.5818142361110858 32.583767361111114)"/><path d="M1240 866a6 6 0 0 1 6-6h248a6 6 0 0 1 6 6v60.67a6 6 0 0 1-6 6h-248a6 6 0 0 1-6-6z" stroke="#3a414a" stroke-width="2" fill="#cfe4ff"/><use xlink:href="#d" transform="matrix(1,0,0,1,1252,872) translate(3.6716579861111427 33.77777777777778)"/><path d="M850 666a6 6 0 0 1 6-6h248a6 6 0 0 1 6 6v60.67a6 6 0 0 1-6 6H856a6 6 0 0 1-6-6z" stroke="#3a414a" stroke-width="2" fill="#cfe4ff"/><use xlink:href="#e" transform="matrix(1,0,0,1,862.0000000000001,672) translate(2.0494791666666856 33.77777777777778)"/><path d="M850 566a6 6 0 0 1 6-6h248a6 6 0 0 1 6 6v60.67a6 6 0 0 1-6 6H856a6 6 0 0 1-6-6z" stroke="#3a414a" stroke-width="2" fill="#cfe4ff"/><use xlink:href="#f" transform="matrix(1,0,0,1,861.9999999999999,572) translate(27.80360243055557 33.77777777777778)"/><path d="M850 466a6 6 0 0 1 6-6h248a6 6 0 0 1 6 6v60.67a6 6 0 0 1-6 6H856a6 6 0 0 1-6-6z" stroke="#3a414a" stroke-width="2" fill="#cfe4ff"/><use xlink:href="#g" transform="matrix(1,0,0,1,862.0000000000001,472) translate(23.799696180555557 33.77777777777778)"/><path d="M850 366a6 6 0 0 1 6-6h248a6 6 0 0 1 6 6v60.67a6 6 0 0 1-6 6H856a6 6 0 0 1-6-6z" stroke="#3a414a" stroke-width="2" fill="#cfe4ff"/><use xlink:href="#h" transform="matrix(1,0,0,1,862.0000000000001,372) translate(17.4140625 33.77777777777778)"/><path d="M1240 766a6 6 0 0 1 6-6h248a6 6 0 0 1 6 6v60.67a6 6 0 0 1-6 6h-248a6 6 0 0 1-6-6z" stroke="#3a414a" stroke-width="2" fill="#cfe4ff"/><use xlink:href="#i" transform="matrix(1,0,0,1,1252,772) translate(23.669487847222243 33.77777777777778)"/><path d="M1240 666a6 6 0 0 1 6-6h248a6 6 0 0 1 6 6v60.67a6 6 0 0 1-6 6h-248a6 6 0 0 1-6-6z" stroke="#3a414a" stroke-width="2" fill="#cfe4ff"/><use xlink:href="#j" transform="matrix(1,0,0,1,1252,672) translate(26.300781250000014 33.77777777777778)"/><path d="M1240 566a6 6 0 0 1 6-6h248a6 6 0 0 1 6 6v60.67a6 6 0 0 1-6 6h-248a6 6 0 0 1-6-6z" stroke="#3a414a" stroke-width="2" fill="#cfe4ff"/><use xlink:href="#k" transform="matrix(1,0,0,1,1252,572) translate(52.054904513888886 33.77777777777778)"/><path d="M1240 466a6 6 0 0 1 6-6h248a6 6 0 0 1 6 6v60.67a6 6 0 0 1-6 6h-248a6 6 0 0 1-6-6z" stroke="#3a414a" stroke-width="2" fill="#cfe4ff"/><use xlink:href="#l" transform="matrix(1,0,0,1,1252,472) translate(48.050998263888886 33.77777777777778)"/><path d="M1240 366a6 6 0 0 1 6-6h248a6 6 0 0 1 6 6v60.67a6 6 0 0 1-6 6h-248a6 6 0 0 1-6-6z" stroke="#3a414a" stroke-width="2" fill="#cfe4ff"/><use xlink:href="#m" transform="matrix(1,0,0,1,1252,372) translate(41.66536458333333 33.77777777777778)"/><path d="M382 596.33h106.25" stroke="#3a414a" stroke-width="2" fill="none"/><path d="M382.03 597.3H381v-1.94h1.03z" stroke="#3a414a" stroke-width=".05" fill="#3a414a"/><path d="M517.6 596.33l-14.86-14.85-14.85 14.85 14.84 14.85z" stroke="#3a414a" stroke-width="2" fill="#fff"/><path d="M682 596.3h1.18l2.12-.14 2.05-.22 2.02-.3 1.97-.38 1.95-.45 1.92-.53 1.9-.62 1.92-.7 1.92-.82 1.92-.9 1.95-1.02 1.97-1.13 2.02-1.28 2.06-1.44 2.12-1.6 2.2-1.83 2.27-2.06 2.4-2.34 2.52-2.7 2.7-3.12 2.88-3.65 3.16-4.35 3.52-5.3 4-6.63 4.8-8.72 6.25-12.67 14.1-32.2 16.5-37.9 6.25-12.66 4.8-8.73 4-6.64 3.5-5.3 3.17-4.35 2.9-3.65 2.7-3.12 2.5-2.7 2.4-2.34 2.3-2.06 2.18-1.82 2.12-1.6 2.06-1.44 2.02-1.28 1.97-1.14 1.95-1.02 1.92-.9 1.9-.8" stroke="#3a414a" stroke-width="2" stroke-linejoin="round" fill="none"/><path d="M682.05 597.3H681v-1.94l1-.02z" stroke="#3a414a" stroke-width=".05" fill="#3a414a"/><path d="M845.82 396.93l-13.16 7.2-1.72-9.1z" stroke="#3a414a" stroke-width="2" fill="#3a414a"/><path d="M682 596.3l3.3-.06 4-.25 3.8-.4 3.63-.54 3.45-.66 3.34-.78 3.22-.9 3.15-1.02 3.07-1.15 3.05-1.28 3.03-1.43 3.03-1.58 3.07-1.77 3.13-2 3.23-2.25 3.4-2.57 3.62-3 3.98-3.6 4.63-4.53 6-6.4 29.74-34.03 4.63-4.54 4-3.6 3.6-3 3.4-2.57 3.22-2.23 3.13-2 3.07-1.76 3.03-1.58 3.03-1.42 3.05-1.28 3.08-1.15 3.16-1.02 3.22-.9 3.34-.78.8-.16" stroke="#3a414a" stroke-width="2" stroke-linejoin="round" fill="none"/><path d="M682.05 597.3H681v-1.94l1-.02z" stroke="#3a414a" stroke-width=".05" fill="#3a414a"/><path d="M845.78 496.64l-13.75 6-.9-9.23z" stroke="#3a414a" stroke-width="2" fill="#3a414a"/><path d="M682 596.33h148.5" stroke="#3a414a" stroke-width="2" stroke-linejoin="round" fill="none"/><path d="M682.03 597.3H681v-1.94h1.03z" stroke="#3a414a" stroke-width=".05" fill="#3a414a"/><path d="M845.76 596.33l-14.26 4.64v-9.27z" stroke="#3a414a" stroke-width="2" fill="#3a414a"/><path d="M682 596.35l3.3.07 4 .25 3.8.4 3.63.54 3.45.67 3.34.78 3.22.9 3.15 1.02 3.07 1.15 3.05 1.28 3.03 1.42 3.03 1.6 3.07 1.76 3.13 2 3.23 2.24 3.4 2.57 3.62 3 3.98 3.58 4.63 4.53 6 6.43 29.74 34.02 4.63 4.54 4 3.58 3.6 3 3.4 2.57 3.22 2.25 3.13 2 3.07 1.76 3.03 1.58 3.03 1.43 3.05 1.28 3.08 1.15 3.16 1.02 3.22.9 3.34.78.8.15" stroke="#3a414a" stroke-width="2" stroke-linejoin="round" fill="none"/><path d="M682.05 595.38l-.04 1.95-1-.02v-1.94z" stroke="#3a414a" stroke-width=".05" fill="#3a414a"/><path d="M845.78 696.02l-14.65 3.24.9-9.23z" stroke="#3a414a" stroke-width="2" fill="#3a414a"/><path d="M682 596.35l1.18.03 2.12.13 2.05.23 2.02.3 1.97.37 1.95.46 1.92.54 1.9.62 1.92.7 1.92.82 1.92.9 1.95 1.02 1.97 1.14 2.02 1.28 2.06 1.43 2.12 1.62 2.2 1.82 2.27 2.05 2.4 2.34 2.52 2.7 2.7 3.1 2.88 3.67 3.16 4.37 3.52 5.3 4 6.63 4.8 8.72 6.25 12.67 14.1 32.18 16.5 37.9 6.25 12.67 4.8 8.72 4 6.63 3.5 5.3 3.17 4.35 2.9 3.66 2.7 3.13 2.5 2.7 2.4 2.34 2.3 2.06 2.18 1.82 2.12 1.6 2.06 1.44 2.02 1.27 1.97 1.14 1.95 1.02 1.92.9 1.9.8" stroke="#3a414a" stroke-width="2" stroke-linejoin="round" fill="none"/><path d="M682.05 595.38l-.04 1.95-1-.02v-1.94z" stroke="#3a414a" stroke-width=".05" fill="#3a414a"/><path d="M845.82 795.73l-14.88 1.9 1.72-9.1z" stroke="#3a414a" stroke-width="2" fill="#3a414a"/><path d="M1238 396.33h-108.5" stroke="#3a414a" stroke-width="2" fill="none"/><path d="M1239 397.3h-1.03v-1.94h1.03z" stroke="#3a414a" stroke-width=".05" fill="#3a414a"/><path d="M1114.24 396.33l14.26-4.63v9.27z" stroke="#3a414a" stroke-width="2" fill="#3a414a"/><path d="M1238 496.33h-108.5" stroke="#3a414a" stroke-width="2" fill="none"/><path d="M1239 497.3h-1.03v-1.94h1.03z" stroke="#3a414a" stroke-width=".05" fill="#3a414a"/><path d="M1114.24 496.33l14.26-4.63v9.27z" stroke="#3a414a" stroke-width="2" fill="#3a414a"/><path d="M1238 596.33h-108.5" stroke="#3a414a" stroke-width="2" fill="none"/><path d="M1239 597.3h-1.03v-1.94h1.03z" stroke="#3a414a" stroke-width=".05" fill="#3a414a"/><path d="M1114.24 596.33l14.26-4.63v9.27z" stroke="#3a414a" stroke-width="2" fill="#3a414a"/><path d="M1238 696.33h-108.5" stroke="#3a414a" stroke-width="2" fill="none"/><path d="M1239 697.3h-1.03v-1.94h1.03z" stroke="#3a414a" stroke-width=".05" fill="#3a414a"/><path d="M1114.24 696.33l14.26-4.63v9.27z" stroke="#3a414a" stroke-width="2" fill="#3a414a"/><path d="M1238 796.33h-108.5" stroke="#3a414a" stroke-width="2" fill="none"/><path d="M1239 797.3h-1.03v-1.94h1.03z" stroke="#3a414a" stroke-width=".05" fill="#3a414a"/><path d="M1114.24 796.33l14.26-4.63v9.27z" stroke="#3a414a" stroke-width="2" fill="#3a414a"/><path d="M1238 896.3l-1.5-.02-2.4-.15-2.3-.24-2.2-.33-2.13-.4-2.08-.5-2.04-.57-2-.64-1.96-.74-1.95-.82-1.95-.9-1.95-1.03-1.97-1.14-2-1.27-2.04-1.42-2.1-1.6-2.2-1.8-2.3-2.08-2.44-2.4-2.65-2.83-2.97-3.44-3.48-4.4-4.53-6.26-24.27-36.26-3.48-4.4-2.96-3.44-2.66-2.84-2.45-2.4-2.3-2.07-2.18-1.8-2.1-1.6-2.05-1.42-2-1.26-1.97-1.14-1.95-1.02-1.95-.92-1.95-.82-1.45-.54" stroke="#3a414a" stroke-width="2" stroke-linejoin="round" fill="none"/><path d="M1239 895.36v1.95h-1.05l.04-1.96z" stroke="#3a414a" stroke-width=".05" fill="#3a414a"/><path d="M1114.2 796.87l14.83-2.2-1.55 9.15z" stroke="#3a414a" stroke-width="2" fill="#3a414a"/><defs><path d="M52 0l541-1490h220L1361 0h-200l-149-416H398L254 0H52zm404-582h497c-103-290-145-390-251-756-108 377-145 460-246 756" id="n"/><path d="M158 418v-1536h174v179h20c37-59 106-193 324-193 279 0 474 222 474 576 0 356-194 580-473 580-213 0-288-135-325-197h-14v591H158zm492-555c209 0 317-186 317-421 0-232-105-413-317-413-206 0-314 166-314 413 0 249 111 421 314 421" id="o"/><path d="M657 26c-323 0-524-166-541-416h195c15 169 171 246 346 246 202 0 356-106 356-265 5-203-294-238-475-293-239-73-380-191-380-389 0-252 224-419 512-419 294 0 499 171 508 396H992c-17-145-151-228-328-228-193 0-321 102-321 242 0 156 175 211 284 241l149 41c160 44 422 134 422 412 0 244-197 432-541 432" id="p"/><path d="M598-1118v154H368v674c0 100 37 144 132 144 23 0 62-6 92-12L629-6c-37 13-88 20-134 20-193 0-307-107-307-290v-688H20v-154h168v-266h180v266h230" id="q"/><path d="M471 26C259 26 90-98 90-318c0-256 228-303 435-329 202-27 287-16 287-108 0-139-79-219-234-219-161 0-248 86-283 164l-173-57c86-203 278-265 451-265 150 0 419 46 419 395V0H815v-152h-12C765-73 660 26 471 26zm31-159c199 0 310-134 310-271v-155c-30 35-226 55-295 64-131 17-246 59-246 186 0 116 97 176 231 176" id="r"/><path d="M628 24c-324 0-524-230-524-574 0-343 198-582 503-582 237 0 487 146 487 559v75H286c9 234 145 362 343 362 132 0 231-58 273-172l174 48C1024-91 857 24 628 24zM287-650h624c-17-190-120-322-304-322-192 0-309 151-320 322" id="s"/><g id="a"><use transform="matrix(0.010850694444444444,0,0,0.010850694444444444,0,0)" xlink:href="#n"/><use transform="matrix(0.010850694444444444,0,0,0.010850694444444444,15.33203125,0)" xlink:href="#o"/><use transform="matrix(0.010850694444444444,0,0,0.010850694444444444,28.938802083333332,0)" xlink:href="#o"/><use transform="matrix(0.010850694444444444,0,0,0.010850694444444444,42.545572916666664,0)" xlink:href="#p"/><use transform="matrix(0.010850694444444444,0,0,0.010850694444444444,56.803385416666664,0)" xlink:href="#q"/><use transform="matrix(0.010850694444444444,0,0,0.010850694444444444,64.18185763888889,0)" xlink:href="#r"/><use transform="matrix(0.010850694444444444,0,0,0.010850694444444444,76.66015625,0)" xlink:href="#q"/><use transform="matrix(0.010850694444444444,0,0,0.010850694444444444,83.71310763888889,0)" xlink:href="#s"/></g><path d="M180 0v-1490h908v168H370v486h669v168H370v500h727V0H180" id="t"/><path d="M481 0L54-1118h197c107 314 236 620 325 951 87-331 217-637 324-951h197L670 0H481" id="u"/><path d="M338-670V0H158v-1118h173l1 207c72-158 192-221 342-221 226 0 378 139 378 422V0H872v-695c0-172-96-275-252-275-161 0-282 109-282 300" id="v"/><path d="M784 20c-382 0-662-292-662-764 0-473 280-766 662-766s660 293 660 766c0 282-99 499-260 629l192 255h-198L1049-33C969 2 880 20 784 20zm-62-486h198l156 205c112-98 183-261 183-483 0-383-209-590-475-590-268 0-477 208-477 590 0 380 209 588 477 588 54 0 106-9 154-25" id="w"/><path d="M537 14c-226 0-379-139-379-422v-710h180v695c0 172 97 275 253 275 160 0 281-109 281-300v-670h181V0H879v-209C806-46 684 14 537 14" id="x"/><g id="b"><use transform="matrix(0.010850694444444444,0,0,0.010850694444444444,0,0)" xlink:href="#t"/><use transform="matrix(0.010850694444444444,0,0,0.010850694444444444,13.35720486111111,0)" xlink:href="#u"/><use transform="matrix(0.010850694444444444,0,0,0.010850694444444444,25.41232638888889,0)" xlink:href="#s"/><use transform="matrix(0.010850694444444444,0,0,0.010850694444444444,38.36805555555555,0)" xlink:href="#v"/><use transform="matrix(0.010850694444444444,0,0,0.010850694444444444,51.49739583333333,0)" xlink:href="#q"/><use transform="matrix(0.010850694444444444,0,0,0.010850694444444444,58.76736111111111,0)" xlink:href="#w"/><use transform="matrix(0.010850694444444444,0,0,0.010850694444444444,75.75954861111111,0)" xlink:href="#x"/><use transform="matrix(0.010850694444444444,0,0,0.010850694444444444,88.89973958333334,0)" xlink:href="#s"/><use transform="matrix(0.010850694444444444,0,0,0.010850694444444444,101.85546875000001,0)" xlink:href="#x"/><use transform="matrix(0.010850694444444444,0,0,0.010850694444444444,114.99565972222224,0)" xlink:href="#s"/></g><path d="M158 0v-1118h180V0H158zm91-1301c-68 0-125-53-125-119s57-119 125-119c69 0 126 53 126 119s-57 119-126 119" id="y"/><path d="M158 0v-1118h175l1 205c55-151 181-225 313-225 147 0 245 90 285 228 53-141 190-228 352-228 194 0 352 125 352 384V0h-181v-749c0-161-105-225-225-225-151 0-243 103-243 244V0H807v-767c0-124-93-207-219-207-131 0-250 92-250 270V0H158" id="z"/><path d="M338-1490V0H158v-1490h180" id="A"/><path d="M613 24c-304 0-509-231-509-576 0-350 205-580 509-580 305 0 511 230 511 580 0 345-206 576-511 576zm0-161c226 0 329-195 329-415 0-222-103-419-329-419-223 0-326 196-326 419 0 220 103 415 326 415" id="B"/><g id="c"><use transform="matrix(0.010850694444444444,0,0,0.010850694444444444,0,0)" xlink:href="#p"/><use transform="matrix(0.010850694444444444,0,0,0.010850694444444444,14.2578125,0)" xlink:href="#y"/><use transform="matrix(0.010850694444444444,0,0,0.010850694444444444,19.639756944444443,0)" xlink:href="#z"/><use transform="matrix(0.010850694444444444,0,0,0.010850694444444444,39.10590277777777,0)" xlink:href="#x"/><use transform="matrix(0.010850694444444444,0,0,0.010850694444444444,52.246093749999986,0)" xlink:href="#A"/><use transform="matrix(0.010850694444444444,0,0,0.010850694444444444,57.628038194444436,0)" xlink:href="#r"/><use transform="matrix(0.010850694444444444,0,0,0.010850694444444444,70.10633680555554,0)" xlink:href="#q"/><use transform="matrix(0.010850694444444444,0,0,0.010850694444444444,77.37630208333331,0)" xlink:href="#y"/><use transform="matrix(0.010850694444444444,0,0,0.010850694444444444,82.75824652777776,0)" xlink:href="#B"/><use transform="matrix(0.010850694444444444,0,0,0.010850694444444444,96.08289930555553,0)" xlink:href="#v"/><use transform="matrix(0.010850694444444444,0,0,0.010850694444444444,109.21223958333331,0)" xlink:href="#t"/><use transform="matrix(0.010850694444444444,0,0,0.010850694444444444,122.56944444444441,0)" xlink:href="#u"/><use transform="matrix(0.010850694444444444,0,0,0.010850694444444444,134.6245659722222,0)" xlink:href="#s"/><use transform="matrix(0.010850694444444444,0,0,0.010850694444444444,147.58029513888886,0)" xlink:href="#v"/><use transform="matrix(0.010850694444444444,0,0,0.010850694444444444,160.70963541666663,0)" xlink:href="#q"/><use transform="matrix(0.010850694444444444,0,0,0.010850694444444444,167.9796006944444,0)" xlink:href="#w"/><use transform="matrix(0.010850694444444444,0,0,0.010850694444444444,184.9717881944444,0)" xlink:href="#x"/><use transform="matrix(0.010850694444444444,0,0,0.010850694444444444,198.11197916666663,0)" xlink:href="#s"/><use transform="matrix(0.010850694444444444,0,0,0.010850694444444444,211.0677083333333,0)" xlink:href="#x"/><use transform="matrix(0.010850694444444444,0,0,0.010850694444444444,224.20789930555551,0)" xlink:href="#s"/></g><path d="M370-1490V0H180v-1490h190" id="C"/><path d="M678-1118v154H420V0H240v-964H20v-154h220v-149c0-194 155-293 318-293 85 0 141 18 168 30l-50 154c-19-6-47-17-97-17-111 0-159 58-159 166v109h258" id="D"/><path d="M158 0v-1118h174v172h12c41-113 157-188 290-188 26 0 70 2 91 3v181c-11-2-60-10-108-10-161 0-279 109-279 260V0H158" id="E"/><path d="M613 24c-304 0-509-231-509-576 0-350 205-580 509-580 216 0 392 114 453 309l-173 49c-33-115-133-197-280-197-223 0-326 196-326 419 0 220 103 415 326 415 150 0 252-85 285-206l172 49C1010-95 832 24 613 24" id="F"/><g id="d"><use transform="matrix(0.010850694444444444,0,0,0.010850694444444444,0,0)" xlink:href="#p"/><use transform="matrix(0.010850694444444444,0,0,0.010850694444444444,14.2578125,0)" xlink:href="#y"/><use transform="matrix(0.010850694444444444,0,0,0.010850694444444444,19.639756944444443,0)" xlink:href="#z"/><use transform="matrix(0.010850694444444444,0,0,0.010850694444444444,39.10590277777777,0)" xlink:href="#x"/><use transform="matrix(0.010850694444444444,0,0,0.010850694444444444,52.246093749999986,0)" xlink:href="#A"/><use transform="matrix(0.010850694444444444,0,0,0.010850694444444444,57.628038194444436,0)" xlink:href="#r"/><use transform="matrix(0.010850694444444444,0,0,0.010850694444444444,70.10633680555554,0)" xlink:href="#q"/><use transform="matrix(0.010850694444444444,0,0,0.010850694444444444,77.37630208333331,0)" xlink:href="#y"/><use transform="matrix(0.010850694444444444,0,0,0.010850694444444444,82.75824652777776,0)" xlink:href="#B"/><use transform="matrix(0.010850694444444444,0,0,0.010850694444444444,96.08289930555553,0)" xlink:href="#v"/><use transform="matrix(0.010850694444444444,0,0,0.010850694444444444,109.21223958333331,0)" xlink:href="#C"/><use transform="matrix(0.010850694444444444,0,0,0.010850694444444444,115.18012152777773,0)" xlink:href="#v"/><use transform="matrix(0.010850694444444444,0,0,0.010850694444444444,128.30946180555551,0)" xlink:href="#D"/><use transform="matrix(0.010850694444444444,0,0,0.010850694444444444,135.88324652777774,0)" xlink:href="#B"/><use transform="matrix(0.010850694444444444,0,0,0.010850694444444444,149.20789930555551,0)" xlink:href="#p"/><use transform="matrix(0.010850694444444444,0,0,0.010850694444444444,163.46571180555551,0)" xlink:href="#s"/><use transform="matrix(0.010850694444444444,0,0,0.010850694444444444,176.42144097222217,0)" xlink:href="#E"/><use transform="matrix(0.010850694444444444,0,0,0.010850694444444444,185.13454861111106,0)" xlink:href="#u"/><use transform="matrix(0.010850694444444444,0,0,0.010850694444444444,197.62369791666657,0)" xlink:href="#y"/><use transform="matrix(0.010850694444444444,0,0,0.010850694444444444,203.00564236111106,0)" xlink:href="#F"/><use transform="matrix(0.010850694444444444,0,0,0.010850694444444444,215.70095486111106,0)" xlink:href="#s"/></g><path d="M98-1322v-168h1126v168H757V0H567v-1322H98" id="G"/><path d="M677 24c-213 0-288-135-325-197h-20V0H158v-1490h180v551h14c37-59 106-193 324-193 279 0 474 222 474 576 0 356-194 580-473 580zm-27-161c209 0 317-186 317-421 0-232-105-413-317-413-206 0-314 166-314 413 0 249 111 421 314 421" id="H"/><g id="e"><use transform="matrix(0.010850694444444444,0,0,0.010850694444444444,0,0)" xlink:href="#G"/><use transform="matrix(0.010850694444444444,0,0,0.010850694444444444,14.344618055555555,0)" xlink:href="#y"/><use transform="matrix(0.010850694444444444,0,0,0.010850694444444444,19.7265625,0)" xlink:href="#z"/><use transform="matrix(0.010850694444444444,0,0,0.010850694444444444,39.19270833333333,0)" xlink:href="#s"/><use transform="matrix(0.010850694444444444,0,0,0.010850694444444444,52.148437499999986,0)" xlink:href="#q"/><use transform="matrix(0.010850694444444444,0,0,0.010850694444444444,59.52690972222221,0)" xlink:href="#r"/><use transform="matrix(0.010850694444444444,0,0,0.010850694444444444,72.00520833333333,0)" xlink:href="#H"/><use transform="matrix(0.010850694444444444,0,0,0.010850694444444444,85.61197916666666,0)" xlink:href="#A"/><use transform="matrix(0.010850694444444444,0,0,0.010850694444444444,90.99392361111111,0)" xlink:href="#s"/><use transform="matrix(0.010850694444444444,0,0,0.010850694444444444,103.94965277777777,0)" xlink:href="#t"/><use transform="matrix(0.010850694444444444,0,0,0.010850694444444444,117.30685763888889,0)" xlink:href="#u"/><use transform="matrix(0.010850694444444444,0,0,0.010850694444444444,129.36197916666666,0)" xlink:href="#s"/><use transform="matrix(0.010850694444444444,0,0,0.010850694444444444,142.31770833333331,0)" xlink:href="#v"/><use transform="matrix(0.010850694444444444,0,0,0.010850694444444444,155.4470486111111,0)" xlink:href="#q"/><use transform="matrix(0.010850694444444444,0,0,0.010850694444444444,162.71701388888886,0)" xlink:href="#w"/><use transform="matrix(0.010850694444444444,0,0,0.010850694444444444,179.70920138888883,0)" xlink:href="#x"/><use transform="matrix(0.010850694444444444,0,0,0.010850694444444444,192.84939236111111,0)" xlink:href="#s"/><use transform="matrix(0.010850694444444444,0,0,0.010850694444444444,205.80512152777774,0)" xlink:href="#x"/><use transform="matrix(0.010850694444444444,0,0,0.010850694444444444,218.94531249999994,0)" xlink:href="#s"/></g><g id="f"><use transform="matrix(0.010850694444444444,0,0,0.010850694444444444,0,0)" xlink:href="#G"/><use transform="matrix(0.010850694444444444,0,0,0.010850694444444444,13.0859375,0)" xlink:href="#E"/><use transform="matrix(0.010850694444444444,0,0,0.010850694444444444,21.451822916666664,0)" xlink:href="#r"/><use transform="matrix(0.010850694444444444,0,0,0.010850694444444444,33.93012152777777,0)" xlink:href="#y"/><use transform="matrix(0.010850694444444444,0,0,0.010850694444444444,39.312065972222214,0)" xlink:href="#v"/><use transform="matrix(0.010850694444444444,0,0,0.010850694444444444,52.441406249999986,0)" xlink:href="#t"/><use transform="matrix(0.010850694444444444,0,0,0.010850694444444444,65.7986111111111,0)" xlink:href="#u"/><use transform="matrix(0.010850694444444444,0,0,0.010850694444444444,77.85373263888889,0)" xlink:href="#s"/><use transform="matrix(0.010850694444444444,0,0,0.010850694444444444,90.80946180555556,0)" xlink:href="#v"/><use transform="matrix(0.010850694444444444,0,0,0.010850694444444444,103.93880208333333,0)" xlink:href="#q"/><use transform="matrix(0.010850694444444444,0,0,0.010850694444444444,111.2087673611111,0)" xlink:href="#w"/><use transform="matrix(0.010850694444444444,0,0,0.010850694444444444,128.2009548611111,0)" xlink:href="#x"/><use transform="matrix(0.010850694444444444,0,0,0.010850694444444444,141.34114583333331,0)" xlink:href="#s"/><use transform="matrix(0.010850694444444444,0,0,0.010850694444444444,154.29687499999997,0)" xlink:href="#x"/><use transform="matrix(0.010850694444444444,0,0,0.010850694444444444,167.4370659722222,0)" xlink:href="#s"/></g><path d="M180 0v-1490h510c348 0 508 194 508 460 0 198-88 351-276 417L1256 0h-220L726-579c-117 2-238 0-356 1V0H180zm190-747h312c235 0 327-108 327-283 0-177-92-293-329-293H370v576" id="I"/><g id="g"><use transform="matrix(0.010850694444444444,0,0,0.010850694444444444,0,0)" xlink:href="#I"/><use transform="matrix(0.010850694444444444,0,0,0.010850694444444444,13.975694444444445,0)" xlink:href="#B"/><use transform="matrix(0.010850694444444444,0,0,0.010850694444444444,27.30034722222222,0)" xlink:href="#x"/><use transform="matrix(0.010850694444444444,0,0,0.010850694444444444,40.44053819444444,0)" xlink:href="#q"/><use transform="matrix(0.010850694444444444,0,0,0.010850694444444444,47.49348958333333,0)" xlink:href="#s"/><use transform="matrix(0.010850694444444444,0,0,0.010850694444444444,60.44921875,0)" xlink:href="#t"/><use transform="matrix(0.010850694444444444,0,0,0.010850694444444444,73.80642361111111,0)" xlink:href="#u"/><use transform="matrix(0.010850694444444444,0,0,0.010850694444444444,85.8615451388889,0)" xlink:href="#s"/><use transform="matrix(0.010850694444444444,0,0,0.010850694444444444,98.81727430555557,0)" xlink:href="#v"/><use transform="matrix(0.010850694444444444,0,0,0.010850694444444444,111.94661458333334,0)" xlink:href="#q"/><use transform="matrix(0.010850694444444444,0,0,0.010850694444444444,119.2165798611111,0)" xlink:href="#w"/><use transform="matrix(0.010850694444444444,0,0,0.010850694444444444,136.20876736111111,0)" xlink:href="#x"/><use transform="matrix(0.010850694444444444,0,0,0.010850694444444444,149.34895833333334,0)" xlink:href="#s"/><use transform="matrix(0.010850694444444444,0,0,0.010850694444444444,162.3046875,0)" xlink:href="#x"/><use transform="matrix(0.010850694444444444,0,0,0.010850694444444444,175.44487847222223,0)" xlink:href="#s"/></g><g id="h"><use transform="matrix(0.010850694444444444,0,0,0.010850694444444444,0,0)" xlink:href="#p"/><use transform="matrix(0.010850694444444444,0,0,0.010850694444444444,14.2578125,0)" xlink:href="#q"/><use transform="matrix(0.010850694444444444,0,0,0.010850694444444444,21.63628472222222,0)" xlink:href="#r"/><use transform="matrix(0.010850694444444444,0,0,0.010850694444444444,34.11458333333333,0)" xlink:href="#q"/><use transform="matrix(0.010850694444444444,0,0,0.010850694444444444,41.38454861111111,0)" xlink:href="#y"/><use transform="matrix(0.010850694444444444,0,0,0.010850694444444444,46.76649305555556,0)" xlink:href="#B"/><use transform="matrix(0.010850694444444444,0,0,0.010850694444444444,60.09114583333333,0)" xlink:href="#v"/><use transform="matrix(0.010850694444444444,0,0,0.010850694444444444,73.2204861111111,0)" xlink:href="#t"/><use transform="matrix(0.010850694444444444,0,0,0.010850694444444444,86.57769097222221,0)" xlink:href="#u"/><use transform="matrix(0.010850694444444444,0,0,0.010850694444444444,98.6328125,0)" xlink:href="#s"/><use transform="matrix(0.010850694444444444,0,0,0.010850694444444444,111.58854166666666,0)" xlink:href="#v"/><use transform="matrix(0.010850694444444444,0,0,0.010850694444444444,124.71788194444444,0)" xlink:href="#q"/><use transform="matrix(0.010850694444444444,0,0,0.010850694444444444,131.98784722222223,0)" xlink:href="#w"/><use transform="matrix(0.010850694444444444,0,0,0.010850694444444444,148.98003472222223,0)" xlink:href="#x"/><use transform="matrix(0.010850694444444444,0,0,0.010850694444444444,162.12022569444446,0)" xlink:href="#s"/><use transform="matrix(0.010850694444444444,0,0,0.010850694444444444,175.07595486111111,0)" xlink:href="#x"/><use transform="matrix(0.010850694444444444,0,0,0.010850694444444444,188.21614583333331,0)" xlink:href="#s"/></g><g id="i"><use transform="matrix(0.010850694444444444,0,0,0.010850694444444444,0,0)" xlink:href="#p"/><use transform="matrix(0.010850694444444444,0,0,0.010850694444444444,14.2578125,0)" xlink:href="#y"/><use transform="matrix(0.010850694444444444,0,0,0.010850694444444444,19.639756944444443,0)" xlink:href="#z"/><use transform="matrix(0.010850694444444444,0,0,0.010850694444444444,39.10590277777777,0)" xlink:href="#x"/><use transform="matrix(0.010850694444444444,0,0,0.010850694444444444,52.246093749999986,0)" xlink:href="#A"/><use transform="matrix(0.010850694444444444,0,0,0.010850694444444444,57.628038194444436,0)" xlink:href="#r"/><use transform="matrix(0.010850694444444444,0,0,0.010850694444444444,70.10633680555554,0)" xlink:href="#q"/><use transform="matrix(0.010850694444444444,0,0,0.010850694444444444,77.37630208333331,0)" xlink:href="#y"/><use transform="matrix(0.010850694444444444,0,0,0.010850694444444444,82.75824652777776,0)" xlink:href="#B"/><use transform="matrix(0.010850694444444444,0,0,0.010850694444444444,96.08289930555553,0)" xlink:href="#v"/><use transform="matrix(0.010850694444444444,0,0,0.010850694444444444,109.21223958333331,0)" xlink:href="#p"/><use transform="matrix(0.010850694444444444,0,0,0.010850694444444444,123.47005208333331,0)" xlink:href="#s"/><use transform="matrix(0.010850694444444444,0,0,0.010850694444444444,136.42578124999997,0)" xlink:href="#E"/><use transform="matrix(0.010850694444444444,0,0,0.010850694444444444,145.13888888888886,0)" xlink:href="#u"/><use transform="matrix(0.010850694444444444,0,0,0.010850694444444444,157.6280381944444,0)" xlink:href="#y"/><use transform="matrix(0.010850694444444444,0,0,0.010850694444444444,163.00998263888886,0)" xlink:href="#F"/><use transform="matrix(0.010850694444444444,0,0,0.010850694444444444,175.70529513888886,0)" xlink:href="#s"/></g><g id="j"><use transform="matrix(0.010850694444444444,0,0,0.010850694444444444,0,0)" xlink:href="#G"/><use transform="matrix(0.010850694444444444,0,0,0.010850694444444444,14.344618055555555,0)" xlink:href="#y"/><use transform="matrix(0.010850694444444444,0,0,0.010850694444444444,19.7265625,0)" xlink:href="#z"/><use transform="matrix(0.010850694444444444,0,0,0.010850694444444444,39.19270833333333,0)" xlink:href="#s"/><use transform="matrix(0.010850694444444444,0,0,0.010850694444444444,52.148437499999986,0)" xlink:href="#q"/><use transform="matrix(0.010850694444444444,0,0,0.010850694444444444,59.52690972222221,0)" xlink:href="#r"/><use transform="matrix(0.010850694444444444,0,0,0.010850694444444444,72.00520833333333,0)" xlink:href="#H"/><use transform="matrix(0.010850694444444444,0,0,0.010850694444444444,85.61197916666666,0)" xlink:href="#A"/><use transform="matrix(0.010850694444444444,0,0,0.010850694444444444,90.99392361111111,0)" xlink:href="#s"/><use transform="matrix(0.010850694444444444,0,0,0.010850694444444444,103.94965277777777,0)" xlink:href="#p"/><use transform="matrix(0.010850694444444444,0,0,0.010850694444444444,118.20746527777777,0)" xlink:href="#s"/><use transform="matrix(0.010850694444444444,0,0,0.010850694444444444,131.16319444444443,0)" xlink:href="#E"/><use transform="matrix(0.010850694444444444,0,0,0.010850694444444444,139.87630208333331,0)" xlink:href="#u"/><use transform="matrix(0.010850694444444444,0,0,0.010850694444444444,152.36545138888886,0)" xlink:href="#y"/><use transform="matrix(0.010850694444444444,0,0,0.010850694444444444,157.74739583333331,0)" xlink:href="#F"/><use transform="matrix(0.010850694444444444,0,0,0.010850694444444444,170.44270833333331,0)" xlink:href="#s"/></g><g id="k"><use transform="matrix(0.010850694444444444,0,0,0.010850694444444444,0,0)" xlink:href="#G"/><use transform="matrix(0.010850694444444444,0,0,0.010850694444444444,13.0859375,0)" xlink:href="#E"/><use transform="matrix(0.010850694444444444,0,0,0.010850694444444444,21.451822916666664,0)" xlink:href="#r"/><use transform="matrix(0.010850694444444444,0,0,0.010850694444444444,33.93012152777777,0)" xlink:href="#y"/><use transform="matrix(0.010850694444444444,0,0,0.010850694444444444,39.312065972222214,0)" xlink:href="#v"/><use transform="matrix(0.010850694444444444,0,0,0.010850694444444444,52.441406249999986,0)" xlink:href="#p"/><use transform="matrix(0.010850694444444444,0,0,0.010850694444444444,66.69921875,0)" xlink:href="#s"/><use transform="matrix(0.010850694444444444,0,0,0.010850694444444444,79.65494791666667,0)" xlink:href="#E"/><use transform="matrix(0.010850694444444444,0,0,0.010850694444444444,88.36805555555557,0)" xlink:href="#u"/><use transform="matrix(0.010850694444444444,0,0,0.010850694444444444,100.85720486111113,0)" xlink:href="#y"/><use transform="matrix(0.010850694444444444,0,0,0.010850694444444444,106.23914930555557,0)" xlink:href="#F"/><use transform="matrix(0.010850694444444444,0,0,0.010850694444444444,118.93446180555557,0)" xlink:href="#s"/></g><g id="l"><use transform="matrix(0.010850694444444444,0,0,0.010850694444444444,0,0)" xlink:href="#I"/><use transform="matrix(0.010850694444444444,0,0,0.010850694444444444,13.975694444444445,0)" xlink:href="#B"/><use transform="matrix(0.010850694444444444,0,0,0.010850694444444444,27.30034722222222,0)" xlink:href="#x"/><use transform="matrix(0.010850694444444444,0,0,0.010850694444444444,40.44053819444444,0)" xlink:href="#q"/><use transform="matrix(0.010850694444444444,0,0,0.010850694444444444,47.49348958333333,0)" xlink:href="#s"/><use transform="matrix(0.010850694444444444,0,0,0.010850694444444444,60.44921875,0)" xlink:href="#p"/><use transform="matrix(0.010850694444444444,0,0,0.010850694444444444,74.70703125,0)" xlink:href="#s"/><use transform="matrix(0.010850694444444444,0,0,0.010850694444444444,87.66276041666667,0)" xlink:href="#E"/><use transform="matrix(0.010850694444444444,0,0,0.010850694444444444,96.37586805555557,0)" xlink:href="#u"/><use transform="matrix(0.010850694444444444,0,0,0.010850694444444444,108.86501736111113,0)" xlink:href="#y"/><use transform="matrix(0.010850694444444444,0,0,0.010850694444444444,114.24696180555557,0)" xlink:href="#F"/><use transform="matrix(0.010850694444444444,0,0,0.010850694444444444,126.94227430555557,0)" xlink:href="#s"/></g><g id="m"><use transform="matrix(0.010850694444444444,0,0,0.010850694444444444,0,0)" xlink:href="#p"/><use transform="matrix(0.010850694444444444,0,0,0.010850694444444444,14.2578125,0)" xlink:href="#q"/><use transform="matrix(0.010850694444444444,0,0,0.010850694444444444,21.63628472222222,0)" xlink:href="#r"/><use transform="matrix(0.010850694444444444,0,0,0.010850694444444444,34.11458333333333,0)" xlink:href="#q"/><use transform="matrix(0.010850694444444444,0,0,0.010850694444444444,41.38454861111111,0)" xlink:href="#y"/><use transform="matrix(0.010850694444444444,0,0,0.010850694444444444,46.76649305555556,0)" xlink:href="#B"/><use transform="matrix(0.010850694444444444,0,0,0.010850694444444444,60.09114583333333,0)" xlink:href="#v"/><use transform="matrix(0.010850694444444444,0,0,0.010850694444444444,73.2204861111111,0)" xlink:href="#p"/><use transform="matrix(0.010850694444444444,0,0,0.010850694444444444,87.4782986111111,0)" xlink:href="#s"/><use transform="matrix(0.010850694444444444,0,0,0.010850694444444444,100.43402777777777,0)" xlink:href="#E"/><use transform="matrix(0.010850694444444444,0,0,0.010850694444444444,109.14713541666666,0)" xlink:href="#u"/><use transform="matrix(0.010850694444444444,0,0,0.010850694444444444,121.63628472222224,0)" xlink:href="#y"/><use transform="matrix(0.010850694444444444,0,0,0.010850694444444444,127.01822916666666,0)" xlink:href="#F"/><use transform="matrix(0.010850694444444444,0,0,0.010850694444444444,139.71354166666669,0)" xlink:href="#s"/></g></defs></g></svg>