<svg xmlns="http://www.w3.org/2000/svg" xmlns:xlink="http://www.w3.org/1999/xlink" xmlns:lucid="lucid" width="682" height="332.33"><g transform="translate(-359 -361.3333333333335)" lucid:page-tab-id="PbRZPpz-amgC"><path d="M360 368.33a6 6 0 0 1 6-6h288a6 6 0 0 1 6 6V429a6 6 0 0 1-6 6H366a6 6 0 0 1-6-6z" stroke="#3a414a" stroke-width="2" fill="#cfe4ff"/><use xlink:href="#a" transform="matrix(1,0,0,1,372,374.3333333333335) translate(4.482204861111114 33.77777777777778)"/><path d="M360 626a6 6 0 0 1 6-6h288a6 6 0 0 1 6 6v60.67a6 6 0 0 1-6 6H366a6 6 0 0 1-6-6z" stroke="#3a414a" stroke-width="2" fill="#cfe4ff"/><use xlink:href="#b" transform="matrix(1,0,0,1,372,632) translate(72.3478732638889 33.77777777777778)"/><path d="M740 626a6 6 0 0 1 6-6h288a6 6 0 0 1 6 6v60.67a6 6 0 0 1-6 6H746a6 6 0 0 1-6-6z" stroke="#3a414a" stroke-width="2" fill="#cfe4ff"/><use xlink:href="#c" transform="matrix(1,0,0,1,752,632) translate(52.23611111111114 33.77777777777778)"/><path d="M740 368.33a6 6 0 0 1 6-6h288a6 6 0 0 1 6 6V429a6 6 0 0 1-6 6H746a6 6 0 0 1-6-6z" stroke="#3a414a" stroke-width="2" fill="#cfe4ff"/><use xlink:href="#d" transform="matrix(1,0,0,1,752,374.3333333333335) translate(32.162326388888914 33.77777777777778)"/><path d="M511 437.33l.08 1.3.14 1.3.2 1.28.23 1.3.3 1.26.36 1.27.42 1.28.5 1.3.54 1.32.63 1.34.7 1.36.8 1.4.93 1.45 1.04 1.5 1.18 1.55 1.34 1.62 1.53 1.7 1.76 1.8 2.03 1.9 2.36 2.05 2.76 2.18 3.27 2.38 3.9 2.6 4.74 2.85 5.82 3.2 7.3 3.62 9.42 4.2 12.6 4.97 17.95 6.2 179.87 46.85 28.98 8.68 18.02 6.25 12.7 5 9.5 4.23 7.37 3.67 5.9 3.23 4.8 2.9 3.98 2.64 3.34 2.42 2.83 2.24 2.43 2.1 2.1 1.96 1.8 1.86 1.6 1.76 1.4 1.7 1.23 1.6 1.1 1.57.96 1.52.85 1.47.76 1.44.66 1.4.6 1.4.5 1.37.44 1.36.38 1.36.3 1.35.27 1.36.2 1.36.16 1.38.1 1.38v.4l-1.96.04v-.35l-.1-1.3-.12-1.3-.2-1.28-.23-1.28-.3-1.28-.36-1.27-.42-1.28-.5-1.3-.54-1.32-.63-1.34-.7-1.36-.8-1.4-.93-1.45-1.04-1.5-1.18-1.55-1.34-1.62-1.53-1.7-1.76-1.8-2.03-1.9-2.36-2.05-2.76-2.18-3.27-2.38-3.9-2.6-4.74-2.85-5.82-3.2-7.3-3.62-9.42-4.2-12.6-4.97-17.97-6.2-28.88-8.67-179.92-46.86-18.04-6.25-12.7-5-9.5-4.23-7.37-3.67-5.9-3.23-4.8-2.9-3.98-2.64-3.34-2.42-2.83-2.24-2.43-2.1-2.1-1.96-1.8-1.86-1.6-1.76-1.4-1.7-1.23-1.6-1.1-1.57-.96-1.52-.85-1.47-.76-1.44-.66-1.4-.6-1.4-.5-1.37-.44-1.36-.38-1.36-.3-1.35-.27-1.36-.2-1.36-.16-1.38-.1-1.38v-.4l1.96-.04z" stroke="#3a414a" stroke-width=".05" fill="#3a414a"/><path d="M890.98 619H889l-.02-1 1.95-.05z" fill="#3a414a"/><path stroke="#3a414a" stroke-width=".05" fill="#3a414a"/><path d="M510.98 437.03h-1.96V436h1.96z" fill="#3a414a"/><path stroke="#3a414a" stroke-width=".05" fill="#3a414a"/><path d="M510 618V466.75" stroke="#3a414a" stroke-width="2" fill="none"/><path d="M510.98 619h-1.96v-1.03h1.96z" stroke="#3a414a" stroke-width=".05" fill="#3a414a"/><path d="M510 437.4l-14.85 14.86L510 467.1l14.85-14.84z" stroke="#3a414a" stroke-width="2" fill="#fff"/><path d="M738 398.67h-61" stroke="#3a414a" stroke-width="2" fill="none"/><path d="M739 399.64h-1.03v-1.95H739z" stroke="#3a414a" stroke-width=".05" fill="#3a414a"/><path d="M663 398.67l13-7.5v15z" stroke="#3a414a" stroke-width="2" fill="#3a414a"/><path d="M939.6 617.52l.02.46-1.95.04v-.43l-.1-1.56 1.95-.1zm-2.1-12.4l.64 2.38.08.32-1.9.44-.07-.28-.63-2.3-.38-1.22 1.85-.6zm-4.46-11.28l1.1 2.4-1.76.82-1.1-2.36-.63-1.24 1.73-.9zm-6.32-11l1.66 2.64-1.65 1.04-1.64-2.62-.52-.74 1.6-1.1zm-6.44-8.96l1.2 1.6-1.57 1.16-1.16-1.56-1.3-1.58 1.52-1.23zm-8.96-10.47l2.4 2.7-1.47 1.3-2.36-2.66-.3-.32 1.4-1.35zm-5.98-6.14l-1.34 1.42-2.93-2.78 1.35-1.4zm-8.9-8.24l-1.28 1.47-3.04-2.66 1.28-1.47zm-9.3-7.8l-1.2 1.53-3.16-2.52 1.22-1.52zm-9.64-7.35l-1.16 1.58-3.24-2.4 1.15-1.56zm-41.72-25.48h-4.04l.8-1.64zm-10.5-5.17l-.82 1.77-3.67-1.66.8-1.77zm-11.1-4.96l-.72 1.8-3.74-1.5.73-1.8zm-11.76-4.74l.56.23-.73 1.8-.53-.2-3.22-1.15.65-1.83zm-12.9-4.57l2.03.7-.65 1.85-1.98-.7-1.8-.55.57-1.86zm-12.75-3.94l3.22 1-.6 1.86-3.16-1-.65-.15.5-1.9zm-8.48-2.23l-.5 1.87-3.9-1.02.5-1.9zM756.47 480l-.4 1.9-3.95-.83.4-1.92zm-11.88-2.47l-.32 1.92-3.98-.67.33-1.92zm-11.92-2l-.33 1.9-3.97-.66.32-1.93zM720.62 474l-.2 1.94-4-.38.2-1.94zm-12.04-1.14l-.18 1.94-4.02-.38.2-1.94zm-12.04-1.14l-.18 1.94-4-.38.17-1.94zm-12.03-1.14l-.18 1.94-4-.38.17-1.94zm-12.03-1.14l-.2 1.94-4-.37.2-1.95zm-12.04-1.13l-.18 1.94-4.02-.38.2-1.95zm-14.7-1.4l2.66.25-.2 1.95-2.67-.26-1.36-.17.24-1.93zm-9.58-1.2l.26.05-.23 1.93-.3-.03-3.7-.62.3-1.92zm-13.4-2.7l1.92.48-.5 1.9-1.94-.5-1.97-.6.57-1.86zm-12.05-5.07l1.1.68 1.25.68.44.22-.87 1.75-.48-.25-1.3-.72-1.2-.72-.6-.4 1.07-1.62zm-7.08-6.75l.5.73.33.43-1.55 1.18-.35-.47-.55-.78-.3-.48 1.65-1.04z" stroke="#3a414a" stroke-width=".05" fill="#3a414a"/><path d="M609.6 448.7l-14.54 3.67 4.1-14.43z" fill="#3a414a"/><path d="M611.48 449.23l-17.82 4.5 5.02-17.68zM596.46 451l11.27-2.83-8.1-8.34z" stroke="#3a414a" stroke-width=".05" fill="#3a414a"/><path d="M939.64 619h-1.95l-.03-1 1.95-.04z" fill="#3a414a"/><path stroke="#3a414a" stroke-width=".05" fill="#3a414a"/><use xlink:href="#e" transform="matrix(1,0,0,1,808.0404578111854,508.3859042718795) translate(0 17.22222222222222)"/><defs><path d="M180 0v-1490h908v168H370v486h669v168H370v500h727V0H180" id="f"/><path d="M338-670V0H158v-1118h173l1 207c72-158 192-221 342-221 226 0 378 139 378 422V0H872v-695c0-172-96-275-252-275-161 0-282 109-282 300" id="g"/><path d="M481 0L54-1118h197c107 314 236 620 325 951 87-331 217-637 324-951h197L670 0H481" id="h"/><path d="M158 0v-1118h180V0H158zm91-1301c-68 0-125-53-125-119s57-119 125-119c69 0 126 53 126 119s-57 119-126 119" id="i"/><path d="M158 0v-1118h174v172h12c41-113 157-188 290-188 26 0 70 2 91 3v181c-11-2-60-10-108-10-161 0-279 109-279 260V0H158" id="j"/><path d="M613 24c-304 0-509-231-509-576 0-350 205-580 509-580 305 0 511 230 511 580 0 345-206 576-511 576zm0-161c226 0 329-195 329-415 0-222-103-419-329-419-223 0-326 196-326 419 0 220 103 415 326 415" id="k"/><path d="M158 0v-1118h175l1 205c55-151 181-225 313-225 147 0 245 90 285 228 53-141 190-228 352-228 194 0 352 125 352 384V0h-181v-749c0-161-105-225-225-225-151 0-243 103-243 244V0H807v-767c0-124-93-207-219-207-131 0-250 92-250 270V0H158" id="l"/><path d="M628 24c-324 0-524-230-524-574 0-343 198-582 503-582 237 0 487 146 487 559v75H286c9 234 145 362 343 362 132 0 231-58 273-172l174 48C1024-91 857 24 628 24zM287-650h624c-17-190-120-322-304-322-192 0-309 151-320 322" id="m"/><path d="M598-1118v154H368v674c0 100 37 144 132 144 23 0 62-6 92-12L629-6c-37 13-88 20-134 20-193 0-307-107-307-290v-688H20v-154h168v-266h180v266h230" id="n"/><path d="M538 24C308 24 148-78 108-271l171-41c32 123 123 178 257 178 156 0 256-77 256-169 0-77-54-128-164-154l-186-44c-203-48-300-148-300-305 0-192 176-326 414-326 230 0 351 112 402 269l-163 42c-31-80-94-158-238-158-133 0-233 69-233 162 0 83 57 129 188 160l169 40c203 48 298 149 298 302 0 196-179 339-441 339" id="o"/><path d="M783 20c-382 0-661-292-661-764 0-473 279-766 661-766 302 0 548 182 601 489h-190c-42-204-217-313-411-313-268 0-476 208-476 590 0 381 209 588 476 588 195 0 369-110 411-313h190c-52 303-296 489-601 489" id="p"/><path d="M577 24c-279 0-473-224-473-580 0-354 195-576 474-576 218 0 287 134 324 193h14v-551h180V0H922v-173h-20C865-111 790 24 577 24zm27-161c203 0 314-172 314-421 0-247-108-413-314-413-212 0-317 181-317 413 0 235 108 421 317 421" id="q"/><path d="M471 26C259 26 90-98 90-318c0-256 228-303 435-329 202-27 287-16 287-108 0-139-79-219-234-219-161 0-248 86-283 164l-173-57c86-203 278-265 451-265 150 0 419 46 419 395V0H815v-152h-12C765-73 660 26 471 26zm31-159c199 0 310-134 310-271v-155c-30 35-226 55-295 64-131 17-246 59-246 186 0 116 97 176 231 176" id="r"/><g id="a"><use transform="matrix(0.010850694444444444,0,0,0.010850694444444444,0,0)" xlink:href="#f"/><use transform="matrix(0.010850694444444444,0,0,0.010850694444444444,13.35720486111111,0)" xlink:href="#g"/><use transform="matrix(0.010850694444444444,0,0,0.010850694444444444,26.161024305555554,0)" xlink:href="#h"/><use transform="matrix(0.010850694444444444,0,0,0.010850694444444444,38.65017361111111,0)" xlink:href="#i"/><use transform="matrix(0.010850694444444444,0,0,0.010850694444444444,44.03211805555555,0)" xlink:href="#j"/><use transform="matrix(0.010850694444444444,0,0,0.010850694444444444,52.0290798611111,0)" xlink:href="#k"/><use transform="matrix(0.010850694444444444,0,0,0.010850694444444444,65.35373263888887,0)" xlink:href="#g"/><use transform="matrix(0.010850694444444444,0,0,0.010850694444444444,78.48307291666664,0)" xlink:href="#l"/><use transform="matrix(0.010850694444444444,0,0,0.010850694444444444,97.94921874999997,0)" xlink:href="#m"/><use transform="matrix(0.010850694444444444,0,0,0.010850694444444444,110.90494791666664,0)" xlink:href="#g"/><use transform="matrix(0.010850694444444444,0,0,0.010850694444444444,124.03428819444441,0)" xlink:href="#n"/><use transform="matrix(0.010850694444444444,0,0,0.010850694444444444,131.08723958333331,0)" xlink:href="#o"/><use transform="matrix(0.010850694444444444,0,0,0.010850694444444444,142.81684027777777,0)" xlink:href="#p"/><use transform="matrix(0.010850694444444444,0,0,0.010850694444444444,159.04947916666666,0)" xlink:href="#k"/><use transform="matrix(0.010850694444444444,0,0,0.010850694444444444,172.37413194444443,0)" xlink:href="#k"/><use transform="matrix(0.010850694444444444,0,0,0.010850694444444444,185.69878472222223,0)" xlink:href="#j"/><use transform="matrix(0.010850694444444444,0,0,0.010850694444444444,193.69574652777774,0)" xlink:href="#q"/><use transform="matrix(0.010850694444444444,0,0,0.010850694444444444,207.30251736111111,0)" xlink:href="#i"/><use transform="matrix(0.010850694444444444,0,0,0.010850694444444444,212.68446180555554,0)" xlink:href="#g"/><use transform="matrix(0.010850694444444444,0,0,0.010850694444444444,225.81380208333331,0)" xlink:href="#r"/><use transform="matrix(0.010850694444444444,0,0,0.010850694444444444,238.29210069444443,0)" xlink:href="#n"/><use transform="matrix(0.010850694444444444,0,0,0.010850694444444444,245.34505208333331,0)" xlink:href="#k"/><use transform="matrix(0.010850694444444444,0,0,0.010850694444444444,258.6697048611111,0)" xlink:href="#j"/></g><g id="b"><use transform="matrix(0.010850694444444444,0,0,0.010850694444444444,0,0)" xlink:href="#f"/><use transform="matrix(0.010850694444444444,0,0,0.010850694444444444,13.35720486111111,0)" xlink:href="#g"/><use transform="matrix(0.010850694444444444,0,0,0.010850694444444444,26.161024305555554,0)" xlink:href="#h"/><use transform="matrix(0.010850694444444444,0,0,0.010850694444444444,38.65017361111111,0)" xlink:href="#i"/><use transform="matrix(0.010850694444444444,0,0,0.010850694444444444,44.03211805555555,0)" xlink:href="#j"/><use transform="matrix(0.010850694444444444,0,0,0.010850694444444444,52.0290798611111,0)" xlink:href="#k"/><use transform="matrix(0.010850694444444444,0,0,0.010850694444444444,65.35373263888887,0)" xlink:href="#g"/><use transform="matrix(0.010850694444444444,0,0,0.010850694444444444,78.48307291666664,0)" xlink:href="#l"/><use transform="matrix(0.010850694444444444,0,0,0.010850694444444444,97.94921874999997,0)" xlink:href="#m"/><use transform="matrix(0.010850694444444444,0,0,0.010850694444444444,110.90494791666664,0)" xlink:href="#g"/><use transform="matrix(0.010850694444444444,0,0,0.010850694444444444,124.03428819444441,0)" xlink:href="#n"/></g><path d="M657 26c-323 0-524-166-541-416h195c15 169 171 246 346 246 202 0 356-106 356-265 5-203-294-238-475-293-239-73-380-191-380-389 0-252 224-419 512-419 294 0 499 171 508 396H992c-17-145-151-228-328-228-193 0-321 102-321 242 0 156 175 211 284 241l149 41c160 44 422 134 422 412 0 244-197 432-541 432" id="s"/><path d="M537 14c-226 0-379-139-379-422v-710h180v695c0 172 97 275 253 275 160 0 281-109 281-300v-670h181V0H879v-209C806-46 684 14 537 14" id="t"/><path d="M338-1490V0H158v-1490h180" id="u"/><path d="M52 0l541-1490h220L1361 0h-200l-149-416H398L254 0H52zm404-582h497c-103-290-145-390-251-756-108 377-145 460-246 756" id="v"/><path d="M611 442c-248 0-391-105-460-228l146-94c47 65 117 165 314 165 178 0 307-82 307-266v-224h-17C863-141 792-18 576-18c-268 0-472-195-472-546 0-346 197-568 476-568 216 0 288 133 326 193h17v-179h175V29c0 289-215 413-487 413zm-5-620c203 0 314-146 314-390 0-237-108-403-314-403-213 0-319 180-319 403 0 230 109 390 319 390" id="w"/><g id="c"><use transform="matrix(0.010850694444444444,0,0,0.010850694444444444,0,0)" xlink:href="#s"/><use transform="matrix(0.010850694444444444,0,0,0.010850694444444444,14.2578125,0)" xlink:href="#i"/><use transform="matrix(0.010850694444444444,0,0,0.010850694444444444,19.639756944444443,0)" xlink:href="#l"/><use transform="matrix(0.010850694444444444,0,0,0.010850694444444444,39.10590277777777,0)" xlink:href="#t"/><use transform="matrix(0.010850694444444444,0,0,0.010850694444444444,52.246093749999986,0)" xlink:href="#u"/><use transform="matrix(0.010850694444444444,0,0,0.010850694444444444,57.628038194444436,0)" xlink:href="#r"/><use transform="matrix(0.010850694444444444,0,0,0.010850694444444444,70.10633680555554,0)" xlink:href="#n"/><use transform="matrix(0.010850694444444444,0,0,0.010850694444444444,77.37630208333331,0)" xlink:href="#i"/><use transform="matrix(0.010850694444444444,0,0,0.010850694444444444,82.75824652777776,0)" xlink:href="#k"/><use transform="matrix(0.010850694444444444,0,0,0.010850694444444444,96.08289930555553,0)" xlink:href="#g"/><use transform="matrix(0.010850694444444444,0,0,0.010850694444444444,109.21223958333331,0)" xlink:href="#v"/><use transform="matrix(0.010850694444444444,0,0,0.010850694444444444,124.54427083333331,0)" xlink:href="#w"/><use transform="matrix(0.010850694444444444,0,0,0.010850694444444444,138.17274305555551,0)" xlink:href="#m"/><use transform="matrix(0.010850694444444444,0,0,0.010850694444444444,151.12847222222217,0)" xlink:href="#g"/><use transform="matrix(0.010850694444444444,0,0,0.010850694444444444,164.25781249999994,0)" xlink:href="#n"/></g><path d="M180 0v-1490h510c348 0 508 194 508 460 0 198-88 351-276 417L1256 0h-220L726-579c-117 2-238 0-356 1V0H180zm190-747h312c235 0 327-108 327-283 0-177-92-293-329-293H370v576" id="x"/><path d="M409 0L70-1118h191c89 329 165 560 243 925 75-353 154-601 240-925h192c85 325 161 564 235 922 77-354 157-598 244-922h191L1267 0h-179c-86-307-176-590-250-913C763-588 675-308 588 0H409" id="y"/><path d="M140 405l46-156c120 36 205 19 263-150l32-93L54-1118h197c107 313 237 620 324 950 87-331 219-637 326-950h196L606 167c-68 178-176 259-334 259-64 0-113-12-132-21" id="z"/><g id="d"><use transform="matrix(0.010850694444444444,0,0,0.010850694444444444,0,0)" xlink:href="#x"/><use transform="matrix(0.010850694444444444,0,0,0.010850694444444444,14.192708333333332,0)" xlink:href="#r"/><use transform="matrix(0.010850694444444444,0,0,0.010850694444444444,26.671006944444443,0)" xlink:href="#i"/><use transform="matrix(0.010850694444444444,0,0,0.010850694444444444,32.052951388888886,0)" xlink:href="#u"/><use transform="matrix(0.010850694444444444,0,0,0.010850694444444444,37.43489583333333,0)" xlink:href="#y"/><use transform="matrix(0.010850694444444444,0,0,0.010850694444444444,55.62065972222221,0)" xlink:href="#r"/><use transform="matrix(0.010850694444444444,0,0,0.010850694444444444,67.77343749999999,0)" xlink:href="#z"/><use transform="matrix(0.010850694444444444,0,0,0.010850694444444444,80.37109374999999,0)" xlink:href="#f"/><use transform="matrix(0.010850694444444444,0,0,0.010850694444444444,93.72829861111111,0)" xlink:href="#g"/><use transform="matrix(0.010850694444444444,0,0,0.010850694444444444,106.53211805555556,0)" xlink:href="#h"/><use transform="matrix(0.010850694444444444,0,0,0.010850694444444444,119.0212673611111,0)" xlink:href="#i"/><use transform="matrix(0.010850694444444444,0,0,0.010850694444444444,124.40321180555556,0)" xlink:href="#j"/><use transform="matrix(0.010850694444444444,0,0,0.010850694444444444,132.4001736111111,0)" xlink:href="#k"/><use transform="matrix(0.010850694444444444,0,0,0.010850694444444444,145.72482638888886,0)" xlink:href="#g"/><use transform="matrix(0.010850694444444444,0,0,0.010850694444444444,158.85416666666663,0)" xlink:href="#l"/><use transform="matrix(0.010850694444444444,0,0,0.010850694444444444,178.32031249999994,0)" xlink:href="#m"/><use transform="matrix(0.010850694444444444,0,0,0.010850694444444444,191.27604166666663,0)" xlink:href="#g"/><use transform="matrix(0.010850694444444444,0,0,0.010850694444444444,204.4053819444444,0)" xlink:href="#n"/></g><path fill="#333" d="M537 19C279 19 81-185 81-557c0-382 206-575 454-575 190 0 278 113 318 202h10v-560h300V0H868v-179h-15C812-89 719 19 537 19zm92-241c153 0 240-134 240-336 0-203-86-334-240-334-158 0-240 138-240 334 0 197 84 336 240 336" id="A"/><path fill="#333" d="M633 22C291 22 81-200 81-553c0-345 210-579 537-579 292 0 525 185 525 567v84H378c7 183 109 277 260 277 105 0 184-46 216-132l272 51C1071-99 893 22 633 22zM380-669h474c-15-146-94-237-233-237-143 0-229 99-241 237" id="B"/><path fill="#333" d="M128 418v-1536h295v188h14c41-89 129-202 319-202 248 0 453 193 453 575 0 372-197 576-455 576-183 0-275-108-317-198h-9v597H128zm534-640c156 0 240-139 240-336 0-196-83-334-240-334-154 0-241 131-241 334 0 202 88 336 241 336" id="C"/><path fill="#333" d="M428-647V0H128v-1118h283l4 231c63-156 176-245 348-245 232 0 384 159 384 421V0H847v-659c0-139-76-222-202-222-128 0-217 86-217 234" id="D"/><path fill="#333" d="M789 20C394 20 94-260 94-744c0-487 300-766 695-766s695 279 695 766c0 485-300 764-695 764zm0-271c231 0 385-174 385-493 0-321-154-495-385-495s-385 175-385 495c0 319 154 493 385 493" id="E"/><g id="e"><use transform="matrix(0.008680555555555556,0,0,0.008680555555555556,0,0)" xlink:href="#A"/><use transform="matrix(0.008680555555555556,0,0,0.008680555555555556,11.206597222222223,0)" xlink:href="#B"/><use transform="matrix(0.008680555555555556,0,0,0.008680555555555556,21.796875,0)" xlink:href="#C"/><use transform="matrix(0.008680555555555556,0,0,0.008680555555555556,33.00347222222222,0)" xlink:href="#B"/><use transform="matrix(0.008680555555555556,0,0,0.008680555555555556,43.59375,0)" xlink:href="#D"/><use transform="matrix(0.008680555555555556,0,0,0.008680555555555556,54.661458333333336,0)" xlink:href="#A"/><use transform="matrix(0.008680555555555556,0,0,0.008680555555555556,65.86805555555556,0)" xlink:href="#E"/><use transform="matrix(0.008680555555555556,0,0,0.008680555555555556,79.56597222222223,0)" xlink:href="#D"/></g></defs></g></svg>