<svg xmlns="http://www.w3.org/2000/svg" xmlns:xlink="http://www.w3.org/1999/xlink" xmlns:lucid="lucid" width="882" height="487.33"><g transform="translate(-359 41)" lucid:page-tab-id="9KRZdOokvx.-"><path d="M917.18 230.68l-.04-.1-.05-.15-.08-.16-.07-.16-.1-.16-.1-.18-.12-.2-.13-.18-.16-.22-.2-.22-.2-.25-.27-.27-.3-.3-.38-.3-.45-.36-.55-.4-.67-.44-.84-.5-1.07-.6-1.38-.67-1.83-.82-2.5-.98-3.46-1.2-5-1.5-7.5-1.9L878.2 216l-18.25-3.05-28.22-3.52-39.68-3.3-46.98-1.94-34.4-.2-138.97 3.3-12.98-.68-8.84-.83-6.5-.9-5-.9-3.98-.88-3.24-.87-2.68-.84-2.26-.8-1.94-.8-1.66-.76-1.46-.74-1.27-.72-1.14-.7-1-.7-.9-.66-.83-.66-.73-.64-.67-.65-.6-.63-.57-.63-.5-.62-.47-.63-.44-.63-.4-.64-.36-.64-.33-.65-.3-.67-.27-.68-.25-.68-.22-.7-.2-.74-.17-.76-.14-.78-.1-.83-.1-.85-.04-.9v-.95l.03-1 .1-1.1.12-1.15.2-1.25.17-.83" stroke="#3a414a" stroke-width="2" stroke-linejoin="round" fill="none"/><path d="M918.3 231.67h-1.94l-.02-1 1.95-.05zM510.72 174.88l-1.9-.43.18-.78h2z" stroke="#3a414a" stroke-width=".05" fill="#3a414a"/><path d="M1089.94 370.67v-.12l-.06-.36-.07-.36-.07-.34-.1-.35-.1-.34-.13-.32-.15-.35-.16-.34-.2-.35-.2-.35-.2-.36-.27-.36-.28-.37-.3-.37-.37-.4-.4-.4-.45-.42-.5-.44-.6-.46-.68-.5-.8-.52-.9-.56-1.1-.6-1.33-.65-1.6-.72-2-.8-2.56-.87-3.34-1-4.6-1.2-6.82-1.42-11.72-1.96-86.28-11.52-11.72-2.48-8.68-2.22-6.77-2.04-5.46-1.9-4.5-1.77-3.78-1.68-3.22-1.6-2.76-1.52-2.4-1.45-2.1-1.4-1.86-1.34-1.64-1.3-1.47-1.28-1.32-1.24-1.18-1.2-1.07-1.2-.97-1.16-.87-1.16-.8-1.15-.73-1.14-.66-1.14-.6-1.15-.54-1.15-.1-.26" stroke="#3a414a" stroke-width="2" stroke-linejoin="round" fill="none"/><path d="M1090.97 371.67h-1.94l-.03-1 1.95-.05zM897.28 306.93l-1.8.72-.53-1.32h2.1z" stroke="#3a414a" stroke-width=".05" fill="#3a414a"/><path d="M360 378.67a6 6 0 0 1 6-6h288a6 6 0 0 1 6 6v60.66a6 6 0 0 1-6 6H366a6 6 0 0 1-6-6z" stroke="#3a414a" stroke-width="2" fill="#cfe4ff"/><use xlink:href="#a" transform="matrix(1,0,0,1,372,384.6667659999999) translate(32.162326388888914 33.77777777777778)"/><path d="M360 238.67a6 6 0 0 1 6-6h288a6 6 0 0 1 6 6v60.66a6 6 0 0 1-6 6H366a6 6 0 0 1-6-6z" stroke="#3a414a" stroke-width="2" fill="#cfe4ff"/><use xlink:href="#b" transform="matrix(1,0,0,1,372,244.66676599999994) translate(59.207682291666686 33.77777777777778)"/><path d="M760 238.67a6 6 0 0 1 6-6h288a6 6 0 0 1 6 6v60.66a6 6 0 0 1-6 6H766a6 6 0 0 1-6-6z" stroke="#3a414a" stroke-width="2" fill="#cfe4ff"/><use xlink:href="#c" transform="matrix(1,0,0,1,772,244.66676599999994) translate(102.208984375 33.77777777777778)"/><path d="M360 106a6 6 0 0 1 6-6h288a6 6 0 0 1 6 6v60.67a6 6 0 0 1-6 6H366a6 6 0 0 1-6-6z" stroke="#3a414a" stroke-width="2" fill="#cfe4ff"/><use xlink:href="#d" transform="matrix(1,0,0,1,372,112) translate(36.83897569444447 33.77777777777778)"/><path d="M510 370.67v-33.6" stroke="#3a414a" stroke-width="2" fill="none"/><path d="M510.98 371.67h-1.96v-1.03h1.96z" stroke="#3a414a" stroke-width=".05" fill="#3a414a"/><path d="M510 307.75l-14.85 14.85L510 337.45l14.85-14.85z" stroke="#3a414a" stroke-width="2" fill="#fff"/><path d="M720 378.67a6 6 0 0 1 6-6h188a6 6 0 0 1 6 6v60.66a6 6 0 0 1-6 6H726a6 6 0 0 1-6-6z" stroke="#3a414a" stroke-width="2" fill="#cfe4ff"/><use xlink:href="#e" transform="matrix(1,0,0,1,732,384.66676599999977) translate(25.147352430555557 33.77777777777778)"/><path d="M940 378.67a6 6 0 0 1 6-6h288a6 6 0 0 1 6 6v60.66a6 6 0 0 1-6 6H946a6 6 0 0 1-6-6z" stroke="#3a414a" stroke-width="2" fill="#cfe4ff"/><use xlink:href="#f" transform="matrix(1,0,0,1,952,384.66676599999977) translate(30.70290798611113 33.77777777777778)"/><path d="M820.03 370.67l.08-.9.13-.93.18-.9.24-.88.27-.88.35-.88.4-.9.45-.9.54-.92.63-.95.73-.98.87-1.04 1.02-1.1 1.2-1.16 1.5-1.27 1.82-1.4 2.3-1.56 3-1.8 4.16-2.2 6.35-2.9 17.2-6.63 20.35-7.77 6.34-2.9.87-.46" stroke="#3a414a" stroke-width="2" stroke-linejoin="round" fill="none"/><path d="M821 370.67l-.02 1H819l.03-1.06z" stroke="#3a414a" stroke-width=".05" fill="#3a414a"/><path d="M909.08 307.4L888.14 309l1.57 20.94 20.95-1.57z" stroke="#3a414a" stroke-width="2" fill="#fff"/><path d="M510 230.67v-26.25" stroke="#3a414a" stroke-width="2" stroke-linejoin="round" fill="none"/><path d="M510.98 231.67h-1.96v-1.03h1.96z" stroke="#3a414a" stroke-width=".05" fill="#3a414a"/><path d="M510 175.08l-14.85 14.85L510 204.78l14.85-14.85z" stroke="#3a414a" stroke-width="2" fill="#fff"/><path d="M760 106a6 6 0 0 1 6-6h288a6 6 0 0 1 6 6v60.67a6 6 0 0 1-6 6H766a6 6 0 0 1-6-6z" stroke="#3a414a" stroke-width="2" fill="#cfe4ff"/><use xlink:href="#g" transform="matrix(1,0,0,1,772,112) translate(89.66558159722223 33.77777777777778)"/><path d="M662 136.33h66.25" stroke="#3a414a" stroke-width="2" fill="none"/><path d="M662.03 137.3H661v-1.94h1.03z" stroke="#3a414a" stroke-width=".05" fill="#3a414a"/><path d="M757.6 136.33l-14.86-14.85-14.85 14.85 14.84 14.85z" stroke="#3a414a" stroke-width="2" fill="#fff"/><path d="M360-34a6 6 0 0 1 6-6h288a6 6 0 0 1 6 6v60.67a6 6 0 0 1-6 6H366a6 6 0 0 1-6-6z" stroke="#3a414a" stroke-width="2" fill="#cfe4ff"/><use xlink:href="#h" transform="matrix(1,0,0,1,372,-28) translate(37.86436631944447 33.77777777777778)"/><path d="M760-34a6 6 0 0 1 6-6h288a6 6 0 0 1 6 6v60.67a6 6 0 0 1-6 6H766a6 6 0 0 1-6-6z" stroke="#3a414a" stroke-width="2" fill="#cfe4ff"/><use xlink:href="#i" transform="matrix(1,0,0,1,772,-28) translate(67.98589409722223 33.77777777777778)"/><path d="M510 68.25V34.67" stroke="#3a414a" stroke-width="2" fill="none"/><path d="M510 97.6l14.85-14.86L510 67.9l-14.85 14.84z" stroke="#3a414a" stroke-width="2" fill="#fff"/><path d="M510.98 34.7h-1.96v-1.03h1.96z" stroke="#3a414a" stroke-width=".05" fill="#3a414a"/><path d="M510.54 72.7l.6-.44 1.2-.8 1.43-.88 1.7-.94 2.02-1.02 2.46-1.1 3.05-1.24 3.85-1.35 4.94-1.5 6.5-1.7 8.88-1.93 12.6-2.18 19.04-2.47 31.6-2.75 66.26-2.88L863.6 45.4l16.37-1.4 8.8-1.15 5.4-.93 3.6-.78 2.5-.66 1.86-.56 1.4-.5 1.08-.43.86-.4.7-.34.56-.3.47-.3.38-.26.33-.25.3-.23.24-.2.22-.2.18-.2.16-.18.14-.17.13-.17.1-.16.1-.16.1-.15.07-.14.07-.16.07-.14.05-.14.03-.1" stroke="#3a414a" stroke-width="2" stroke-linejoin="round" fill="none"/><path d="M510.03 97.58l15.15-14.53-14.54-15.16-15.15 14.53z" stroke="#3a414a" stroke-width="2" fill="#fff"/><path d="M910.96 34.7l-1.95-.03.02-1H911z" stroke="#3a414a" stroke-width=".05" fill="#3a414a"/><defs><path d="M180 0v-1490h510c348 0 508 194 508 460 0 198-88 351-276 417L1256 0h-220L726-579c-117 2-238 0-356 1V0H180zm190-747h312c235 0 327-108 327-283 0-177-92-293-329-293H370v576" id="j"/><path d="M471 26C259 26 90-98 90-318c0-256 228-303 435-329 202-27 287-16 287-108 0-139-79-219-234-219-161 0-248 86-283 164l-173-57c86-203 278-265 451-265 150 0 419 46 419 395V0H815v-152h-12C765-73 660 26 471 26zm31-159c199 0 310-134 310-271v-155c-30 35-226 55-295 64-131 17-246 59-246 186 0 116 97 176 231 176" id="k"/><path d="M158 0v-1118h180V0H158zm91-1301c-68 0-125-53-125-119s57-119 125-119c69 0 126 53 126 119s-57 119-126 119" id="l"/><path d="M338-1490V0H158v-1490h180" id="m"/><path d="M409 0L70-1118h191c89 329 165 560 243 925 75-353 154-601 240-925h192c85 325 161 564 235 922 77-354 157-598 244-922h191L1267 0h-179c-86-307-176-590-250-913C763-588 675-308 588 0H409" id="n"/><path d="M140 405l46-156c120 36 205 19 263-150l32-93L54-1118h197c107 313 237 620 324 950 87-331 219-637 326-950h196L606 167c-68 178-176 259-334 259-64 0-113-12-132-21" id="o"/><path d="M180 0v-1490h908v168H370v486h669v168H370v500h727V0H180" id="p"/><path d="M338-670V0H158v-1118h173l1 207c72-158 192-221 342-221 226 0 378 139 378 422V0H872v-695c0-172-96-275-252-275-161 0-282 109-282 300" id="q"/><path d="M481 0L54-1118h197c107 314 236 620 325 951 87-331 217-637 324-951h197L670 0H481" id="r"/><path d="M158 0v-1118h174v172h12c41-113 157-188 290-188 26 0 70 2 91 3v181c-11-2-60-10-108-10-161 0-279 109-279 260V0H158" id="s"/><path d="M613 24c-304 0-509-231-509-576 0-350 205-580 509-580 305 0 511 230 511 580 0 345-206 576-511 576zm0-161c226 0 329-195 329-415 0-222-103-419-329-419-223 0-326 196-326 419 0 220 103 415 326 415" id="t"/><path d="M158 0v-1118h175l1 205c55-151 181-225 313-225 147 0 245 90 285 228 53-141 190-228 352-228 194 0 352 125 352 384V0h-181v-749c0-161-105-225-225-225-151 0-243 103-243 244V0H807v-767c0-124-93-207-219-207-131 0-250 92-250 270V0H158" id="u"/><path d="M628 24c-324 0-524-230-524-574 0-343 198-582 503-582 237 0 487 146 487 559v75H286c9 234 145 362 343 362 132 0 231-58 273-172l174 48C1024-91 857 24 628 24zM287-650h624c-17-190-120-322-304-322-192 0-309 151-320 322" id="v"/><path d="M598-1118v154H368v674c0 100 37 144 132 144 23 0 62-6 92-12L629-6c-37 13-88 20-134 20-193 0-307-107-307-290v-688H20v-154h168v-266h180v266h230" id="w"/><g id="a"><use transform="matrix(0.010850694444444444,0,0,0.010850694444444444,0,0)" xlink:href="#j"/><use transform="matrix(0.010850694444444444,0,0,0.010850694444444444,14.192708333333332,0)" xlink:href="#k"/><use transform="matrix(0.010850694444444444,0,0,0.010850694444444444,26.671006944444443,0)" xlink:href="#l"/><use transform="matrix(0.010850694444444444,0,0,0.010850694444444444,32.052951388888886,0)" xlink:href="#m"/><use transform="matrix(0.010850694444444444,0,0,0.010850694444444444,37.43489583333333,0)" xlink:href="#n"/><use transform="matrix(0.010850694444444444,0,0,0.010850694444444444,55.62065972222221,0)" xlink:href="#k"/><use transform="matrix(0.010850694444444444,0,0,0.010850694444444444,67.77343749999999,0)" xlink:href="#o"/><use transform="matrix(0.010850694444444444,0,0,0.010850694444444444,80.37109374999999,0)" xlink:href="#p"/><use transform="matrix(0.010850694444444444,0,0,0.010850694444444444,93.72829861111111,0)" xlink:href="#q"/><use transform="matrix(0.010850694444444444,0,0,0.010850694444444444,106.53211805555556,0)" xlink:href="#r"/><use transform="matrix(0.010850694444444444,0,0,0.010850694444444444,119.0212673611111,0)" xlink:href="#l"/><use transform="matrix(0.010850694444444444,0,0,0.010850694444444444,124.40321180555556,0)" xlink:href="#s"/><use transform="matrix(0.010850694444444444,0,0,0.010850694444444444,132.4001736111111,0)" xlink:href="#t"/><use transform="matrix(0.010850694444444444,0,0,0.010850694444444444,145.72482638888886,0)" xlink:href="#q"/><use transform="matrix(0.010850694444444444,0,0,0.010850694444444444,158.85416666666663,0)" xlink:href="#u"/><use transform="matrix(0.010850694444444444,0,0,0.010850694444444444,178.32031249999994,0)" xlink:href="#v"/><use transform="matrix(0.010850694444444444,0,0,0.010850694444444444,191.27604166666663,0)" xlink:href="#q"/><use transform="matrix(0.010850694444444444,0,0,0.010850694444444444,204.4053819444444,0)" xlink:href="#w"/></g><path d="M657 26c-323 0-524-166-541-416h195c15 169 171 246 346 246 202 0 356-106 356-265 5-203-294-238-475-293-239-73-380-191-380-389 0-252 224-419 512-419 294 0 499 171 508 396H992c-17-145-151-228-328-228-193 0-321 102-321 242 0 156 175 211 284 241l149 41c160 44 422 134 422 412 0 244-197 432-541 432" id="x"/><path d="M537 14c-226 0-379-139-379-422v-710h180v695c0 172 97 275 253 275 160 0 281-109 281-300v-670h181V0H879v-209C806-46 684 14 537 14" id="y"/><path d="M645 0H180v-1490h484c435 0 692 280 692 742 0 466-257 748-711 748zM370-168h263c363 0 539-218 539-580 0-358-176-574-521-574H370v1154" id="z"/><g id="b"><use transform="matrix(0.010850694444444444,0,0,0.010850694444444444,0,0)" xlink:href="#x"/><use transform="matrix(0.010850694444444444,0,0,0.010850694444444444,14.2578125,0)" xlink:href="#l"/><use transform="matrix(0.010850694444444444,0,0,0.010850694444444444,19.639756944444443,0)" xlink:href="#u"/><use transform="matrix(0.010850694444444444,0,0,0.010850694444444444,39.10590277777777,0)" xlink:href="#y"/><use transform="matrix(0.010850694444444444,0,0,0.010850694444444444,52.246093749999986,0)" xlink:href="#m"/><use transform="matrix(0.010850694444444444,0,0,0.010850694444444444,57.628038194444436,0)" xlink:href="#k"/><use transform="matrix(0.010850694444444444,0,0,0.010850694444444444,70.10633680555554,0)" xlink:href="#w"/><use transform="matrix(0.010850694444444444,0,0,0.010850694444444444,77.37630208333331,0)" xlink:href="#l"/><use transform="matrix(0.010850694444444444,0,0,0.010850694444444444,82.75824652777776,0)" xlink:href="#t"/><use transform="matrix(0.010850694444444444,0,0,0.010850694444444444,96.08289930555553,0)" xlink:href="#q"/><use transform="matrix(0.010850694444444444,0,0,0.010850694444444444,109.21223958333331,0)" xlink:href="#z"/><use transform="matrix(0.010850694444444444,0,0,0.010850694444444444,125.24956597222217,0)" xlink:href="#k"/><use transform="matrix(0.010850694444444444,0,0,0.010850694444444444,137.7278645833333,0)" xlink:href="#w"/><use transform="matrix(0.010850694444444444,0,0,0.010850694444444444,145.10633680555551,0)" xlink:href="#k"/></g><path d="M611 442c-248 0-391-105-460-228l146-94c47 65 117 165 314 165 178 0 307-82 307-266v-224h-17C863-141 792-18 576-18c-268 0-472-195-472-546 0-346 197-568 476-568 216 0 288 133 326 193h17v-179h175V29c0 289-215 413-487 413zm-5-620c203 0 314-146 314-390 0-237-108-403-314-403-213 0-319 180-319 403 0 230 109 390 319 390" id="A"/><g id="c"><use transform="matrix(0.010850694444444444,0,0,0.010850694444444444,0,0)" xlink:href="#p"/><use transform="matrix(0.010850694444444444,0,0,0.010850694444444444,13.35720486111111,0)" xlink:href="#q"/><use transform="matrix(0.010850694444444444,0,0,0.010850694444444444,26.48654513888889,0)" xlink:href="#A"/><use transform="matrix(0.010850694444444444,0,0,0.010850694444444444,40.11501736111111,0)" xlink:href="#l"/><use transform="matrix(0.010850694444444444,0,0,0.010850694444444444,45.49696180555556,0)" xlink:href="#q"/><use transform="matrix(0.010850694444444444,0,0,0.010850694444444444,58.62630208333333,0)" xlink:href="#v"/></g><path d="M180 0v-1490h270l367 940c28 72 75 218 110 339 35-117 81-264 110-339l362-940h271V0h-187c2-448-5-837 7-1287-157 497-311 829-483 1287H842C666-458 514-784 354-1284c12 438 5 843 7 1284H180" id="B"/><g id="d"><use transform="matrix(0.010850694444444444,0,0,0.010850694444444444,0,0)" xlink:href="#x"/><use transform="matrix(0.010850694444444444,0,0,0.010850694444444444,14.2578125,0)" xlink:href="#l"/><use transform="matrix(0.010850694444444444,0,0,0.010850694444444444,19.639756944444443,0)" xlink:href="#u"/><use transform="matrix(0.010850694444444444,0,0,0.010850694444444444,39.10590277777777,0)" xlink:href="#y"/><use transform="matrix(0.010850694444444444,0,0,0.010850694444444444,52.246093749999986,0)" xlink:href="#m"/><use transform="matrix(0.010850694444444444,0,0,0.010850694444444444,57.628038194444436,0)" xlink:href="#k"/><use transform="matrix(0.010850694444444444,0,0,0.010850694444444444,70.10633680555554,0)" xlink:href="#w"/><use transform="matrix(0.010850694444444444,0,0,0.010850694444444444,77.37630208333331,0)" xlink:href="#l"/><use transform="matrix(0.010850694444444444,0,0,0.010850694444444444,82.75824652777776,0)" xlink:href="#t"/><use transform="matrix(0.010850694444444444,0,0,0.010850694444444444,96.08289930555553,0)" xlink:href="#q"/><use transform="matrix(0.010850694444444444,0,0,0.010850694444444444,109.21223958333331,0)" xlink:href="#B"/><use transform="matrix(0.010850694444444444,0,0,0.010850694444444444,129.28602430555551,0)" xlink:href="#k"/><use transform="matrix(0.010850694444444444,0,0,0.010850694444444444,141.76432291666663,0)" xlink:href="#q"/><use transform="matrix(0.010850694444444444,0,0,0.010850694444444444,154.8936631944444,0)" xlink:href="#k"/><use transform="matrix(0.010850694444444444,0,0,0.010850694444444444,167.37196180555551,0)" xlink:href="#A"/><use transform="matrix(0.010850694444444444,0,0,0.010850694444444444,181.00043402777774,0)" xlink:href="#v"/><use transform="matrix(0.010850694444444444,0,0,0.010850694444444444,193.9561631944444,0)" xlink:href="#s"/></g><g id="e"><use transform="matrix(0.010850694444444444,0,0,0.010850694444444444,0,0)" xlink:href="#p"/><use transform="matrix(0.010850694444444444,0,0,0.010850694444444444,13.35720486111111,0)" xlink:href="#q"/><use transform="matrix(0.010850694444444444,0,0,0.010850694444444444,26.48654513888889,0)" xlink:href="#A"/><use transform="matrix(0.010850694444444444,0,0,0.010850694444444444,40.11501736111111,0)" xlink:href="#l"/><use transform="matrix(0.010850694444444444,0,0,0.010850694444444444,45.49696180555556,0)" xlink:href="#q"/><use transform="matrix(0.010850694444444444,0,0,0.010850694444444444,58.62630208333333,0)" xlink:href="#v"/><use transform="matrix(0.010850694444444444,0,0,0.010850694444444444,71.58203125,0)" xlink:href="#x"/><use transform="matrix(0.010850694444444444,0,0,0.010850694444444444,85.83984375,0)" xlink:href="#w"/><use transform="matrix(0.010850694444444444,0,0,0.010850694444444444,93.21831597222221,0)" xlink:href="#k"/><use transform="matrix(0.010850694444444444,0,0,0.010850694444444444,105.69661458333333,0)" xlink:href="#w"/><use transform="matrix(0.010850694444444444,0,0,0.010850694444444444,112.74956597222221,0)" xlink:href="#v"/></g><path d="M783 20c-382 0-661-292-661-764 0-473 279-766 661-766 302 0 548 182 601 489h-190c-42-204-217-313-411-313-268 0-476 208-476 590 0 381 209 588 476 588 195 0 369-110 411-313h190c-52 303-296 489-601 489" id="C"/><path d="M678-1118v154H420V0H240v-964H20v-154h220v-149c0-194 155-293 318-293 85 0 141 18 168 30l-50 154c-19-6-47-17-97-17-111 0-159 58-159 166v109h258" id="D"/><g id="f"><use transform="matrix(0.010850694444444444,0,0,0.010850694444444444,0,0)" xlink:href="#p"/><use transform="matrix(0.010850694444444444,0,0,0.010850694444444444,13.35720486111111,0)" xlink:href="#q"/><use transform="matrix(0.010850694444444444,0,0,0.010850694444444444,26.48654513888889,0)" xlink:href="#A"/><use transform="matrix(0.010850694444444444,0,0,0.010850694444444444,40.11501736111111,0)" xlink:href="#l"/><use transform="matrix(0.010850694444444444,0,0,0.010850694444444444,45.49696180555556,0)" xlink:href="#q"/><use transform="matrix(0.010850694444444444,0,0,0.010850694444444444,58.62630208333333,0)" xlink:href="#v"/><use transform="matrix(0.010850694444444444,0,0,0.010850694444444444,71.58203125,0)" xlink:href="#C"/><use transform="matrix(0.010850694444444444,0,0,0.010850694444444444,87.81467013888889,0)" xlink:href="#t"/><use transform="matrix(0.010850694444444444,0,0,0.010850694444444444,101.13932291666666,0)" xlink:href="#q"/><use transform="matrix(0.010850694444444444,0,0,0.010850694444444444,114.26866319444441,0)" xlink:href="#D"/><use transform="matrix(0.010850694444444444,0,0,0.010850694444444444,122.49348958333331,0)" xlink:href="#l"/><use transform="matrix(0.010850694444444444,0,0,0.010850694444444444,127.87543402777776,0)" xlink:href="#A"/><use transform="matrix(0.010850694444444444,0,0,0.010850694444444444,141.50390624999997,0)" xlink:href="#y"/><use transform="matrix(0.010850694444444444,0,0,0.010850694444444444,154.6440972222222,0)" xlink:href="#s"/><use transform="matrix(0.010850694444444444,0,0,0.010850694444444444,163.00998263888886,0)" xlink:href="#k"/><use transform="matrix(0.010850694444444444,0,0,0.010850694444444444,175.48828124999997,0)" xlink:href="#w"/><use transform="matrix(0.010850694444444444,0,0,0.010850694444444444,182.75824652777774,0)" xlink:href="#l"/><use transform="matrix(0.010850694444444444,0,0,0.010850694444444444,188.14019097222223,0)" xlink:href="#t"/><use transform="matrix(0.010850694444444444,0,0,0.010850694444444444,201.46484374999994,0)" xlink:href="#q"/></g><path d="M52 0l541-1490h220L1361 0h-200l-149-416H398L254 0H52zm404-582h497c-103-290-145-390-251-756-108 377-145 460-246 756" id="E"/><path d="M158 418v-1536h174v179h20c37-59 106-193 324-193 279 0 474 222 474 576 0 356-194 580-473 580-213 0-288-135-325-197h-14v591H158zm492-555c209 0 317-186 317-421 0-232-105-413-317-413-206 0-314 166-314 413 0 249 111 421 314 421" id="F"/><g id="g"><use transform="matrix(0.010850694444444444,0,0,0.010850694444444444,0,0)" xlink:href="#E"/><use transform="matrix(0.010850694444444444,0,0,0.010850694444444444,15.33203125,0)" xlink:href="#F"/><use transform="matrix(0.010850694444444444,0,0,0.010850694444444444,28.938802083333332,0)" xlink:href="#F"/><use transform="matrix(0.010850694444444444,0,0,0.010850694444444444,42.545572916666664,0)" xlink:href="#x"/><use transform="matrix(0.010850694444444444,0,0,0.010850694444444444,56.803385416666664,0)" xlink:href="#w"/><use transform="matrix(0.010850694444444444,0,0,0.010850694444444444,64.18185763888889,0)" xlink:href="#k"/><use transform="matrix(0.010850694444444444,0,0,0.010850694444444444,76.66015625,0)" xlink:href="#w"/><use transform="matrix(0.010850694444444444,0,0,0.010850694444444444,83.71310763888889,0)" xlink:href="#v"/></g><path d="M180 0v-1490h224l606 953c40 63 108 177 176 312-27-437-7-821-13-1265h190V0h-226C860-448 622-778 356-1262c27 476 11 792 15 1262H180" id="G"/><path d="M613 24c-304 0-509-231-509-576 0-350 205-580 509-580 216 0 392 114 453 309l-173 49c-33-115-133-197-280-197-223 0-326 196-326 419 0 220 103 415 326 415 150 0 252-85 285-206l172 49C1010-95 832 24 613 24" id="H"/><g id="h"><use transform="matrix(0.010850694444444444,0,0,0.010850694444444444,0,0)" xlink:href="#G"/><use transform="matrix(0.010850694444444444,0,0,0.010850694444444444,16.74262152777778,0)" xlink:href="#t"/><use transform="matrix(0.010850694444444444,0,0,0.010850694444444444,30.06727430555556,0)" xlink:href="#w"/><use transform="matrix(0.010850694444444444,0,0,0.010850694444444444,37.337239583333336,0)" xlink:href="#l"/><use transform="matrix(0.010850694444444444,0,0,0.010850694444444444,42.71918402777778,0)" xlink:href="#D"/><use transform="matrix(0.010850694444444444,0,0,0.010850694444444444,50.94401041666667,0)" xlink:href="#l"/><use transform="matrix(0.010850694444444444,0,0,0.010850694444444444,56.32595486111112,0)" xlink:href="#H"/><use transform="matrix(0.010850694444444444,0,0,0.010850694444444444,69.23828125,0)" xlink:href="#k"/><use transform="matrix(0.010850694444444444,0,0,0.010850694444444444,81.71657986111111,0)" xlink:href="#w"/><use transform="matrix(0.010850694444444444,0,0,0.010850694444444444,88.98654513888889,0)" xlink:href="#l"/><use transform="matrix(0.010850694444444444,0,0,0.010850694444444444,94.36848958333333,0)" xlink:href="#t"/><use transform="matrix(0.010850694444444444,0,0,0.010850694444444444,107.69314236111111,0)" xlink:href="#q"/><use transform="matrix(0.010850694444444444,0,0,0.010850694444444444,120.82248263888887,0)" xlink:href="#x"/><use transform="matrix(0.010850694444444444,0,0,0.010850694444444444,135.08029513888886,0)" xlink:href="#v"/><use transform="matrix(0.010850694444444444,0,0,0.010850694444444444,148.03602430555551,0)" xlink:href="#s"/><use transform="matrix(0.010850694444444444,0,0,0.010850694444444444,156.7491319444444,0)" xlink:href="#r"/><use transform="matrix(0.010850694444444444,0,0,0.010850694444444444,169.23828124999994,0)" xlink:href="#l"/><use transform="matrix(0.010850694444444444,0,0,0.010850694444444444,174.6202256944444,0)" xlink:href="#H"/><use transform="matrix(0.010850694444444444,0,0,0.010850694444444444,187.3155381944444,0)" xlink:href="#v"/></g><path d="M98-1322v-168h1126v168H757V0H567v-1322H98" id="I"/><path d="M180 0v-1490h510c348 0 508 209 508 474 0 266-160 477-507 477H370V0H180zm190-706h312c236 0 327-133 327-310 0-176-91-307-329-307H370v617" id="J"/><path d="M577 24c-279 0-473-224-473-580 0-354 195-576 474-576 218 0 287 134 324 193h14v-551h180V0H922v-173h-20C865-111 790 24 577 24zm27-161c203 0 314-172 314-421 0-247-108-413-314-413-212 0-317 181-317 413 0 235 108 421 317 421" id="K"/><g id="i"><use transform="matrix(0.010850694444444444,0,0,0.010850694444444444,0,0)" xlink:href="#I"/><use transform="matrix(0.010850694444444444,0,0,0.010850694444444444,14.344618055555555,0)" xlink:href="#l"/><use transform="matrix(0.010850694444444444,0,0,0.010850694444444444,19.7265625,0)" xlink:href="#u"/><use transform="matrix(0.010850694444444444,0,0,0.010850694444444444,39.19270833333333,0)" xlink:href="#v"/><use transform="matrix(0.010850694444444444,0,0,0.010850694444444444,52.148437499999986,0)" xlink:href="#J"/><use transform="matrix(0.010850694444444444,0,0,0.010850694444444444,66.34114583333333,0)" xlink:href="#s"/><use transform="matrix(0.010850694444444444,0,0,0.010850694444444444,74.33810763888889,0)" xlink:href="#t"/><use transform="matrix(0.010850694444444444,0,0,0.010850694444444444,87.22873263888889,0)" xlink:href="#r"/><use transform="matrix(0.010850694444444444,0,0,0.010850694444444444,99.71788194444444,0)" xlink:href="#l"/><use transform="matrix(0.010850694444444444,0,0,0.010850694444444444,105.09982638888889,0)" xlink:href="#K"/><use transform="matrix(0.010850694444444444,0,0,0.010850694444444444,118.70659722222221,0)" xlink:href="#v"/><use transform="matrix(0.010850694444444444,0,0,0.010850694444444444,131.66232638888889,0)" xlink:href="#s"/></g></defs></g></svg>