<svg xmlns="http://www.w3.org/2000/svg" xmlns:xlink="http://www.w3.org/1999/xlink" xmlns:lucid="lucid" width="1283" height="803"><g transform="translate(-358.5 241.5)" lucid:page-tab-id="0_0"><path d="M360 46a6 6 0 0 1 6-6h1268a6 6 0 0 1 6 6v188a6 6 0 0 1-6 6H366a6 6 0 0 1-6-6z" stroke="#3a414a" stroke-width="3" fill="#fff"/><path d="M1479.97 114.35l-.02-.94-.15-2.37-.25-2.35-.34-2.32-.43-2.3-.54-2.3-.63-2.27-.75-2.3-.86-2.3-.98-2.34-1.12-2.36-1.25-2.4-1.42-2.45-1.6-2.52-1.8-2.6-2.04-2.68-2.33-2.8-2.63-2.92-3-3.07-3.47-3.24-4-3.45-4.67-3.7-5.5-4-6.58-4.36-7.96-4.8-9.82-5.4-12.42-6.14-16.28-7.23-22.6-8.92-35.43-12.25-213.63-65.4-22.6-8.93-16.3-7.23-12.4-6.16-9.83-5.38-7.96-4.8-6.57-4.38-5.5-4-4.67-3.7-4-3.45-3.46-3.24-3-3.08-2.64-2.92-2.32-2.8-2.03-2.68-1.8-2.6-1.6-2.52-1.42-2.45-1.25-2.4-1.12-2.36-.97-2.34-.85-2.3-.75-2.3-.63-2.28-.54-2.3-.44-2.28-.35-2.32-.25-2.35-.15-2.4-.02-.93" stroke="#3a414a" stroke-width="3" stroke-linejoin="round" fill="none"/><path d="M1481.47 115.85h-2.94l-.04-1.5 2.94-.07zM1001.48-156.96h-2.96v-1.54h2.96z" stroke="#3a414a" stroke-width=".05" fill="#3a414a"/><path d="M360 366a6 6 0 0 1 6-6h1268a6 6 0 0 1 6 6v188a6 6 0 0 1-6 6H366a6 6 0 0 1-6-6z" stroke="#3a414a" stroke-width="3" fill="#fff"/><path d="M400 123.35a6 6 0 0 1 6-6h228a6 6 0 0 1 6 6v68a6 6 0 0 1-6 6H406a6 6 0 0 1-6-6z" stroke="#3a414a" stroke-width="3" fill="#edf5ff"/><use xlink:href="#a" transform="matrix(1,0,0,1,408,125.35294117647058) translate(14.69677734375 41.4580078125)"/><path d="M720 123.35a6 6 0 0 1 6-6h228a6 6 0 0 1 6 6v68a6 6 0 0 1-6 6H726a6 6 0 0 1-6-6z" stroke="#3a414a" stroke-width="3" fill="#edf5ff"/><use xlink:href="#b" transform="matrix(1,0,0,1,728,125.35294117647058) translate(22.16796875 41.4580078125)"/><path d="M1040 123.35a6 6 0 0 1 6-6h228a6 6 0 0 1 6 6v68a6 6 0 0 1-6 6h-228a6 6 0 0 1-6-6z" stroke="#3a414a" stroke-width="3" fill="#edf5ff"/><use xlink:href="#c" transform="matrix(1,0,0,1,1048,125.35294117647058) translate(26.8525390625 41.4580078125)"/><path d="M1360 123.35a6 6 0 0 1 6-6h228a6 6 0 0 1 6 6v68a6 6 0 0 1-6 6h-228a6 6 0 0 1-6-6z" stroke="#3a414a" stroke-width="3" fill="#edf5ff"/><use xlink:href="#d" transform="matrix(1,0,0,1,1368,125.35294117647058) translate(-3.27978515625 41.4580078125)"/><path d="M400 446a6 6 0 0 1 6-6h228a6 6 0 0 1 6 6v68a6 6 0 0 1-6 6H406a6 6 0 0 1-6-6z" stroke="#3a414a" stroke-width="3" fill="#edf5ff"/><use xlink:href="#e" transform="matrix(1,0,0,1,408,448) translate(69.166015625 41.4580078125)"/><path d="M720 446a6 6 0 0 1 6-6h228a6 6 0 0 1 6 6v68a6 6 0 0 1-6 6H726a6 6 0 0 1-6-6z" stroke="#3a414a" stroke-width="3" fill="#edf5ff"/><use xlink:href="#f" transform="matrix(1,0,0,1,728,448) translate(76.63720703125 41.4580078125)"/><path d="M1040 446a6 6 0 0 1 6-6h228a6 6 0 0 1 6 6v68a6 6 0 0 1-6 6h-228a6 6 0 0 1-6-6z" stroke="#3a414a" stroke-width="3" fill="#edf5ff"/><use xlink:href="#g" transform="matrix(1,0,0,1,1048,448) translate(81.32177734375 41.4580078125)"/><path d="M1360 446a6 6 0 0 1 6-6h228a6 6 0 0 1 6 6v68a6 6 0 0 1-6 6h-228a6 6 0 0 1-6-6z" stroke="#3a414a" stroke-width="3" fill="#edf5ff"/><use xlink:href="#h" transform="matrix(1,0,0,1,1368,448) translate(51.189453125 41.4580078125)"/><path d="M880-234a6 6 0 0 1 6-6h228a6 6 0 0 1 6 6v68a6 6 0 0 1-6 6H886a6 6 0 0 1-6-6z" stroke="#3a414a" stroke-width="3" fill="#edf5ff"/><use xlink:href="#i" transform="matrix(1,0,0,1,888,-232) translate(55.44873046875 41.4580078125)"/><path d="M880 46a6 6 0 0 1 6-6h228a6 6 0 0 1 6 6v48a6 6 0 0 1-6 6H886a6 6 0 0 1-6-6z" fill="none"/><use xlink:href="#j" transform="matrix(1,0,0,1,880,40) translate(-12.9072265625 39.4580078125)"/><path d="M880 366a6 6 0 0 1 6-6h228a6 6 0 0 1 6 6v48a6 6 0 0 1-6 6H886a6 6 0 0 1-6-6z" fill="none"/><use xlink:href="#k" transform="matrix(1,0,0,1,880,360) translate(75.49658203125 39.4580078125)"/><path d="M520 437V229.98" stroke="#3a414a" stroke-width="3" stroke-linejoin="round" fill="none"/><path d="M521.48 438.5h-2.96v-1.54h2.96z" stroke="#3a414a" stroke-width=".05" fill="#3a414a"/><path d="M520 200.97l-14.85 14.85L520 230.67l14.85-14.85z" stroke="#3a414a" stroke-width="3" fill="#fff"/><path d="M840 437V229.98" stroke="#3a414a" stroke-width="3" stroke-linejoin="round" fill="none"/><path d="M841.48 438.5h-2.96v-1.54h2.96z" stroke="#3a414a" stroke-width=".05" fill="#3a414a"/><path d="M840 200.97l-14.85 14.85L840 230.67l14.85-14.85z" stroke="#3a414a" stroke-width="3" fill="#fff"/><path d="M1160 437V229.98" stroke="#3a414a" stroke-width="3" stroke-linejoin="round" fill="none"/><path d="M1161.47 438.5h-2.94v-1.54h2.94z" stroke="#3a414a" stroke-width=".05" fill="#3a414a"/><path d="M1160 200.97l-14.85 14.85 14.85 14.85 14.85-14.85z" stroke="#3a414a" stroke-width="3" fill="#fff"/><path d="M1480 437V229.98" stroke="#3a414a" stroke-width="3" stroke-linejoin="round" fill="none"/><path d="M1481.47 438.5h-2.94v-1.54h2.94z" stroke="#3a414a" stroke-width=".05" fill="#3a414a"/><path d="M1480 200.97l-14.85 14.85 14.85 14.85 14.85-14.85z" stroke="#3a414a" stroke-width="3" fill="#fff"/><path d="M840.03 114.35l.12-5.64.42-6.68.66-6.32.9-6 1.08-5.73 1.3-5.52 1.5-5.34 1.7-5.2 1.88-5.1 2.12-5.04 2.36-5 2.63-5.03 2.92-5.08 3.3-5.18 3.72-5.36 4.28-5.63 5-6.05L882 13.7l7.77-7.93 11.6-10.87 48.86-43.3 7.78-7.94 6.07-6.73 5-6.05 4.3-5.63 3.72-5.37 3.28-5.18 2.93-5.08 2.64-5.02 2.36-5 2.12-5.05 1.9-5.1 1.68-5.2 1.5-5.35 1.3-5.52 1.08-5.73.9-6 .65-6.32.42-6.7.12-5.63" stroke="#3a414a" stroke-width="3" stroke-linejoin="round" fill="none"/><path d="M841.5 114.34l-.02 1.5h-2.96l.04-1.56zM1001.48-156.96h-2.96v-1.54h2.96z" stroke="#3a414a" stroke-width=".05" fill="#3a414a"/><path d="M520.03 114.35l.02-.94.15-2.37.25-2.35.34-2.32.43-2.3.54-2.3.63-2.27.75-2.3.86-2.3 1-2.34 1.1-2.36 1.25-2.4 1.42-2.45 1.6-2.52 1.8-2.6 2.04-2.68 2.33-2.8 2.63-2.92 3-3.07 3.47-3.24 4-3.45 4.67-3.7 5.5-4L566.4 50l7.96-4.8 9.82-5.4 12.42-6.14 16.28-7.23 22.6-8.92L670.9 5.26l213.63-65.4 22.6-8.93 16.3-7.23 12.4-6.16 9.83-5.38 7.96-4.8 6.57-4.38 5.5-4 4.67-3.7 4-3.45 3.46-3.24 3-3.08 2.64-2.92 2.32-2.8 2.03-2.68 1.8-2.6 1.6-2.52 1.42-2.45 1.25-2.4 1.12-2.36.97-2.34.85-2.3.75-2.3.63-2.28.54-2.3.44-2.28.35-2.32.25-2.35.15-2.4.02-.93" stroke="#3a414a" stroke-width="3" stroke-linejoin="round" fill="none"/><path d="M521.5 114.34l-.02 1.5h-2.96l.04-1.56zM1001.48-156.96h-2.96v-1.54h2.96z" stroke="#3a414a" stroke-width=".05" fill="#3a414a"/><path d="M1159.97 114.35l-.12-5.64-.42-6.68-.66-6.32-.9-6-1.08-5.73-1.3-5.52-1.5-5.34-1.7-5.2-1.88-5.1-2.12-5.04-2.36-5-2.63-5.03-2.92-5.08-3.3-5.18-3.72-5.36-4.28-5.63-5-6.05-6.07-6.73-7.77-7.93-11.6-10.87-48.86-43.3-7.78-7.94-6.07-6.73-5-6.05-4.3-5.63-3.72-5.37-3.28-5.18-2.93-5.08-2.64-5.02-2.36-5-2.12-5.05-1.9-5.1-1.68-5.2-1.5-5.35-1.3-5.52-.17-.95" stroke="#3a414a" stroke-width="3" stroke-linejoin="round" fill="none"/><path d="M1161.47 115.85h-2.94l-.04-1.5 2.94-.07z" stroke="#3a414a" stroke-width=".05" fill="#3a414a"/><path d="M1000.2-156.4l-13.33 16.24 16.23 13.33 13.33-16.23z" stroke="#3a414a" stroke-width="3" fill="#fff"/><defs><path d="M657 26c-323 0-524-166-541-416h195c15 169 171 246 346 246 202 0 356-106 356-265 5-203-294-238-475-293-239-73-380-191-380-389 0-252 224-419 512-419 294 0 499 171 508 396H992c-17-145-151-228-328-228-193 0-321 102-321 242 0 156 175 211 284 241l149 41c160 44 422 134 422 412 0 244-197 432-541 432" id="l"/><path d="M598-1118v154H368v674c0 100 37 144 132 144 23 0 62-6 92-12L629-6c-37 13-88 20-134 20-193 0-307-107-307-290v-688H20v-154h168v-266h180v266h230" id="m"/><path d="M471 26C259 26 90-98 90-318c0-256 228-303 435-329 202-27 287-16 287-108 0-139-79-219-234-219-161 0-248 86-283 164l-173-57c86-203 278-265 451-265 150 0 419 46 419 395V0H815v-152h-12C765-73 660 26 471 26zm31-159c199 0 310-134 310-271v-155c-30 35-226 55-295 64-131 17-246 59-246 186 0 116 97 176 231 176" id="n"/><path d="M158 0v-1118h180V0H158zm91-1301c-68 0-125-53-125-119s57-119 125-119c69 0 126 53 126 119s-57 119-126 119" id="o"/><path d="M613 24c-304 0-509-231-509-576 0-350 205-580 509-580 305 0 511 230 511 580 0 345-206 576-511 576zm0-161c226 0 329-195 329-415 0-222-103-419-329-419-223 0-326 196-326 419 0 220 103 415 326 415" id="p"/><path d="M338-670V0H158v-1118h173l1 207c72-158 192-221 342-221 226 0 378 139 378 422V0H872v-695c0-172-96-275-252-275-161 0-282 109-282 300" id="q"/><path d="M180 0v-1490h270l367 940c28 72 75 218 110 339 35-117 81-264 110-339l362-940h271V0h-187c2-448-5-837 7-1287-157 497-311 829-483 1287H842C666-458 514-784 354-1284c12 438 5 843 7 1284H180" id="r"/><path d="M611 442c-248 0-391-105-460-228l146-94c47 65 117 165 314 165 178 0 307-82 307-266v-224h-17C863-141 792-18 576-18c-268 0-472-195-472-546 0-346 197-568 476-568 216 0 288 133 326 193h17v-179h175V29c0 289-215 413-487 413zm-5-620c203 0 314-146 314-390 0-237-108-403-314-403-213 0-319 180-319 403 0 230 109 390 319 390" id="s"/><path d="M628 24c-324 0-524-230-524-574 0-343 198-582 503-582 237 0 487 146 487 559v75H286c9 234 145 362 343 362 132 0 231-58 273-172l174 48C1024-91 857 24 628 24zM287-650h624c-17-190-120-322-304-322-192 0-309 151-320 322" id="t"/><path d="M158 0v-1118h174v172h12c41-113 157-188 290-188 26 0 70 2 91 3v181c-11-2-60-10-108-10-161 0-279 109-279 260V0H158" id="u"/><g id="a"><use transform="matrix(0.0126953125,0,0,0.0126953125,0,0)" xlink:href="#l"/><use transform="matrix(0.0126953125,0,0,0.0126953125,16.681640625,0)" xlink:href="#m"/><use transform="matrix(0.0126953125,0,0,0.0126953125,25.314453125,0)" xlink:href="#n"/><use transform="matrix(0.0126953125,0,0,0.0126953125,39.9140625,0)" xlink:href="#m"/><use transform="matrix(0.0126953125,0,0,0.0126953125,48.419921875,0)" xlink:href="#o"/><use transform="matrix(0.0126953125,0,0,0.0126953125,54.716796875,0)" xlink:href="#p"/><use transform="matrix(0.0126953125,0,0,0.0126953125,70.306640625,0)" xlink:href="#q"/><use transform="matrix(0.0126953125,0,0,0.0126953125,85.66796875,0)" xlink:href="#r"/><use transform="matrix(0.0126953125,0,0,0.0126953125,109.154296875,0)" xlink:href="#n"/><use transform="matrix(0.0126953125,0,0,0.0126953125,123.75390625,0)" xlink:href="#q"/><use transform="matrix(0.0126953125,0,0,0.0126953125,139.115234375,0)" xlink:href="#n"/><use transform="matrix(0.0126953125,0,0,0.0126953125,153.71484375,0)" xlink:href="#s"/><use transform="matrix(0.0126953125,0,0,0.0126953125,169.66015625,0)" xlink:href="#t"/><use transform="matrix(0.0126953125,0,0,0.0126953125,184.818359375,0)" xlink:href="#u"/></g><path d="M180 0v-1490h510c348 0 508 194 508 460 0 198-88 351-276 417L1256 0h-220L726-579c-117 2-238 0-356 1V0H180zm190-747h312c235 0 327-108 327-283 0-177-92-293-329-293H370v576" id="v"/><path d="M537 14c-226 0-379-139-379-422v-710h180v695c0 172 97 275 253 275 160 0 281-109 281-300v-670h181V0H879v-209C806-46 684 14 537 14" id="w"/><g id="b"><use transform="matrix(0.0126953125,0,0,0.0126953125,0,0)" xlink:href="#v"/><use transform="matrix(0.0126953125,0,0,0.0126953125,16.3515625,0)" xlink:href="#p"/><use transform="matrix(0.0126953125,0,0,0.0126953125,31.94140625,0)" xlink:href="#w"/><use transform="matrix(0.0126953125,0,0,0.0126953125,47.3154296875,0)" xlink:href="#m"/><use transform="matrix(0.0126953125,0,0,0.0126953125,55.5673828125,0)" xlink:href="#t"/><use transform="matrix(0.0126953125,0,0,0.0126953125,70.7255859375,0)" xlink:href="#r"/><use transform="matrix(0.0126953125,0,0,0.0126953125,94.2119140625,0)" xlink:href="#n"/><use transform="matrix(0.0126953125,0,0,0.0126953125,108.8115234375,0)" xlink:href="#q"/><use transform="matrix(0.0126953125,0,0,0.0126953125,124.1728515625,0)" xlink:href="#n"/><use transform="matrix(0.0126953125,0,0,0.0126953125,138.7724609375,0)" xlink:href="#s"/><use transform="matrix(0.0126953125,0,0,0.0126953125,154.7177734375,0)" xlink:href="#t"/><use transform="matrix(0.0126953125,0,0,0.0126953125,169.8759765625,0)" xlink:href="#u"/></g><path d="M98-1322v-168h1126v168H757V0H567v-1322H98" id="x"/><g id="c"><use transform="matrix(0.0126953125,0,0,0.0126953125,0,0)" xlink:href="#x"/><use transform="matrix(0.0126953125,0,0,0.0126953125,15.310546875,0)" xlink:href="#u"/><use transform="matrix(0.0126953125,0,0,0.0126953125,25.0986328125,0)" xlink:href="#n"/><use transform="matrix(0.0126953125,0,0,0.0126953125,39.6982421875,0)" xlink:href="#o"/><use transform="matrix(0.0126953125,0,0,0.0126953125,45.9951171875,0)" xlink:href="#q"/><use transform="matrix(0.0126953125,0,0,0.0126953125,61.3564453125,0)" xlink:href="#r"/><use transform="matrix(0.0126953125,0,0,0.0126953125,84.8427734375,0)" xlink:href="#n"/><use transform="matrix(0.0126953125,0,0,0.0126953125,99.4423828125,0)" xlink:href="#q"/><use transform="matrix(0.0126953125,0,0,0.0126953125,114.8037109375,0)" xlink:href="#n"/><use transform="matrix(0.0126953125,0,0,0.0126953125,129.4033203125,0)" xlink:href="#s"/><use transform="matrix(0.0126953125,0,0,0.0126953125,145.3486328125,0)" xlink:href="#t"/><use transform="matrix(0.0126953125,0,0,0.0126953125,160.5068359375,0)" xlink:href="#u"/></g><path d="M158 0v-1118h175l1 205c55-151 181-225 313-225 147 0 245 90 285 228 53-141 190-228 352-228 194 0 352 125 352 384V0h-181v-749c0-161-105-225-225-225-151 0-243 103-243 244V0H807v-767c0-124-93-207-219-207-131 0-250 92-250 270V0H158" id="y"/><path d="M677 24c-213 0-288-135-325-197h-20V0H158v-1490h180v551h14c37-59 106-193 324-193 279 0 474 222 474 576 0 356-194 580-473 580zm-27-161c209 0 317-186 317-421 0-232-105-413-317-413-206 0-314 166-314 413 0 249 111 421 314 421" id="z"/><path d="M338-1490V0H158v-1490h180" id="A"/><g id="d"><use transform="matrix(0.0126953125,0,0,0.0126953125,0,0)" xlink:href="#x"/><use transform="matrix(0.0126953125,0,0,0.0126953125,16.783203125,0)" xlink:href="#o"/><use transform="matrix(0.0126953125,0,0,0.0126953125,23.080078125,0)" xlink:href="#y"/><use transform="matrix(0.0126953125,0,0,0.0126953125,45.85546875,0)" xlink:href="#t"/><use transform="matrix(0.0126953125,0,0,0.0126953125,61.013671875,0)" xlink:href="#m"/><use transform="matrix(0.0126953125,0,0,0.0126953125,69.646484375,0)" xlink:href="#n"/><use transform="matrix(0.0126953125,0,0,0.0126953125,84.24609375,0)" xlink:href="#z"/><use transform="matrix(0.0126953125,0,0,0.0126953125,100.166015625,0)" xlink:href="#A"/><use transform="matrix(0.0126953125,0,0,0.0126953125,106.462890625,0)" xlink:href="#t"/><use transform="matrix(0.0126953125,0,0,0.0126953125,121.62109375,0)" xlink:href="#r"/><use transform="matrix(0.0126953125,0,0,0.0126953125,145.107421875,0)" xlink:href="#n"/><use transform="matrix(0.0126953125,0,0,0.0126953125,159.70703125,0)" xlink:href="#q"/><use transform="matrix(0.0126953125,0,0,0.0126953125,175.068359375,0)" xlink:href="#n"/><use transform="matrix(0.0126953125,0,0,0.0126953125,189.66796875,0)" xlink:href="#s"/><use transform="matrix(0.0126953125,0,0,0.0126953125,205.61328125,0)" xlink:href="#t"/><use transform="matrix(0.0126953125,0,0,0.0126953125,220.771484375,0)" xlink:href="#u"/></g><g id="e"><use transform="matrix(0.0126953125,0,0,0.0126953125,0,0)" xlink:href="#l"/><use transform="matrix(0.0126953125,0,0,0.0126953125,16.681640625,0)" xlink:href="#m"/><use transform="matrix(0.0126953125,0,0,0.0126953125,25.314453125,0)" xlink:href="#n"/><use transform="matrix(0.0126953125,0,0,0.0126953125,39.9140625,0)" xlink:href="#m"/><use transform="matrix(0.0126953125,0,0,0.0126953125,48.419921875,0)" xlink:href="#o"/><use transform="matrix(0.0126953125,0,0,0.0126953125,54.716796875,0)" xlink:href="#p"/><use transform="matrix(0.0126953125,0,0,0.0126953125,70.306640625,0)" xlink:href="#q"/></g><g id="f"><use transform="matrix(0.0126953125,0,0,0.0126953125,0,0)" xlink:href="#v"/><use transform="matrix(0.0126953125,0,0,0.0126953125,16.3515625,0)" xlink:href="#p"/><use transform="matrix(0.0126953125,0,0,0.0126953125,31.94140625,0)" xlink:href="#w"/><use transform="matrix(0.0126953125,0,0,0.0126953125,47.3154296875,0)" xlink:href="#m"/><use transform="matrix(0.0126953125,0,0,0.0126953125,55.5673828125,0)" xlink:href="#t"/></g><g id="g"><use transform="matrix(0.0126953125,0,0,0.0126953125,0,0)" xlink:href="#x"/><use transform="matrix(0.0126953125,0,0,0.0126953125,15.310546875,0)" xlink:href="#u"/><use transform="matrix(0.0126953125,0,0,0.0126953125,25.0986328125,0)" xlink:href="#n"/><use transform="matrix(0.0126953125,0,0,0.0126953125,39.6982421875,0)" xlink:href="#o"/><use transform="matrix(0.0126953125,0,0,0.0126953125,45.9951171875,0)" xlink:href="#q"/></g><g id="h"><use transform="matrix(0.0126953125,0,0,0.0126953125,0,0)" xlink:href="#x"/><use transform="matrix(0.0126953125,0,0,0.0126953125,16.783203125,0)" xlink:href="#o"/><use transform="matrix(0.0126953125,0,0,0.0126953125,23.080078125,0)" xlink:href="#y"/><use transform="matrix(0.0126953125,0,0,0.0126953125,45.85546875,0)" xlink:href="#t"/><use transform="matrix(0.0126953125,0,0,0.0126953125,61.013671875,0)" xlink:href="#m"/><use transform="matrix(0.0126953125,0,0,0.0126953125,69.646484375,0)" xlink:href="#n"/><use transform="matrix(0.0126953125,0,0,0.0126953125,84.24609375,0)" xlink:href="#z"/><use transform="matrix(0.0126953125,0,0,0.0126953125,100.166015625,0)" xlink:href="#A"/><use transform="matrix(0.0126953125,0,0,0.0126953125,106.462890625,0)" xlink:href="#t"/></g><path d="M52 0l541-1490h220L1361 0h-200l-149-416H398L254 0H52zm404-582h497c-103-290-145-390-251-756-108 377-145 460-246 756" id="B"/><path d="M158 418v-1536h174v179h20c37-59 106-193 324-193 279 0 474 222 474 576 0 356-194 580-473 580-213 0-288-135-325-197h-14v591H158zm492-555c209 0 317-186 317-421 0-232-105-413-317-413-206 0-314 166-314 413 0 249 111 421 314 421" id="C"/><g id="i"><use transform="matrix(0.0126953125,0,0,0.0126953125,0,0)" xlink:href="#B"/><use transform="matrix(0.0126953125,0,0,0.0126953125,17.9384765625,0)" xlink:href="#C"/><use transform="matrix(0.0126953125,0,0,0.0126953125,33.8583984375,0)" xlink:href="#C"/><use transform="matrix(0.0126953125,0,0,0.0126953125,49.7783203125,0)" xlink:href="#l"/><use transform="matrix(0.0126953125,0,0,0.0126953125,66.4599609375,0)" xlink:href="#m"/><use transform="matrix(0.0126953125,0,0,0.0126953125,75.0927734375,0)" xlink:href="#n"/><use transform="matrix(0.0126953125,0,0,0.0126953125,89.6923828125,0)" xlink:href="#m"/><use transform="matrix(0.0126953125,0,0,0.0126953125,97.9443359375,0)" xlink:href="#t"/></g><path d="M613 24c-304 0-509-231-509-576 0-350 205-580 509-580 216 0 392 114 453 309l-173 49c-33-115-133-197-280-197-223 0-326 196-326 419 0 220 103 415 326 415 150 0 252-85 285-206l172 49C1010-95 832 24 613 24" id="D"/><path d="M692-1560L212 224H46l480-1784h166" id="E"/><path d="M538 24C308 24 148-78 108-271l171-41c32 123 123 178 257 178 156 0 256-77 256-169 0-77-54-128-164-154l-186-44c-203-48-300-148-300-305 0-192 176-326 414-326 230 0 351 112 402 269l-163 42c-31-80-94-158-238-158-133 0-233 69-233 162 0 83 57 129 188 160l169 40c203 48 298 149 298 302 0 196-179 339-441 339" id="F"/><g id="j"><use transform="matrix(0.0126953125,0,0,0.0126953125,0,0)" xlink:href="#n"/><use transform="matrix(0.0126953125,0,0,0.0126953125,14.599609375,0)" xlink:href="#C"/><use transform="matrix(0.0126953125,0,0,0.0126953125,30.51953125,0)" xlink:href="#C"/><use transform="matrix(0.0126953125,0,0,0.0126953125,46.439453125,0)" xlink:href="#A"/><use transform="matrix(0.0126953125,0,0,0.0126953125,52.736328125,0)" xlink:href="#o"/><use transform="matrix(0.0126953125,0,0,0.0126953125,59.033203125,0)" xlink:href="#D"/><use transform="matrix(0.0126953125,0,0,0.0126953125,74.140625,0)" xlink:href="#n"/><use transform="matrix(0.0126953125,0,0,0.0126953125,88.740234375,0)" xlink:href="#m"/><use transform="matrix(0.0126953125,0,0,0.0126953125,97.24609375,0)" xlink:href="#o"/><use transform="matrix(0.0126953125,0,0,0.0126953125,103.54296875,0)" xlink:href="#p"/><use transform="matrix(0.0126953125,0,0,0.0126953125,119.1328125,0)" xlink:href="#q"/><use transform="matrix(0.0126953125,0,0,0.0126953125,134.494140625,0)" xlink:href="#E"/><use transform="matrix(0.0126953125,0,0,0.0126953125,143.86328125,0)" xlink:href="#y"/><use transform="matrix(0.0126953125,0,0,0.0126953125,166.638671875,0)" xlink:href="#n"/><use transform="matrix(0.0126953125,0,0,0.0126953125,181.23828125,0)" xlink:href="#q"/><use transform="matrix(0.0126953125,0,0,0.0126953125,196.599609375,0)" xlink:href="#n"/><use transform="matrix(0.0126953125,0,0,0.0126953125,211.19921875,0)" xlink:href="#s"/><use transform="matrix(0.0126953125,0,0,0.0126953125,227.14453125,0)" xlink:href="#t"/><use transform="matrix(0.0126953125,0,0,0.0126953125,242.302734375,0)" xlink:href="#u"/><use transform="matrix(0.0126953125,0,0,0.0126953125,252.0908203125,0)" xlink:href="#F"/></g><g id="k"><use transform="matrix(0.0126953125,0,0,0.0126953125,0,0)" xlink:href="#t"/><use transform="matrix(0.0126953125,0,0,0.0126953125,15.158203125,0)" xlink:href="#q"/><use transform="matrix(0.0126953125,0,0,0.0126953125,30.51953125,0)" xlink:href="#m"/><use transform="matrix(0.0126953125,0,0,0.0126953125,39.025390625,0)" xlink:href="#o"/><use transform="matrix(0.0126953125,0,0,0.0126953125,45.322265625,0)" xlink:href="#m"/><use transform="matrix(0.0126953125,0,0,0.0126953125,53.828125,0)" xlink:href="#o"/><use transform="matrix(0.0126953125,0,0,0.0126953125,60.125,0)" xlink:href="#t"/><use transform="matrix(0.0126953125,0,0,0.0126953125,75.283203125,0)" xlink:href="#F"/></g></defs></g></svg>