<svg xmlns="http://www.w3.org/2000/svg" xmlns:xlink="http://www.w3.org/1999/xlink" xmlns:lucid="lucid" width="1082" height="662"><g transform="translate(821 -439)" lucid:page-tab-id="iKPZtBprjWR0"><path d="M-144.66 662.22A16.9 16.9 0 0 0-134 666h388a6 6 0 0 1 6 6v142a6 6 0 0 1-6 6H-814a6 6 0 0 1-6-6V646a6 6 0 0 1 6-6h636a16.9 16.9 0 0 1 10.66 3.78zM-820 666h680" stroke="#3a414a" stroke-width="2" fill="#fff"/><path d="M20 718.04a6 6 0 0 1 6-6h208a6 6 0 0 1 6 6v58a6 6 0 0 1-6 6H26a6 6 0 0 1-6-6z" stroke="#3a414a" stroke-width="2" fill="#cfe4ff"/><use xlink:href="#a" transform="matrix(1,0,0,1,32,724.0446636992301) translate(-0.5297309027777715 31.08376736111111)"/><path d="M-520 718.04a6 6 0 0 1 6-6h208a6 6 0 0 1 6 6v58a6 6 0 0 1-6 6h-208a6 6 0 0 1-6-6z" stroke="#3a414a" stroke-width="2" fill="#cfe4ff"/><use xlink:href="#b" transform="matrix(1,0,0,1,-508,724.0446636992301) translate(21.220486111111114 30.15277777777778)"/><path d="M-250 718.04a6 6 0 0 1 6-6h208a6 6 0 0 1 6 6v58a6 6 0 0 1-6 6h-208a6 6 0 0 1-6-6z" stroke="#3a414a" stroke-width="2" fill="#cfe4ff"/><use xlink:href="#c" transform="matrix(1,0,0,1,-238,724.0446636992301) translate(25.22439236111113 30.15277777777778)"/><path d="M-790 718.04a6 6 0 0 1 6-6h208a6 6 0 0 1 6 6v58a6 6 0 0 1-6 6h-208a6 6 0 0 1-6-6z" stroke="#3a414a" stroke-width="2" fill="#cfe4ff"/><use xlink:href="#d" transform="matrix(1,0,0,1,-778,724.0446636992301) translate(14.834852430555571 30.15277777777778)"/><path d="M-380 666a6 6 0 0 1 6-6h208a6 6 0 0 1 6 6v48a6 6 0 0 1-6 6h-208a6 6 0 0 1-6-6z" fill="none"/><use xlink:href="#e" transform="matrix(1,0,0,1,-380,660) translate(-3.5959201388888715 38.083767361111114)"/><path d="M-380 446a6 6 0 0 1 6-6h208a6 6 0 0 1 6 6v58a6 6 0 0 1-6 6h-208a6 6 0 0 1-6-6z" stroke="#3a414a" stroke-width="2" fill="#cfe4ff"/><use xlink:href="#f" transform="matrix(1,0,0,1,-368,452) translate(49.66558159722222 30.15277777777778)"/><path d="M-144.66 942.22A16.9 16.9 0 0 0-134 946h388a6 6 0 0 1 6 6v142a6 6 0 0 1-6 6H-814a6 6 0 0 1-6-6V926a6 6 0 0 1 6-6h636a16.9 16.9 0 0 1 10.66 3.78zM-820 946h680" stroke="#3a414a" stroke-width="2" fill="#fff"/><path d="M20 998.04a6 6 0 0 1 6-6h208a6 6 0 0 1 6 6v58a6 6 0 0 1-6 6H26a6 6 0 0 1-6-6z" stroke="#3a414a" stroke-width="2" fill="#cfe4ff"/><use xlink:href="#g" transform="matrix(1,0,0,1,32,1004.0446636992301) translate(46.025173611111114 30.15277777777778)"/><path d="M-520 998.04a6 6 0 0 1 6-6h208a6 6 0 0 1 6 6v58a6 6 0 0 1-6 6h-208a6 6 0 0 1-6-6z" stroke="#3a414a" stroke-width="2" fill="#cfe4ff"/><use xlink:href="#h" transform="matrix(1,0,0,1,-508,1004.0446636992301) translate(67.775390625 30.15277777777778)"/><path d="M-250 998.04a6 6 0 0 1 6-6h208a6 6 0 0 1 6 6v58a6 6 0 0 1-6 6h-208a6 6 0 0 1-6-6z" stroke="#3a414a" stroke-width="2" fill="#cfe4ff"/><use xlink:href="#i" transform="matrix(1,0,0,1,-238,1004.0446636992301) translate(71.779296875 30.15277777777778)"/><path d="M-790 998.04a6 6 0 0 1 6-6h208a6 6 0 0 1 6 6v58a6 6 0 0 1-6 6h-208a6 6 0 0 1-6-6z" stroke="#3a414a" stroke-width="2" fill="#cfe4ff"/><use xlink:href="#j" transform="matrix(1,0,0,1,-778,1004.0446636992301) translate(61.38975694444445 30.15277777777778)"/><path d="M-380 946a6 6 0 0 1 6-6h208a6 6 0 0 1 6 6v48a6 6 0 0 1-6 6h-208a6 6 0 0 1-6-6z" fill="none"/><use xlink:href="#k" transform="matrix(1,0,0,1,-380,940) translate(71.962890625 38.083767361111114)"/><path d="M-680 990.54V813.42" stroke="#3a414a" stroke-linejoin="round" fill="none"/><path d="M-679.52 991.04h-.96v-.5h.96z" stroke="#3a414a" stroke-width=".05" fill="#3a414a"/><path d="M-680 783.75l-14.85 14.85 14.85 14.85 14.85-14.85z" stroke="#3a414a" fill="#fff"/><path d="M-410 990.54V813.42" stroke="#3a414a" stroke-linejoin="round" fill="none"/><path d="M-409.52 991.04h-.96v-.5h.96z" stroke="#3a414a" stroke-width=".05" fill="#3a414a"/><path d="M-410 783.75l-14.85 14.85 14.85 14.85 14.85-14.85z" stroke="#3a414a" fill="#fff"/><path d="M-140 990.54V813.42" stroke="#3a414a" stroke-linejoin="round" fill="none"/><path d="M-139.53 991.04h-.94v-.5h.94z" stroke="#3a414a" stroke-width=".05" fill="#3a414a"/><path d="M-140 783.75l-14.85 14.85 14.85 14.85 14.85-14.85z" stroke="#3a414a" fill="#fff"/><path d="M130 990.54V813.42" stroke="#3a414a" stroke-linejoin="round" fill="none"/><path d="M130.47 991.04h-.94v-.5h.94z" stroke="#3a414a" stroke-width=".05" fill="#3a414a"/><path d="M130 783.75l-14.85 14.85L130 813.45l14.85-14.85z" stroke="#3a414a" fill="#fff"/><path d="M130 710.54l-.03-1.05-.1-1.54-.16-1.5-.2-1.5-.3-1.5-.34-1.48-.4-1.48-.5-1.5-.56-1.5-.64-1.52-.73-1.55-.82-1.57-.93-1.62-1.05-1.66-1.2-1.72-1.35-1.8-1.54-1.84-1.76-1.95-2-2.05-2.32-2.17-2.68-2.3-3.14-2.5-3.7-2.68-4.4-2.93-5.34-3.22-6.56-3.6-8.23-4.08-10.62-4.72-14.3-5.64-20.58-7.13-34.48-10.33-172.52-46.13-20.58-7.14-14.3-5.64-10.63-4.72-8.24-4.08-6.55-3.6-5.32-3.22-4.42-2.92-3.7-2.7-3.13-2.47-2.68-2.3-2.3-2.17-2.02-2.05-1.76-1.95-1.54-1.86-1.35-1.78-1.2-1.73-1.05-1.66-.94-1.6-.83-1.6-.73-1.54-.64-1.52-.56-1.5-.5-1.5-.4-1.48-.35-1.48-.3-1.5-.2-1.48-.17-1.5-.1-1.54-.02-1.06" stroke="#3a414a" stroke-linejoin="round" fill="none"/><path d="M130.47 711.04h-.94l-.02-.5.96-.02zM-269.52 511.5h-.96v-.5h.96z" stroke="#3a414a" stroke-width=".05" fill="#3a414a"/><path d="M-140 710.54l-.1-4.2-.28-4.4-.44-4.2-.6-4.02-.72-3.85-.88-3.73-1-3.6-1.15-3.55-1.3-3.48-1.44-3.44-1.62-3.4-1.8-3.43-1.98-3.46-2.23-3.5-2.5-3.62-2.85-3.74-3.27-3.95-3.82-4.25-4.6-4.7-5.84-5.47-8.27-7.1-44.92-36-5.82-5.48-4.6-4.7-3.83-4.24-3.27-3.95-2.84-3.74-2.5-3.6-2.24-3.5-2-3.46-1.78-3.42-1.6-3.42-1.45-3.43-1.3-3.48-1.15-3.53-1-3.62-.88-3.72-.73-3.85-.58-4.02-.44-4.2-.28-4.4-.1-4.2" stroke="#3a414a" stroke-linejoin="round" fill="none"/><path d="M-139.53 711.04h-.94l-.02-.5.96-.02zM-269.52 511.5h-.96v-.5h.96z" stroke="#3a414a" stroke-width=".05" fill="#3a414a"/><path d="M-680 710.54l.03-1.02.1-1.5.15-1.46.22-1.46.27-1.46.34-1.45.42-1.46.47-1.46.54-1.47.63-1.48.72-1.52.8-1.55.9-1.6 1.05-1.62 1.17-1.7 1.33-1.74 1.5-1.84 1.74-1.9 1.96-2.02 2.28-2.14 2.64-2.28 3.1-2.44 3.63-2.64 4.35-2.9 5.25-3.16 6.46-3.54 8.1-4 10.43-4.65 13.98-5.53 19.97-6.92 32.5-9.74 188.4-49.5 19.97-6.92 14-5.53 10.43-4.63 8.1-4 6.45-3.55 5.25-3.18 4.34-2.9 3.63-2.63 3.1-2.45 2.63-2.27 2.28-2.14 1.97-2 1.74-1.92 1.5-1.83 1.34-1.75 1.17-1.7 1.04-1.62.9-1.58.8-1.55.73-1.52.63-1.5.55-1.47.48-1.46.4-1.45.35-1.45.27-1.45.22-1.46.15-1.5.1-1.48.02-1.02" stroke="#3a414a" stroke-linejoin="round" fill="none"/><path d="M-679.5 710.54l-.02.5h-.96l.02-.52zM-269.52 511.5h-.96v-.5h.96z" stroke="#3a414a" stroke-width=".05" fill="#3a414a"/><path d="M-410 710.54l.1-3.86.25-4.13.4-3.94.57-3.77.7-3.64.82-3.54.96-3.43 1.1-3.36 1.22-3.3 1.38-3.3 1.54-3.25 1.7-3.27 1.9-3.3 2.13-3.34 2.4-3.42 2.68-3.54 3.07-3.7 3.54-3.94 4.2-4.27 5.08-4.78 6.55-5.64 9.63-7.6 45.78-33.96 6.56-5.65 5.1-4.78 4.18-4.27 3.54-3.94 3.07-3.7 2.7-3.54 2.38-3.43 2.12-3.34 1.9-3.3 1.7-3.27 1.55-3.27 1.38-3.27 1.23-3.32.1-.33" stroke="#3a414a" stroke-linejoin="round" fill="none"/><path d="M-409.5 710.54l-.02.5h-.96l.02-.52z" stroke="#3a414a" stroke-width=".05" fill="#3a414a"/><path d="M-270.1 511.7l-17.03 12.3 12.3 17.02 17.03-12.3z" stroke="#3a414a" fill="#fff"/><defs><path d="M98-1322v-168h1126v168H757V0H567v-1322H98" id="l"/><path d="M158 0v-1118h180V0H158zm91-1301c-68 0-125-53-125-119s57-119 125-119c69 0 126 53 126 119s-57 119-126 119" id="m"/><path d="M158 0v-1118h175l1 205c55-151 181-225 313-225 147 0 245 90 285 228 53-141 190-228 352-228 194 0 352 125 352 384V0h-181v-749c0-161-105-225-225-225-151 0-243 103-243 244V0H807v-767c0-124-93-207-219-207-131 0-250 92-250 270V0H158" id="n"/><path d="M628 24c-324 0-524-230-524-574 0-343 198-582 503-582 237 0 487 146 487 559v75H286c9 234 145 362 343 362 132 0 231-58 273-172l174 48C1024-91 857 24 628 24zM287-650h624c-17-190-120-322-304-322-192 0-309 151-320 322" id="o"/><path d="M598-1118v154H368v674c0 100 37 144 132 144 23 0 62-6 92-12L629-6c-37 13-88 20-134 20-193 0-307-107-307-290v-688H20v-154h168v-266h180v266h230" id="p"/><path d="M471 26C259 26 90-98 90-318c0-256 228-303 435-329 202-27 287-16 287-108 0-139-79-219-234-219-161 0-248 86-283 164l-173-57c86-203 278-265 451-265 150 0 419 46 419 395V0H815v-152h-12C765-73 660 26 471 26zm31-159c199 0 310-134 310-271v-155c-30 35-226 55-295 64-131 17-246 59-246 186 0 116 97 176 231 176" id="q"/><path d="M677 24c-213 0-288-135-325-197h-20V0H158v-1490h180v551h14c37-59 106-193 324-193 279 0 474 222 474 576 0 356-194 580-473 580zm-27-161c209 0 317-186 317-421 0-232-105-413-317-413-206 0-314 166-314 413 0 249 111 421 314 421" id="r"/><path d="M338-1490V0H158v-1490h180" id="s"/><path d="M180 0v-1490h270l367 940c28 72 75 218 110 339 35-117 81-264 110-339l362-940h271V0h-187c2-448-5-837 7-1287-157 497-311 829-483 1287H842C666-458 514-784 354-1284c12 438 5 843 7 1284H180" id="t"/><path d="M338-670V0H158v-1118h173l1 207c72-158 192-221 342-221 226 0 378 139 378 422V0H872v-695c0-172-96-275-252-275-161 0-282 109-282 300" id="u"/><path d="M611 442c-248 0-391-105-460-228l146-94c47 65 117 165 314 165 178 0 307-82 307-266v-224h-17C863-141 792-18 576-18c-268 0-472-195-472-546 0-346 197-568 476-568 216 0 288 133 326 193h17v-179h175V29c0 289-215 413-487 413zm-5-620c203 0 314-146 314-390 0-237-108-403-314-403-213 0-319 180-319 403 0 230 109 390 319 390" id="v"/><path d="M158 0v-1118h174v172h12c41-113 157-188 290-188 26 0 70 2 91 3v181c-11-2-60-10-108-10-161 0-279 109-279 260V0H158" id="w"/><g id="a"><use transform="matrix(0.010850694444444444,0,0,0.010850694444444444,0,0)" xlink:href="#l"/><use transform="matrix(0.010850694444444444,0,0,0.010850694444444444,14.344618055555555,0)" xlink:href="#m"/><use transform="matrix(0.010850694444444444,0,0,0.010850694444444444,19.7265625,0)" xlink:href="#n"/><use transform="matrix(0.010850694444444444,0,0,0.010850694444444444,39.19270833333333,0)" xlink:href="#o"/><use transform="matrix(0.010850694444444444,0,0,0.010850694444444444,52.148437499999986,0)" xlink:href="#p"/><use transform="matrix(0.010850694444444444,0,0,0.010850694444444444,59.52690972222221,0)" xlink:href="#q"/><use transform="matrix(0.010850694444444444,0,0,0.010850694444444444,72.00520833333333,0)" xlink:href="#r"/><use transform="matrix(0.010850694444444444,0,0,0.010850694444444444,85.61197916666666,0)" xlink:href="#s"/><use transform="matrix(0.010850694444444444,0,0,0.010850694444444444,90.99392361111111,0)" xlink:href="#o"/><use transform="matrix(0.010850694444444444,0,0,0.010850694444444444,103.94965277777777,0)" xlink:href="#t"/><use transform="matrix(0.010850694444444444,0,0,0.010850694444444444,124.0234375,0)" xlink:href="#q"/><use transform="matrix(0.010850694444444444,0,0,0.010850694444444444,136.50173611111111,0)" xlink:href="#u"/><use transform="matrix(0.010850694444444444,0,0,0.010850694444444444,149.63107638888889,0)" xlink:href="#q"/><use transform="matrix(0.010850694444444444,0,0,0.010850694444444444,162.109375,0)" xlink:href="#v"/><use transform="matrix(0.010850694444444444,0,0,0.010850694444444444,175.73784722222223,0)" xlink:href="#o"/><use transform="matrix(0.010850694444444444,0,0,0.010850694444444444,188.69357638888889,0)" xlink:href="#w"/></g><path d="M180 0v-1490h510c348 0 508 194 508 460 0 198-88 351-276 417L1256 0h-220L726-579c-117 2-238 0-356 1V0H180zm190-747h312c235 0 327-108 327-283 0-177-92-293-329-293H370v576" id="x"/><path d="M613 24c-304 0-509-231-509-576 0-350 205-580 509-580 305 0 511 230 511 580 0 345-206 576-511 576zm0-161c226 0 329-195 329-415 0-222-103-419-329-419-223 0-326 196-326 419 0 220 103 415 326 415" id="y"/><path d="M537 14c-226 0-379-139-379-422v-710h180v695c0 172 97 275 253 275 160 0 281-109 281-300v-670h181V0H879v-209C806-46 684 14 537 14" id="z"/><g id="b"><use transform="matrix(0.010850694444444444,0,0,0.010850694444444444,0,0)" xlink:href="#x"/><use transform="matrix(0.010850694444444444,0,0,0.010850694444444444,13.975694444444445,0)" xlink:href="#y"/><use transform="matrix(0.010850694444444444,0,0,0.010850694444444444,27.30034722222222,0)" xlink:href="#z"/><use transform="matrix(0.010850694444444444,0,0,0.010850694444444444,40.44053819444444,0)" xlink:href="#p"/><use transform="matrix(0.010850694444444444,0,0,0.010850694444444444,47.49348958333333,0)" xlink:href="#o"/><use transform="matrix(0.010850694444444444,0,0,0.010850694444444444,60.44921875,0)" xlink:href="#t"/><use transform="matrix(0.010850694444444444,0,0,0.010850694444444444,80.52300347222223,0)" xlink:href="#q"/><use transform="matrix(0.010850694444444444,0,0,0.010850694444444444,93.00130208333334,0)" xlink:href="#u"/><use transform="matrix(0.010850694444444444,0,0,0.010850694444444444,106.13064236111111,0)" xlink:href="#q"/><use transform="matrix(0.010850694444444444,0,0,0.010850694444444444,118.60894097222224,0)" xlink:href="#v"/><use transform="matrix(0.010850694444444444,0,0,0.010850694444444444,132.23741319444446,0)" xlink:href="#o"/><use transform="matrix(0.010850694444444444,0,0,0.010850694444444444,145.19314236111111,0)" xlink:href="#w"/></g><g id="c"><use transform="matrix(0.010850694444444444,0,0,0.010850694444444444,0,0)" xlink:href="#l"/><use transform="matrix(0.010850694444444444,0,0,0.010850694444444444,13.0859375,0)" xlink:href="#w"/><use transform="matrix(0.010850694444444444,0,0,0.010850694444444444,21.451822916666664,0)" xlink:href="#q"/><use transform="matrix(0.010850694444444444,0,0,0.010850694444444444,33.93012152777777,0)" xlink:href="#m"/><use transform="matrix(0.010850694444444444,0,0,0.010850694444444444,39.312065972222214,0)" xlink:href="#u"/><use transform="matrix(0.010850694444444444,0,0,0.010850694444444444,52.441406249999986,0)" xlink:href="#t"/><use transform="matrix(0.010850694444444444,0,0,0.010850694444444444,72.51519097222221,0)" xlink:href="#q"/><use transform="matrix(0.010850694444444444,0,0,0.010850694444444444,84.99348958333333,0)" xlink:href="#u"/><use transform="matrix(0.010850694444444444,0,0,0.010850694444444444,98.12282986111111,0)" xlink:href="#q"/><use transform="matrix(0.010850694444444444,0,0,0.010850694444444444,110.60112847222221,0)" xlink:href="#v"/><use transform="matrix(0.010850694444444444,0,0,0.010850694444444444,124.22960069444441,0)" xlink:href="#o"/><use transform="matrix(0.010850694444444444,0,0,0.010850694444444444,137.1853298611111,0)" xlink:href="#w"/></g><path d="M657 26c-323 0-524-166-541-416h195c15 169 171 246 346 246 202 0 356-106 356-265 5-203-294-238-475-293-239-73-380-191-380-389 0-252 224-419 512-419 294 0 499 171 508 396H992c-17-145-151-228-328-228-193 0-321 102-321 242 0 156 175 211 284 241l149 41c160 44 422 134 422 412 0 244-197 432-541 432" id="A"/><g id="d"><use transform="matrix(0.010850694444444444,0,0,0.010850694444444444,0,0)" xlink:href="#A"/><use transform="matrix(0.010850694444444444,0,0,0.010850694444444444,14.2578125,0)" xlink:href="#p"/><use transform="matrix(0.010850694444444444,0,0,0.010850694444444444,21.63628472222222,0)" xlink:href="#q"/><use transform="matrix(0.010850694444444444,0,0,0.010850694444444444,34.11458333333333,0)" xlink:href="#p"/><use transform="matrix(0.010850694444444444,0,0,0.010850694444444444,41.38454861111111,0)" xlink:href="#m"/><use transform="matrix(0.010850694444444444,0,0,0.010850694444444444,46.76649305555556,0)" xlink:href="#y"/><use transform="matrix(0.010850694444444444,0,0,0.010850694444444444,60.09114583333333,0)" xlink:href="#u"/><use transform="matrix(0.010850694444444444,0,0,0.010850694444444444,73.2204861111111,0)" xlink:href="#t"/><use transform="matrix(0.010850694444444444,0,0,0.010850694444444444,93.29427083333331,0)" xlink:href="#q"/><use transform="matrix(0.010850694444444444,0,0,0.010850694444444444,105.77256944444441,0)" xlink:href="#u"/><use transform="matrix(0.010850694444444444,0,0,0.010850694444444444,118.9019097222222,0)" xlink:href="#q"/><use transform="matrix(0.010850694444444444,0,0,0.010850694444444444,131.38020833333331,0)" xlink:href="#v"/><use transform="matrix(0.010850694444444444,0,0,0.010850694444444444,145.00868055555554,0)" xlink:href="#o"/><use transform="matrix(0.010850694444444444,0,0,0.010850694444444444,157.9644097222222,0)" xlink:href="#w"/></g><path d="M158 418v-1536h174v179h20c37-59 106-193 324-193 279 0 474 222 474 576 0 356-194 580-473 580-213 0-288-135-325-197h-14v591H158zm492-555c209 0 317-186 317-421 0-232-105-413-317-413-206 0-314 166-314 413 0 249 111 421 314 421" id="B"/><path d="M613 24c-304 0-509-231-509-576 0-350 205-580 509-580 216 0 392 114 453 309l-173 49c-33-115-133-197-280-197-223 0-326 196-326 419 0 220 103 415 326 415 150 0 252-85 285-206l172 49C1010-95 832 24 613 24" id="C"/><path d="M692-1560L212 224H46l480-1784h166" id="D"/><path d="M538 24C308 24 148-78 108-271l171-41c32 123 123 178 257 178 156 0 256-77 256-169 0-77-54-128-164-154l-186-44c-203-48-300-148-300-305 0-192 176-326 414-326 230 0 351 112 402 269l-163 42c-31-80-94-158-238-158-133 0-233 69-233 162 0 83 57 129 188 160l169 40c203 48 298 149 298 302 0 196-179 339-441 339" id="E"/><g id="e"><use transform="matrix(0.010850694444444444,0,0,0.010850694444444444,0,0)" xlink:href="#q"/><use transform="matrix(0.010850694444444444,0,0,0.010850694444444444,12.47829861111111,0)" xlink:href="#B"/><use transform="matrix(0.010850694444444444,0,0,0.010850694444444444,26.085069444444443,0)" xlink:href="#B"/><use transform="matrix(0.010850694444444444,0,0,0.010850694444444444,39.69184027777777,0)" xlink:href="#s"/><use transform="matrix(0.010850694444444444,0,0,0.010850694444444444,45.07378472222221,0)" xlink:href="#m"/><use transform="matrix(0.010850694444444444,0,0,0.010850694444444444,50.45572916666666,0)" xlink:href="#C"/><use transform="matrix(0.010850694444444444,0,0,0.010850694444444444,63.36805555555554,0)" xlink:href="#q"/><use transform="matrix(0.010850694444444444,0,0,0.010850694444444444,75.84635416666666,0)" xlink:href="#p"/><use transform="matrix(0.010850694444444444,0,0,0.010850694444444444,83.11631944444443,0)" xlink:href="#m"/><use transform="matrix(0.010850694444444444,0,0,0.010850694444444444,88.49826388888887,0)" xlink:href="#y"/><use transform="matrix(0.010850694444444444,0,0,0.010850694444444444,101.82291666666664,0)" xlink:href="#u"/><use transform="matrix(0.010850694444444444,0,0,0.010850694444444444,114.95225694444441,0)" xlink:href="#D"/><use transform="matrix(0.010850694444444444,0,0,0.010850694444444444,122.96006944444441,0)" xlink:href="#n"/><use transform="matrix(0.010850694444444444,0,0,0.010850694444444444,142.42621527777774,0)" xlink:href="#q"/><use transform="matrix(0.010850694444444444,0,0,0.010850694444444444,154.90451388888886,0)" xlink:href="#u"/><use transform="matrix(0.010850694444444444,0,0,0.010850694444444444,168.03385416666663,0)" xlink:href="#q"/><use transform="matrix(0.010850694444444444,0,0,0.010850694444444444,180.51215277777774,0)" xlink:href="#v"/><use transform="matrix(0.010850694444444444,0,0,0.010850694444444444,194.14062499999994,0)" xlink:href="#o"/><use transform="matrix(0.010850694444444444,0,0,0.010850694444444444,207.09635416666663,0)" xlink:href="#w"/><use transform="matrix(0.010850694444444444,0,0,0.010850694444444444,215.4622395833333,0)" xlink:href="#E"/></g><path d="M52 0l541-1490h220L1361 0h-200l-149-416H398L254 0H52zm404-582h497c-103-290-145-390-251-756-108 377-145 460-246 756" id="F"/><g id="f"><use transform="matrix(0.010850694444444444,0,0,0.010850694444444444,0,0)" xlink:href="#F"/><use transform="matrix(0.010850694444444444,0,0,0.010850694444444444,15.33203125,0)" xlink:href="#B"/><use transform="matrix(0.010850694444444444,0,0,0.010850694444444444,28.938802083333332,0)" xlink:href="#B"/><use transform="matrix(0.010850694444444444,0,0,0.010850694444444444,42.545572916666664,0)" xlink:href="#A"/><use transform="matrix(0.010850694444444444,0,0,0.010850694444444444,56.803385416666664,0)" xlink:href="#p"/><use transform="matrix(0.010850694444444444,0,0,0.010850694444444444,64.18185763888889,0)" xlink:href="#q"/><use transform="matrix(0.010850694444444444,0,0,0.010850694444444444,76.66015625,0)" xlink:href="#p"/><use transform="matrix(0.010850694444444444,0,0,0.010850694444444444,83.71310763888889,0)" xlink:href="#o"/></g><g id="g"><use transform="matrix(0.010850694444444444,0,0,0.010850694444444444,0,0)" xlink:href="#l"/><use transform="matrix(0.010850694444444444,0,0,0.010850694444444444,14.344618055555555,0)" xlink:href="#m"/><use transform="matrix(0.010850694444444444,0,0,0.010850694444444444,19.7265625,0)" xlink:href="#n"/><use transform="matrix(0.010850694444444444,0,0,0.010850694444444444,39.19270833333333,0)" xlink:href="#o"/><use transform="matrix(0.010850694444444444,0,0,0.010850694444444444,52.148437499999986,0)" xlink:href="#p"/><use transform="matrix(0.010850694444444444,0,0,0.010850694444444444,59.52690972222221,0)" xlink:href="#q"/><use transform="matrix(0.010850694444444444,0,0,0.010850694444444444,72.00520833333333,0)" xlink:href="#r"/><use transform="matrix(0.010850694444444444,0,0,0.010850694444444444,85.61197916666666,0)" xlink:href="#s"/><use transform="matrix(0.010850694444444444,0,0,0.010850694444444444,90.99392361111111,0)" xlink:href="#o"/></g><g id="h"><use transform="matrix(0.010850694444444444,0,0,0.010850694444444444,0,0)" xlink:href="#x"/><use transform="matrix(0.010850694444444444,0,0,0.010850694444444444,13.975694444444445,0)" xlink:href="#y"/><use transform="matrix(0.010850694444444444,0,0,0.010850694444444444,27.30034722222222,0)" xlink:href="#z"/><use transform="matrix(0.010850694444444444,0,0,0.010850694444444444,40.44053819444444,0)" xlink:href="#p"/><use transform="matrix(0.010850694444444444,0,0,0.010850694444444444,47.49348958333333,0)" xlink:href="#o"/></g><g id="i"><use transform="matrix(0.010850694444444444,0,0,0.010850694444444444,0,0)" xlink:href="#l"/><use transform="matrix(0.010850694444444444,0,0,0.010850694444444444,13.0859375,0)" xlink:href="#w"/><use transform="matrix(0.010850694444444444,0,0,0.010850694444444444,21.451822916666664,0)" xlink:href="#q"/><use transform="matrix(0.010850694444444444,0,0,0.010850694444444444,33.93012152777777,0)" xlink:href="#m"/><use transform="matrix(0.010850694444444444,0,0,0.010850694444444444,39.312065972222214,0)" xlink:href="#u"/></g><g id="j"><use transform="matrix(0.010850694444444444,0,0,0.010850694444444444,0,0)" xlink:href="#A"/><use transform="matrix(0.010850694444444444,0,0,0.010850694444444444,14.2578125,0)" xlink:href="#p"/><use transform="matrix(0.010850694444444444,0,0,0.010850694444444444,21.63628472222222,0)" xlink:href="#q"/><use transform="matrix(0.010850694444444444,0,0,0.010850694444444444,34.11458333333333,0)" xlink:href="#p"/><use transform="matrix(0.010850694444444444,0,0,0.010850694444444444,41.38454861111111,0)" xlink:href="#m"/><use transform="matrix(0.010850694444444444,0,0,0.010850694444444444,46.76649305555556,0)" xlink:href="#y"/><use transform="matrix(0.010850694444444444,0,0,0.010850694444444444,60.09114583333333,0)" xlink:href="#u"/></g><g id="k"><use transform="matrix(0.010850694444444444,0,0,0.010850694444444444,0,0)" xlink:href="#o"/><use transform="matrix(0.010850694444444444,0,0,0.010850694444444444,12.955729166666666,0)" xlink:href="#u"/><use transform="matrix(0.010850694444444444,0,0,0.010850694444444444,26.085069444444443,0)" xlink:href="#p"/><use transform="matrix(0.010850694444444444,0,0,0.010850694444444444,33.35503472222222,0)" xlink:href="#m"/><use transform="matrix(0.010850694444444444,0,0,0.010850694444444444,38.736979166666664,0)" xlink:href="#p"/><use transform="matrix(0.010850694444444444,0,0,0.010850694444444444,46.00694444444444,0)" xlink:href="#m"/><use transform="matrix(0.010850694444444444,0,0,0.010850694444444444,51.388888888888886,0)" xlink:href="#o"/><use transform="matrix(0.010850694444444444,0,0,0.010850694444444444,64.34461805555556,0)" xlink:href="#E"/></g></defs></g></svg>